G04 GENERATED BY PULSONIX 8.5 GERBER.DLL 5902*
G04 #@! TF.Part,Single*
%INPLATINE_1_NEW*%
%LNBOTTOM*%
%FSLAX35Y35*%
%LPD*%
%MOIN*%
G04 #@! TF.FileFunction,Copper,L2,Bot*
G04 #@! TA.AperFunction,Conductor*
%ADD10C,0.01200*%
G04 #@! TA.AperFunction,ViaPad*
%ADD13C,0.04724X0.01969*%
G04 #@! TA.AperFunction,ComponentPad*
%ADD70R,0.07000X0.07000X0.03900*%
%ADD71C,0.07000X0.03900*%
G04 #@! TA.AperFunction,ViaPad*
%ADD85C,0.05906X0.01969*%
G04 #@! TA.AperFunction,ComponentPad*
%ADD87C,0.06693X0.02756*%
G04 #@! TA.AperFunction,Conductor*
%ADD88C,0.05000*%
X0Y0D02*
D02*
D10*
X107297Y89489D02*
X136146D01*
X141146Y84489*
Y79262*
X139562Y97363D02*
X89965D01*
X85044Y92442*
Y49332*
X80123Y44410*
X63390*
X58469Y49332*
Y66861*
X53548Y71782*
X52337*
X160831Y87136D02*
Y96782D01*
X155831Y101782*
X82337*
X188390Y91842D02*
Y79524D01*
X193312Y74603*
X254738*
X189975Y61930D02*
X220319D01*
X223036Y64647*
X254738*
D02*
D13*
X105713Y89489D03*
X141146Y77678D03*
Y97363D03*
X160831Y85552D03*
X188390Y61930D03*
Y93426D03*
D02*
D70*
X257288Y54647D03*
D02*
D71*
Y64647D03*
Y74647D03*
Y84647D03*
Y94647D03*
Y104647D03*
D02*
D85*
X117524Y69804D03*
X121461Y109174D03*
X180516Y73741D03*
X208075Y101300D03*
Y109174D03*
D02*
D87*
X50359Y51782D03*
Y61782D03*
Y71782D03*
Y81782D03*
Y91782D03*
Y101782D03*
X80359Y51782D03*
Y61782D03*
Y71782D03*
Y81782D03*
Y91782D03*
Y101782D03*
D02*
D88*
X121461Y109174D02*
X208075D01*
X180516Y73741D02*
Y72466D01*
X177855Y69804*
X117524*
X180516Y73741D02*
Y96379D01*
X185438Y101300*
X208075*
X0Y0D02*
M02*
