G04 GENERATED BY PULSONIX 8.5 GERBER.DLL 5902*
G04 #@! TF.Part,Single*
%INPLATINE_1_NEW*%
%LNDRILL DRAWING*%
%FSLAX35Y35*%
%LPD*%
%MOIN*%
%ADD27C,0.00500*%
G04 #@! TA.AperFunction,ViaPad*
%ADD83C,0.01969*%
G04 #@! TA.AperFunction,ComponentPad*
%ADD84C,0.03900*%
%ADD92C,0.02756*%
X0Y0D02*
D02*
D27*
X51987Y52665D02*
X51987Y56194D01*
Y54430D02*
X54928Y54430D01*
Y52665D02*
X54928Y56194D01*
X51987Y62665D02*
X51987Y66194D01*
Y64430D02*
X54928Y64430D01*
Y62665D02*
X54928Y66194D01*
X51987Y72665D02*
X51987Y76194D01*
Y74430D02*
X54928Y74430D01*
Y72665D02*
X54928Y76194D01*
X51987Y82665D02*
X51987Y86194D01*
Y84430D02*
X54928Y84430D01*
Y82665D02*
X54928Y86194D01*
X51987Y92665D02*
X51987Y96194D01*
Y94430D02*
X54928Y94430D01*
Y92665D02*
X54928Y96194D01*
X51987Y102665D02*
X51987Y106194D01*
Y104430D02*
X54928Y104430D01*
Y102665D02*
X54928Y106194D01*
X81987Y52665D02*
X81987Y56194D01*
Y54430D02*
X84928Y54430D01*
Y52665D02*
X84928Y56194D01*
X81987Y62665D02*
X81987Y66194D01*
Y64430D02*
X84928Y64430D01*
Y62665D02*
X84928Y66194D01*
X81987Y72665D02*
X81987Y76194D01*
Y74430D02*
X84928Y74430D01*
Y72665D02*
X84928Y76194D01*
X81987Y82665D02*
X81987Y86194D01*
Y84430D02*
X84928Y84430D01*
Y82665D02*
X84928Y86194D01*
X81987Y92665D02*
X81987Y96194D01*
Y94430D02*
X84928Y94430D01*
Y92665D02*
X84928Y96194D01*
X81987Y102665D02*
X81987Y106194D01*
Y104430D02*
X84928Y104430D01*
Y102665D02*
X84928Y106194D01*
X106947Y90372D02*
X108124Y90372D01*
X107536D02*
X107536Y93901D01*
X106947D02*
X108124Y93901D01*
X118758Y70686D02*
X119935Y70686D01*
X119347D02*
X119347Y74216D01*
X118758D02*
X119935Y74216D01*
X122695Y110057D02*
X123872Y110057D01*
X123284D02*
X123284Y113586D01*
X122695D02*
X123872Y113586D01*
X142381Y78561D02*
X143557Y78561D01*
X142969D02*
X142969Y82090D01*
X142381D02*
X143557Y82090D01*
X142381Y98246D02*
X143557Y98246D01*
X142969D02*
X142969Y101775D01*
X142381D02*
X143557Y101775D01*
X162066Y86435D02*
X163242Y86435D01*
X162654D02*
X162654Y89964D01*
X162066D02*
X163242Y89964D01*
X181751Y74624D02*
X182927Y74624D01*
X182339D02*
X182339Y78153D01*
X181751D02*
X182927Y78153D01*
X189625Y62812D02*
X190801Y62812D01*
X190213D02*
X190213Y66342D01*
X189625D02*
X190801Y66342D01*
X189625Y94309D02*
X190801Y94309D01*
X190213D02*
X190213Y97838D01*
X189625D02*
X190801Y97838D01*
X209310Y102183D02*
X210486Y102183D01*
X209898D02*
X209898Y105712D01*
X209310D02*
X210486Y105712D01*
X209310Y110057D02*
X210486Y110057D01*
X209898D02*
X209898Y113586D01*
X209310D02*
X210486Y113586D01*
X259488Y56117D02*
X259782Y55823D01*
X260370Y55529*
X260959Y55823*
X261253Y56117*
Y59058*
X261841*
X261253D02*
X260076Y59058D01*
X259488Y66117D02*
X259782Y65823D01*
X260370Y65529*
X260959Y65823*
X261253Y66117*
Y69058*
X261841*
X261253D02*
X260076Y69058D01*
X259488Y76117D02*
X259782Y75823D01*
X260370Y75529*
X260959Y75823*
X261253Y76117*
Y79058*
X261841*
X261253D02*
X260076Y79058D01*
X259488Y86117D02*
X259782Y85823D01*
X260370Y85529*
X260959Y85823*
X261253Y86117*
Y89058*
X261841*
X261253D02*
X260076Y89058D01*
X259488Y96117D02*
X259782Y95823D01*
X260370Y95529*
X260959Y95823*
X261253Y96117*
Y99058*
X261841*
X261253D02*
X260076Y99058D01*
X259488Y106117D02*
X259782Y105823D01*
X260370Y105529*
X260959Y105823*
X261253Y106117*
Y109058*
X261841*
X261253D02*
X260076Y109058D01*
D02*
D83*
X105713Y89489D03*
X117524Y69804D03*
X121461Y109174D03*
X141146Y77678D03*
Y97363D03*
X160831Y85552D03*
X180516Y73741D03*
X188390Y61930D03*
Y93426D03*
X208075Y101300D03*
Y109174D03*
D02*
D84*
X257288Y54647D03*
Y64647D03*
Y74647D03*
Y84647D03*
Y94647D03*
Y104647D03*
D02*
D92*
X50359Y51782D03*
Y61782D03*
Y71782D03*
Y81782D03*
Y91782D03*
Y101782D03*
X80359Y51782D03*
Y61782D03*
Y71782D03*
Y81782D03*
Y91782D03*
Y101782D03*
X0Y0D02*
M02*
