G04 GENERATED BY PULSONIX 8.5 GERBER.DLL 5902*
G04 #@! TF.Part,Single*
%INPLATINE_1_NEW*%
%LNSILKSCREEN TOP*%
%FSLAX35Y35*%
%LPD*%
%MOIN*%
G04 #@! TF.FileFunction,Legend,Top*
%ADD21C,0.00001*%
G04 #@! TA.AperFunction,Profile*
%ADD23C,0.01000*%
G04 #@! TA.AperFunction,NonMaterial*
%ADD24C,0.00787*%
G04 #@! TD.AperFunction*
%ADD25C,0.00492*%
%ADD27C,0.00500*%
G04 #@! TA.AperFunction,NonMaterial*
%ADD72C,0.00394*%
X0Y0D02*
D02*
D21*
X105758Y81853D02*
X106166Y81729D01*
X106131Y81576*
X106083Y81434*
X106036Y81304*
X105983Y81180*
X105918Y81068*
X105847Y80968*
X105776Y80873*
X105694Y80790*
X105605Y80719*
X105516Y80655*
X105422Y80601*
X105321Y80560*
X105215Y80525*
X105109Y80501*
X104991Y80489*
X104873Y80483*
X104766Y80489*
X104666Y80495*
X104571Y80513*
X104477Y80536*
X104388Y80566*
X104306Y80601*
X104223Y80643*
X104146Y80690*
X104075Y80749*
X104005Y80808*
X103934Y80879*
X103875Y80962*
X103816Y81050*
X103756Y81145*
X103703Y81245*
X103656Y81357*
X103609Y81475*
X103568Y81594*
X103538Y81723*
X103508Y81859*
X103491Y81995*
X103473Y82137*
X103467Y82284*
X103461Y82438*
X103467Y82592*
X103473Y82733*
X103491Y82875*
X103508Y83011*
X103538Y83135*
X103568Y83259*
X103609Y83371*
X103656Y83483*
X103703Y83584*
X103756Y83684*
X103816Y83773*
X103881Y83855*
X103945Y83932*
X104016Y84003*
X104093Y84068*
X104176Y84127*
X104258Y84180*
X104341Y84221*
X104430Y84257*
X104518Y84292*
X104613Y84316*
X104707Y84334*
X104808Y84340*
X104908Y84345*
X105014Y84340*
X105121Y84328*
X105221Y84304*
X105316Y84275*
X105410Y84239*
X105499Y84192*
X105587Y84133*
X105670Y84068*
X105747Y83997*
X105818Y83914*
X105877Y83826*
X105936Y83725*
X105989Y83625*
X106036Y83507*
X106077Y83389*
X106113Y83259*
X105717Y83147*
X105688Y83241*
X105658Y83330*
X105629Y83406*
X105587Y83483*
X105552Y83554*
X105505Y83619*
X105463Y83672*
X105410Y83725*
X105357Y83773*
X105304Y83808*
X105245Y83844*
X105180Y83873*
X105115Y83891*
X105050Y83908*
X104973Y83914*
X104902Y83920*
X104755Y83908*
X104613Y83879*
X104489Y83832*
X104371Y83761*
X104264Y83672*
X104170Y83566*
X104087Y83430*
X104016Y83277*
X103957Y83099*
X103916Y82899*
X103886Y82680*
X103881Y82438*
X103886Y82255*
X103898Y82078*
X103916Y81918*
X103945Y81771*
X103987Y81629*
X104034Y81505*
X104087Y81393*
X104152Y81292*
X104223Y81204*
X104294Y81121*
X104377Y81056*
X104465Y81003*
X104554Y80962*
X104654Y80932*
X104760Y80914*
X104867Y80908*
X104949Y80914*
X105026Y80920*
X105103Y80938*
X105174Y80968*
X105245Y80997*
X105310Y81038*
X105375Y81086*
X105440Y81145*
X105493Y81204*
X105546Y81275*
X105593Y81351*
X105640Y81434*
X105676Y81529*
X105705Y81629*
X105735Y81735*
X105758Y81853*
G36*
X106166Y81729*
X106131Y81576*
X106083Y81434*
X106036Y81304*
X105983Y81180*
X105918Y81068*
X105847Y80968*
X105776Y80873*
X105694Y80790*
X105605Y80719*
X105516Y80655*
X105422Y80601*
X105321Y80560*
X105215Y80525*
X105109Y80501*
X104991Y80489*
X104873Y80483*
X104766Y80489*
X104666Y80495*
X104571Y80513*
X104477Y80536*
X104388Y80566*
X104306Y80601*
X104223Y80643*
X104146Y80690*
X104075Y80749*
X104005Y80808*
X103934Y80879*
X103875Y80962*
X103816Y81050*
X103756Y81145*
X103703Y81245*
X103656Y81357*
X103609Y81475*
X103568Y81594*
X103538Y81723*
X103508Y81859*
X103491Y81995*
X103473Y82137*
X103467Y82284*
X103461Y82438*
X103467Y82592*
X103473Y82733*
X103491Y82875*
X103508Y83011*
X103538Y83135*
X103568Y83259*
X103609Y83371*
X103656Y83483*
X103703Y83584*
X103756Y83684*
X103816Y83773*
X103881Y83855*
X103945Y83932*
X104016Y84003*
X104093Y84068*
X104176Y84127*
X104258Y84180*
X104341Y84221*
X104430Y84257*
X104518Y84292*
X104613Y84316*
X104707Y84334*
X104808Y84340*
X104908Y84345*
X105014Y84340*
X105121Y84328*
X105221Y84304*
X105316Y84275*
X105410Y84239*
X105499Y84192*
X105587Y84133*
X105670Y84068*
X105747Y83997*
X105818Y83914*
X105877Y83826*
X105936Y83725*
X105989Y83625*
X106036Y83507*
X106077Y83389*
X106113Y83259*
X105717Y83147*
X105688Y83241*
X105658Y83330*
X105629Y83406*
X105587Y83483*
X105552Y83554*
X105505Y83619*
X105463Y83672*
X105410Y83725*
X105357Y83773*
X105304Y83808*
X105245Y83844*
X105180Y83873*
X105115Y83891*
X105050Y83908*
X104973Y83914*
X104902Y83920*
X104755Y83908*
X104613Y83879*
X104489Y83832*
X104371Y83761*
X104264Y83672*
X104170Y83566*
X104087Y83430*
X104016Y83277*
X103957Y83099*
X103916Y82899*
X103886Y82680*
X103881Y82438*
X103886Y82255*
X103898Y82078*
X103916Y81918*
X103945Y81771*
X103987Y81629*
X104034Y81505*
X104087Y81393*
X104152Y81292*
X104223Y81204*
X104294Y81121*
X104377Y81056*
X104465Y81003*
X104554Y80962*
X104654Y80932*
X104760Y80914*
X104867Y80908*
X104949Y80914*
X105026Y80920*
X105103Y80938*
X105174Y80968*
X105245Y80997*
X105310Y81038*
X105375Y81086*
X105440Y81145*
X105493Y81204*
X105546Y81275*
X105593Y81351*
X105640Y81434*
X105676Y81529*
X105705Y81629*
X105735Y81735*
X105758Y81853*
G37*
X108499Y80991D02*
Y80548D01*
X106473*
X106479Y80684*
X106508Y80832*
X106562Y80985*
X106638Y81145*
X106680Y81233*
X106739Y81322*
X106804Y81410*
X106875Y81511*
X106957Y81611*
X107052Y81712*
X107152Y81818*
X107258Y81930*
X107382Y82060*
X107501Y82178*
X107601Y82290*
X107695Y82397*
X107778Y82491*
X107849Y82586*
X107902Y82668*
X107949Y82739*
X108020Y82881*
X108073Y83017*
X108103Y83147*
X108115Y83277*
X108103Y83412*
X108073Y83536*
X108020Y83643*
X107949Y83743*
X107861Y83820*
X107760Y83873*
X107654Y83908*
X107536Y83920*
X107471Y83914*
X107406Y83908*
X107353Y83891*
X107294Y83873*
X107241Y83844*
X107194Y83808*
X107146Y83773*
X107105Y83725*
X107028Y83619*
X106975Y83489*
X106945Y83342*
X106934Y83170*
X106544Y83218*
X106556Y83347*
X106579Y83471*
X106609Y83584*
X106638Y83690*
X106680Y83784*
X106733Y83873*
X106786Y83956*
X106851Y84027*
X106916Y84092*
X106993Y84145*
X107069Y84192*
X107152Y84227*
X107241Y84257*
X107335Y84281*
X107436Y84292*
X107542Y84298*
X107654Y84292*
X107760Y84281*
X107861Y84251*
X107955Y84221*
X108038Y84174*
X108115Y84121*
X108186Y84056*
X108251Y83979*
X108310Y83903*
X108357Y83820*
X108398Y83731*
X108434Y83643*
X108457Y83554*
X108475Y83460*
X108487Y83365*
X108493Y83265*
X108481Y83088*
X108445Y82916*
X108422Y82828*
X108386Y82745*
X108351Y82662*
X108304Y82580*
X108251Y82497*
X108192Y82403*
X108115Y82302*
X108032Y82202*
X107938Y82090*
X107831Y81966*
X107713Y81842*
X107589Y81712*
X107506Y81629*
X107436Y81552*
X107371Y81481*
X107312Y81422*
X107258Y81363*
X107217Y81316*
X107182Y81275*
X107152Y81239*
X107064Y81115*
X106993Y80991*
X108499*
G36*
Y80548*
X106473*
X106479Y80684*
X106508Y80832*
X106562Y80985*
X106638Y81145*
X106680Y81233*
X106739Y81322*
X106804Y81410*
X106875Y81511*
X106957Y81611*
X107052Y81712*
X107152Y81818*
X107258Y81930*
X107382Y82060*
X107501Y82178*
X107601Y82290*
X107695Y82397*
X107778Y82491*
X107849Y82586*
X107902Y82668*
X107949Y82739*
X108020Y82881*
X108073Y83017*
X108103Y83147*
X108115Y83277*
X108103Y83412*
X108073Y83536*
X108020Y83643*
X107949Y83743*
X107861Y83820*
X107760Y83873*
X107654Y83908*
X107536Y83920*
X107471Y83914*
X107406Y83908*
X107353Y83891*
X107294Y83873*
X107241Y83844*
X107194Y83808*
X107146Y83773*
X107105Y83725*
X107028Y83619*
X106975Y83489*
X106945Y83342*
X106934Y83170*
X106544Y83218*
X106556Y83347*
X106579Y83471*
X106609Y83584*
X106638Y83690*
X106680Y83784*
X106733Y83873*
X106786Y83956*
X106851Y84027*
X106916Y84092*
X106993Y84145*
X107069Y84192*
X107152Y84227*
X107241Y84257*
X107335Y84281*
X107436Y84292*
X107542Y84298*
X107654Y84292*
X107760Y84281*
X107861Y84251*
X107955Y84221*
X108038Y84174*
X108115Y84121*
X108186Y84056*
X108251Y83979*
X108310Y83903*
X108357Y83820*
X108398Y83731*
X108434Y83643*
X108457Y83554*
X108475Y83460*
X108487Y83365*
X108493Y83265*
X108481Y83088*
X108445Y82916*
X108422Y82828*
X108386Y82745*
X108351Y82662*
X108304Y82580*
X108251Y82497*
X108192Y82403*
X108115Y82302*
X108032Y82202*
X107938Y82090*
X107831Y81966*
X107713Y81842*
X107589Y81712*
X107506Y81629*
X107436Y81552*
X107371Y81481*
X107312Y81422*
X107258Y81363*
X107217Y81316*
X107182Y81275*
X107152Y81239*
X107064Y81115*
X106993Y80991*
X108499*
G37*
X113475Y81853D02*
X113882Y81729D01*
X113847Y81576*
X113800Y81434*
X113753Y81304*
X113699Y81180*
X113634Y81068*
X113564Y80968*
X113493Y80873*
X113410Y80790*
X113321Y80719*
X113233Y80655*
X113138Y80601*
X113038Y80560*
X112932Y80525*
X112825Y80501*
X112707Y80489*
X112589Y80483*
X112483Y80489*
X112382Y80495*
X112288Y80513*
X112194Y80536*
X112105Y80566*
X112022Y80601*
X111940Y80643*
X111863Y80690*
X111792Y80749*
X111721Y80808*
X111650Y80879*
X111591Y80962*
X111532Y81050*
X111473Y81145*
X111420Y81245*
X111373Y81357*
X111325Y81475*
X111284Y81594*
X111255Y81723*
X111225Y81859*
X111207Y81995*
X111190Y82137*
X111184Y82284*
X111178Y82438*
X111184Y82592*
X111190Y82733*
X111207Y82875*
X111225Y83011*
X111255Y83135*
X111284Y83259*
X111325Y83371*
X111373Y83483*
X111420Y83584*
X111473Y83684*
X111532Y83773*
X111597Y83855*
X111662Y83932*
X111733Y84003*
X111810Y84068*
X111892Y84127*
X111975Y84180*
X112058Y84221*
X112146Y84257*
X112235Y84292*
X112329Y84316*
X112424Y84334*
X112524Y84340*
X112625Y84345*
X112731Y84340*
X112837Y84328*
X112938Y84304*
X113032Y84275*
X113127Y84239*
X113215Y84192*
X113304Y84133*
X113386Y84068*
X113463Y83997*
X113534Y83914*
X113593Y83826*
X113652Y83725*
X113705Y83625*
X113753Y83507*
X113794Y83389*
X113829Y83259*
X113434Y83147*
X113404Y83241*
X113375Y83330*
X113345Y83406*
X113304Y83483*
X113268Y83554*
X113221Y83619*
X113180Y83672*
X113127Y83725*
X113073Y83773*
X113020Y83808*
X112961Y83844*
X112896Y83873*
X112831Y83891*
X112766Y83908*
X112690Y83914*
X112619Y83920*
X112471Y83908*
X112329Y83879*
X112205Y83832*
X112087Y83761*
X111981Y83672*
X111886Y83566*
X111804Y83430*
X111733Y83277*
X111674Y83099*
X111632Y82899*
X111603Y82680*
X111597Y82438*
X111603Y82255*
X111615Y82078*
X111632Y81918*
X111662Y81771*
X111703Y81629*
X111751Y81505*
X111804Y81393*
X111869Y81292*
X111940Y81204*
X112010Y81121*
X112093Y81056*
X112182Y81003*
X112270Y80962*
X112371Y80932*
X112477Y80914*
X112583Y80908*
X112666Y80914*
X112743Y80920*
X112819Y80938*
X112890Y80968*
X112961Y80997*
X113026Y81038*
X113091Y81086*
X113156Y81145*
X113209Y81204*
X113262Y81275*
X113310Y81351*
X113357Y81434*
X113392Y81529*
X113422Y81629*
X113451Y81735*
X113475Y81853*
G36*
X113882Y81729*
X113847Y81576*
X113800Y81434*
X113753Y81304*
X113699Y81180*
X113634Y81068*
X113564Y80968*
X113493Y80873*
X113410Y80790*
X113321Y80719*
X113233Y80655*
X113138Y80601*
X113038Y80560*
X112932Y80525*
X112825Y80501*
X112707Y80489*
X112589Y80483*
X112483Y80489*
X112382Y80495*
X112288Y80513*
X112194Y80536*
X112105Y80566*
X112022Y80601*
X111940Y80643*
X111863Y80690*
X111792Y80749*
X111721Y80808*
X111650Y80879*
X111591Y80962*
X111532Y81050*
X111473Y81145*
X111420Y81245*
X111373Y81357*
X111325Y81475*
X111284Y81594*
X111255Y81723*
X111225Y81859*
X111207Y81995*
X111190Y82137*
X111184Y82284*
X111178Y82438*
X111184Y82592*
X111190Y82733*
X111207Y82875*
X111225Y83011*
X111255Y83135*
X111284Y83259*
X111325Y83371*
X111373Y83483*
X111420Y83584*
X111473Y83684*
X111532Y83773*
X111597Y83855*
X111662Y83932*
X111733Y84003*
X111810Y84068*
X111892Y84127*
X111975Y84180*
X112058Y84221*
X112146Y84257*
X112235Y84292*
X112329Y84316*
X112424Y84334*
X112524Y84340*
X112625Y84345*
X112731Y84340*
X112837Y84328*
X112938Y84304*
X113032Y84275*
X113127Y84239*
X113215Y84192*
X113304Y84133*
X113386Y84068*
X113463Y83997*
X113534Y83914*
X113593Y83826*
X113652Y83725*
X113705Y83625*
X113753Y83507*
X113794Y83389*
X113829Y83259*
X113434Y83147*
X113404Y83241*
X113375Y83330*
X113345Y83406*
X113304Y83483*
X113268Y83554*
X113221Y83619*
X113180Y83672*
X113127Y83725*
X113073Y83773*
X113020Y83808*
X112961Y83844*
X112896Y83873*
X112831Y83891*
X112766Y83908*
X112690Y83914*
X112619Y83920*
X112471Y83908*
X112329Y83879*
X112205Y83832*
X112087Y83761*
X111981Y83672*
X111886Y83566*
X111804Y83430*
X111733Y83277*
X111674Y83099*
X111632Y82899*
X111603Y82680*
X111597Y82438*
X111603Y82255*
X111615Y82078*
X111632Y81918*
X111662Y81771*
X111703Y81629*
X111751Y81505*
X111804Y81393*
X111869Y81292*
X111940Y81204*
X112010Y81121*
X112093Y81056*
X112182Y81003*
X112270Y80962*
X112371Y80932*
X112477Y80914*
X112583Y80908*
X112666Y80914*
X112743Y80920*
X112819Y80938*
X112890Y80968*
X112961Y80997*
X113026Y81038*
X113091Y81086*
X113156Y81145*
X113209Y81204*
X113262Y81275*
X113310Y81351*
X113357Y81434*
X113392Y81529*
X113422Y81629*
X113451Y81735*
X113475Y81853*
G37*
X115642Y80548D02*
X115270D01*
Y83471*
X115199Y83395*
X115117Y83318*
X115028Y83235*
X114922Y83158*
X114816Y83082*
X114715Y83017*
X114615Y82964*
X114520Y82916*
Y83359*
X114674Y83454*
X114810Y83554*
X114945Y83672*
X115069Y83796*
X115176Y83920*
X115270Y84050*
X115347Y84174*
X115400Y84298*
X115642*
Y80548*
G36*
X115270*
Y83471*
X115199Y83395*
X115117Y83318*
X115028Y83235*
X114922Y83158*
X114816Y83082*
X114715Y83017*
X114615Y82964*
X114520Y82916*
Y83359*
X114674Y83454*
X114810Y83554*
X114945Y83672*
X115069Y83796*
X115176Y83920*
X115270Y84050*
X115347Y84174*
X115400Y84298*
X115642*
Y80548*
G37*
X219262Y113901D02*
X219670Y113777D01*
X219634Y113623*
X219587Y113481*
X219540Y113351*
X219487Y113227*
X219422Y113115*
X219351Y113015*
X219280Y112920*
X219197Y112838*
X219109Y112767*
X219020Y112702*
X218926Y112649*
X218825Y112607*
X218719Y112572*
X218613Y112548*
X218495Y112536*
X218377Y112531*
X218270Y112536*
X218170Y112542*
X218075Y112560*
X217981Y112584*
X217892Y112613*
X217810Y112649*
X217727Y112690*
X217650Y112737*
X217579Y112796*
X217508Y112855*
X217438Y112926*
X217379Y113009*
X217319Y113097*
X217260Y113192*
X217207Y113292*
X217160Y113405*
X217113Y113523*
X217071Y113641*
X217042Y113771*
X217012Y113906*
X216995Y114042*
X216977Y114184*
X216971Y114332*
X216965Y114485*
X216971Y114639*
X216977Y114781*
X216995Y114922*
X217012Y115058*
X217042Y115182*
X217071Y115306*
X217113Y115418*
X217160Y115531*
X217207Y115631*
X217260Y115731*
X217319Y115820*
X217384Y115903*
X217449Y115979*
X217520Y116050*
X217597Y116115*
X217680Y116174*
X217762Y116227*
X217845Y116269*
X217934Y116304*
X218022Y116340*
X218117Y116363*
X218211Y116381*
X218312Y116387*
X218412Y116393*
X218518Y116387*
X218625Y116375*
X218725Y116351*
X218819Y116322*
X218914Y116286*
X219003Y116239*
X219091Y116180*
X219174Y116115*
X219251Y116044*
X219321Y115962*
X219381Y115873*
X219440Y115773*
X219493Y115672*
X219540Y115554*
X219581Y115436*
X219617Y115306*
X219221Y115194*
X219192Y115288*
X219162Y115377*
X219132Y115454*
X219091Y115531*
X219056Y115601*
X219008Y115666*
X218967Y115719*
X218914Y115773*
X218861Y115820*
X218808Y115855*
X218749Y115891*
X218684Y115920*
X218619Y115938*
X218554Y115956*
X218477Y115962*
X218406Y115968*
X218258Y115956*
X218117Y115926*
X217993Y115879*
X217875Y115808*
X217768Y115719*
X217674Y115613*
X217591Y115477*
X217520Y115324*
X217461Y115147*
X217420Y114946*
X217390Y114727*
X217384Y114485*
X217390Y114302*
X217402Y114125*
X217420Y113966*
X217449Y113818*
X217491Y113676*
X217538Y113552*
X217591Y113440*
X217656Y113340*
X217727Y113251*
X217798Y113168*
X217881Y113103*
X217969Y113050*
X218058Y113009*
X218158Y112979*
X218264Y112962*
X218371Y112956*
X218453Y112962*
X218530Y112968*
X218607Y112985*
X218678Y113015*
X218749Y113044*
X218814Y113086*
X218879Y113133*
X218944Y113192*
X218997Y113251*
X219050Y113322*
X219097Y113399*
X219144Y113481*
X219180Y113576*
X219209Y113676*
X219239Y113782*
X219262Y113901*
G36*
X219670Y113777*
X219634Y113623*
X219587Y113481*
X219540Y113351*
X219487Y113227*
X219422Y113115*
X219351Y113015*
X219280Y112920*
X219197Y112838*
X219109Y112767*
X219020Y112702*
X218926Y112649*
X218825Y112607*
X218719Y112572*
X218613Y112548*
X218495Y112536*
X218377Y112531*
X218270Y112536*
X218170Y112542*
X218075Y112560*
X217981Y112584*
X217892Y112613*
X217810Y112649*
X217727Y112690*
X217650Y112737*
X217579Y112796*
X217508Y112855*
X217438Y112926*
X217379Y113009*
X217319Y113097*
X217260Y113192*
X217207Y113292*
X217160Y113405*
X217113Y113523*
X217071Y113641*
X217042Y113771*
X217012Y113906*
X216995Y114042*
X216977Y114184*
X216971Y114332*
X216965Y114485*
X216971Y114639*
X216977Y114781*
X216995Y114922*
X217012Y115058*
X217042Y115182*
X217071Y115306*
X217113Y115418*
X217160Y115531*
X217207Y115631*
X217260Y115731*
X217319Y115820*
X217384Y115903*
X217449Y115979*
X217520Y116050*
X217597Y116115*
X217680Y116174*
X217762Y116227*
X217845Y116269*
X217934Y116304*
X218022Y116340*
X218117Y116363*
X218211Y116381*
X218312Y116387*
X218412Y116393*
X218518Y116387*
X218625Y116375*
X218725Y116351*
X218819Y116322*
X218914Y116286*
X219003Y116239*
X219091Y116180*
X219174Y116115*
X219251Y116044*
X219321Y115962*
X219381Y115873*
X219440Y115773*
X219493Y115672*
X219540Y115554*
X219581Y115436*
X219617Y115306*
X219221Y115194*
X219192Y115288*
X219162Y115377*
X219132Y115454*
X219091Y115531*
X219056Y115601*
X219008Y115666*
X218967Y115719*
X218914Y115773*
X218861Y115820*
X218808Y115855*
X218749Y115891*
X218684Y115920*
X218619Y115938*
X218554Y115956*
X218477Y115962*
X218406Y115968*
X218258Y115956*
X218117Y115926*
X217993Y115879*
X217875Y115808*
X217768Y115719*
X217674Y115613*
X217591Y115477*
X217520Y115324*
X217461Y115147*
X217420Y114946*
X217390Y114727*
X217384Y114485*
X217390Y114302*
X217402Y114125*
X217420Y113966*
X217449Y113818*
X217491Y113676*
X217538Y113552*
X217591Y113440*
X217656Y113340*
X217727Y113251*
X217798Y113168*
X217881Y113103*
X217969Y113050*
X218058Y113009*
X218158Y112979*
X218264Y112962*
X218371Y112956*
X218453Y112962*
X218530Y112968*
X218607Y112985*
X218678Y113015*
X218749Y113044*
X218814Y113086*
X218879Y113133*
X218944Y113192*
X218997Y113251*
X219050Y113322*
X219097Y113399*
X219144Y113481*
X219180Y113576*
X219209Y113676*
X219239Y113782*
X219262Y113901*
G37*
X220018Y113582D02*
X220390Y113641D01*
X220426Y113469*
X220473Y113322*
X220526Y113192*
X220597Y113092*
X220680Y113009*
X220768Y112956*
X220869Y112920*
X220987Y112908*
X221046Y112914*
X221111Y112920*
X221170Y112938*
X221223Y112962*
X221282Y112991*
X221329Y113032*
X221382Y113074*
X221430Y113127*
X221477Y113180*
X221512Y113245*
X221548Y113304*
X221571Y113375*
X221607Y113523*
X221619Y113688*
X221607Y113847*
X221577Y113983*
X221524Y114107*
X221447Y114214*
X221400Y114261*
X221353Y114302*
X221306Y114338*
X221253Y114361*
X221199Y114385*
X221140Y114403*
X221081Y114408*
X221022Y114414*
X220963Y114408*
X220904Y114403*
X220833Y114385*
X220756Y114361*
X220798Y114769*
X220857Y114763*
X220993Y114775*
X221111Y114804*
X221217Y114857*
X221312Y114934*
X221388Y115023*
X221447Y115129*
X221477Y115253*
X221489Y115389*
X221477Y115513*
X221453Y115625*
X221406Y115719*
X221341Y115808*
X221264Y115879*
X221182Y115926*
X221087Y115956*
X220987Y115968*
X220881Y115956*
X220786Y115926*
X220697Y115873*
X220615Y115802*
X220550Y115708*
X220497Y115590*
X220455Y115454*
X220426Y115294*
X220054Y115377*
X220077Y115495*
X220101Y115601*
X220131Y115702*
X220172Y115796*
X220213Y115885*
X220260Y115962*
X220314Y116032*
X220373Y116097*
X220438Y116156*
X220503Y116210*
X220573Y116251*
X220650Y116286*
X220727Y116310*
X220804Y116328*
X220892Y116340*
X220975Y116345*
X221069Y116340*
X221158Y116328*
X221241Y116304*
X221318Y116275*
X221400Y116239*
X221471Y116192*
X221542Y116133*
X221607Y116068*
X221666Y115997*
X221719Y115926*
X221766Y115844*
X221802Y115761*
X221831Y115672*
X221849Y115578*
X221861Y115477*
X221867Y115377*
X221861Y115253*
X221837Y115135*
X221808Y115029*
X221760Y114928*
X221701Y114834*
X221631Y114751*
X221548Y114680*
X221453Y114621*
X221542Y114592*
X221619Y114550*
X221690Y114503*
X221755Y114450*
X221814Y114385*
X221861Y114314*
X221908Y114231*
X221949Y114137*
X221979Y114036*
X222003Y113930*
X222014Y113818*
X222020Y113700*
X222014Y113576*
X222003Y113452*
X221979Y113340*
X221944Y113233*
X221902Y113127*
X221849Y113032*
X221790Y112944*
X221719Y112855*
X221642Y112779*
X221560Y112714*
X221471Y112660*
X221382Y112613*
X221294Y112578*
X221194Y112548*
X221099Y112536*
X220993Y112531*
X220898Y112536*
X220804Y112548*
X220715Y112572*
X220632Y112601*
X220550Y112643*
X220473Y112690*
X220396Y112749*
X220331Y112814*
X220266Y112891*
X220207Y112968*
X220160Y113056*
X220113Y113151*
X220077Y113245*
X220054Y113351*
X220030Y113464*
X220018Y113582*
G36*
X220390Y113641*
X220426Y113469*
X220473Y113322*
X220526Y113192*
X220597Y113092*
X220680Y113009*
X220768Y112956*
X220869Y112920*
X220987Y112908*
X221046Y112914*
X221111Y112920*
X221170Y112938*
X221223Y112962*
X221282Y112991*
X221329Y113032*
X221382Y113074*
X221430Y113127*
X221477Y113180*
X221512Y113245*
X221548Y113304*
X221571Y113375*
X221607Y113523*
X221619Y113688*
X221607Y113847*
X221577Y113983*
X221524Y114107*
X221447Y114214*
X221400Y114261*
X221353Y114302*
X221306Y114338*
X221253Y114361*
X221199Y114385*
X221140Y114403*
X221081Y114408*
X221022Y114414*
X220963Y114408*
X220904Y114403*
X220833Y114385*
X220756Y114361*
X220798Y114769*
X220857Y114763*
X220993Y114775*
X221111Y114804*
X221217Y114857*
X221312Y114934*
X221388Y115023*
X221447Y115129*
X221477Y115253*
X221489Y115389*
X221477Y115513*
X221453Y115625*
X221406Y115719*
X221341Y115808*
X221264Y115879*
X221182Y115926*
X221087Y115956*
X220987Y115968*
X220881Y115956*
X220786Y115926*
X220697Y115873*
X220615Y115802*
X220550Y115708*
X220497Y115590*
X220455Y115454*
X220426Y115294*
X220054Y115377*
X220077Y115495*
X220101Y115601*
X220131Y115702*
X220172Y115796*
X220213Y115885*
X220260Y115962*
X220314Y116032*
X220373Y116097*
X220438Y116156*
X220503Y116210*
X220573Y116251*
X220650Y116286*
X220727Y116310*
X220804Y116328*
X220892Y116340*
X220975Y116345*
X221069Y116340*
X221158Y116328*
X221241Y116304*
X221318Y116275*
X221400Y116239*
X221471Y116192*
X221542Y116133*
X221607Y116068*
X221666Y115997*
X221719Y115926*
X221766Y115844*
X221802Y115761*
X221831Y115672*
X221849Y115578*
X221861Y115477*
X221867Y115377*
X221861Y115253*
X221837Y115135*
X221808Y115029*
X221760Y114928*
X221701Y114834*
X221631Y114751*
X221548Y114680*
X221453Y114621*
X221542Y114592*
X221619Y114550*
X221690Y114503*
X221755Y114450*
X221814Y114385*
X221861Y114314*
X221908Y114231*
X221949Y114137*
X221979Y114036*
X222003Y113930*
X222014Y113818*
X222020Y113700*
X222014Y113576*
X222003Y113452*
X221979Y113340*
X221944Y113233*
X221902Y113127*
X221849Y113032*
X221790Y112944*
X221719Y112855*
X221642Y112779*
X221560Y112714*
X221471Y112660*
X221382Y112613*
X221294Y112578*
X221194Y112548*
X221099Y112536*
X220993Y112531*
X220898Y112536*
X220804Y112548*
X220715Y112572*
X220632Y112601*
X220550Y112643*
X220473Y112690*
X220396Y112749*
X220331Y112814*
X220266Y112891*
X220207Y112968*
X220160Y113056*
X220113Y113151*
X220077Y113245*
X220054Y113351*
X220030Y113464*
X220018Y113582*
G37*
X227530Y113901D02*
X227938Y113777D01*
X227902Y113623*
X227855Y113481*
X227808Y113351*
X227755Y113227*
X227690Y113115*
X227619Y113015*
X227548Y112920*
X227465Y112838*
X227377Y112767*
X227288Y112702*
X227194Y112649*
X227093Y112607*
X226987Y112572*
X226881Y112548*
X226762Y112536*
X226644Y112531*
X226538Y112536*
X226438Y112542*
X226343Y112560*
X226249Y112584*
X226160Y112613*
X226077Y112649*
X225995Y112690*
X225918Y112737*
X225847Y112796*
X225776Y112855*
X225705Y112926*
X225646Y113009*
X225587Y113097*
X225528Y113192*
X225475Y113292*
X225428Y113405*
X225381Y113523*
X225339Y113641*
X225310Y113771*
X225280Y113906*
X225262Y114042*
X225245Y114184*
X225239Y114332*
X225233Y114485*
X225239Y114639*
X225245Y114781*
X225262Y114922*
X225280Y115058*
X225310Y115182*
X225339Y115306*
X225381Y115418*
X225428Y115531*
X225475Y115631*
X225528Y115731*
X225587Y115820*
X225652Y115903*
X225717Y115979*
X225788Y116050*
X225865Y116115*
X225947Y116174*
X226030Y116227*
X226113Y116269*
X226201Y116304*
X226290Y116340*
X226384Y116363*
X226479Y116381*
X226579Y116387*
X226680Y116393*
X226786Y116387*
X226892Y116375*
X226993Y116351*
X227087Y116322*
X227182Y116286*
X227270Y116239*
X227359Y116180*
X227442Y116115*
X227518Y116044*
X227589Y115962*
X227648Y115873*
X227707Y115773*
X227760Y115672*
X227808Y115554*
X227849Y115436*
X227884Y115306*
X227489Y115194*
X227459Y115288*
X227430Y115377*
X227400Y115454*
X227359Y115531*
X227323Y115601*
X227276Y115666*
X227235Y115719*
X227182Y115773*
X227129Y115820*
X227075Y115855*
X227016Y115891*
X226951Y115920*
X226886Y115938*
X226821Y115956*
X226745Y115962*
X226674Y115968*
X226526Y115956*
X226384Y115926*
X226260Y115879*
X226142Y115808*
X226036Y115719*
X225942Y115613*
X225859Y115477*
X225788Y115324*
X225729Y115147*
X225688Y114946*
X225658Y114727*
X225652Y114485*
X225658Y114302*
X225670Y114125*
X225688Y113966*
X225717Y113818*
X225758Y113676*
X225806Y113552*
X225859Y113440*
X225924Y113340*
X225995Y113251*
X226066Y113168*
X226148Y113103*
X226237Y113050*
X226325Y113009*
X226426Y112979*
X226532Y112962*
X226638Y112956*
X226721Y112962*
X226798Y112968*
X226875Y112985*
X226945Y113015*
X227016Y113044*
X227081Y113086*
X227146Y113133*
X227211Y113192*
X227264Y113251*
X227318Y113322*
X227365Y113399*
X227412Y113481*
X227447Y113576*
X227477Y113676*
X227506Y113782*
X227530Y113901*
G36*
X227938Y113777*
X227902Y113623*
X227855Y113481*
X227808Y113351*
X227755Y113227*
X227690Y113115*
X227619Y113015*
X227548Y112920*
X227465Y112838*
X227377Y112767*
X227288Y112702*
X227194Y112649*
X227093Y112607*
X226987Y112572*
X226881Y112548*
X226762Y112536*
X226644Y112531*
X226538Y112536*
X226438Y112542*
X226343Y112560*
X226249Y112584*
X226160Y112613*
X226077Y112649*
X225995Y112690*
X225918Y112737*
X225847Y112796*
X225776Y112855*
X225705Y112926*
X225646Y113009*
X225587Y113097*
X225528Y113192*
X225475Y113292*
X225428Y113405*
X225381Y113523*
X225339Y113641*
X225310Y113771*
X225280Y113906*
X225262Y114042*
X225245Y114184*
X225239Y114332*
X225233Y114485*
X225239Y114639*
X225245Y114781*
X225262Y114922*
X225280Y115058*
X225310Y115182*
X225339Y115306*
X225381Y115418*
X225428Y115531*
X225475Y115631*
X225528Y115731*
X225587Y115820*
X225652Y115903*
X225717Y115979*
X225788Y116050*
X225865Y116115*
X225947Y116174*
X226030Y116227*
X226113Y116269*
X226201Y116304*
X226290Y116340*
X226384Y116363*
X226479Y116381*
X226579Y116387*
X226680Y116393*
X226786Y116387*
X226892Y116375*
X226993Y116351*
X227087Y116322*
X227182Y116286*
X227270Y116239*
X227359Y116180*
X227442Y116115*
X227518Y116044*
X227589Y115962*
X227648Y115873*
X227707Y115773*
X227760Y115672*
X227808Y115554*
X227849Y115436*
X227884Y115306*
X227489Y115194*
X227459Y115288*
X227430Y115377*
X227400Y115454*
X227359Y115531*
X227323Y115601*
X227276Y115666*
X227235Y115719*
X227182Y115773*
X227129Y115820*
X227075Y115855*
X227016Y115891*
X226951Y115920*
X226886Y115938*
X226821Y115956*
X226745Y115962*
X226674Y115968*
X226526Y115956*
X226384Y115926*
X226260Y115879*
X226142Y115808*
X226036Y115719*
X225942Y115613*
X225859Y115477*
X225788Y115324*
X225729Y115147*
X225688Y114946*
X225658Y114727*
X225652Y114485*
X225658Y114302*
X225670Y114125*
X225688Y113966*
X225717Y113818*
X225758Y113676*
X225806Y113552*
X225859Y113440*
X225924Y113340*
X225995Y113251*
X226066Y113168*
X226148Y113103*
X226237Y113050*
X226325Y113009*
X226426Y112979*
X226532Y112962*
X226638Y112956*
X226721Y112962*
X226798Y112968*
X226875Y112985*
X226945Y113015*
X227016Y113044*
X227081Y113086*
X227146Y113133*
X227211Y113192*
X227264Y113251*
X227318Y113322*
X227365Y113399*
X227412Y113481*
X227447Y113576*
X227477Y113676*
X227506Y113782*
X227530Y113901*
G37*
X229491Y112595D02*
Y113487D01*
X228162*
Y113912*
X229562Y116328*
X229863*
Y113912*
X230276*
Y113487*
X229863*
Y112595*
X229491*
Y113912D02*
Y115595D01*
X228528Y113912*
X229491*
X229863Y114754D02*
G36*
X229491D01*
Y113912*
X228528*
X229009Y114754*
X228650*
X228162Y113912*
Y113487*
X229491*
Y112595*
X229863*
Y113487*
X230276*
Y113912*
X229863*
Y114754*
G37*
Y116328D02*
G36*
X229562D01*
X228650Y114754*
X229009*
X229491Y115595*
Y114754*
X229863*
Y116328*
G37*
D02*
D23*
X34847Y9962D02*
Y143820D01*
X271068*
Y9962*
X34847*
D02*
D24*
X45123Y13003D02*
Y140464D01*
X86068*
Y13003*
X45123*
X128508Y52048D02*
Y101418D01*
X172209*
Y52048*
X151835*
Y53525*
X148882*
Y52048*
X128508*
X251788Y49147D02*
Y110147D01*
X262788*
Y51647*
X260288Y49147*
X251788*
D02*
D25*
X42246Y20985D02*
X38772Y20985D01*
Y22722*
X39062Y23301*
X39351Y23591*
X39930Y23880*
X41088*
X41667Y23591*
X41957Y23301*
X42246Y22722*
Y20985*
Y24971D02*
X42246Y26129D01*
Y25550D02*
X38772Y25550D01*
Y24971D02*
X38772Y26129D01*
X41378Y27088D02*
X41957Y27377D01*
X42246Y27956*
Y29114*
X41957Y29693*
X41378Y29982*
X40799Y29693*
X40509Y29114*
Y27956*
X40220Y27377*
X39641Y27088*
X39062Y27377*
X38772Y27956*
Y29114*
X39062Y29693*
X39641Y29982*
X42246Y31074D02*
X38772Y31074D01*
Y33100*
X39062Y33679*
X39641Y33969*
X40220Y33679*
X40509Y33100*
Y31074*
X42246Y35639D02*
X42246Y36797D01*
Y36218D02*
X38772Y36218D01*
X39351Y35639*
X99727Y93800D02*
X96253Y93800D01*
Y95827*
X96542Y96406*
X97121Y96695*
X97700Y96406*
X97990Y95827*
Y93800*
Y95827D02*
X99727Y96695D01*
Y98365D02*
X99727Y99523D01*
Y98944D02*
X96253Y98944D01*
X96832Y98365*
X163194Y111548D02*
X163194Y108943D01*
X163483Y108364*
X164062Y108074*
X165220*
X165799Y108364*
X166088Y108943*
Y111548*
X167759Y108074D02*
X168917Y108074D01*
X168338D02*
X168338Y111548D01*
X167759Y110969*
X187128Y77284D02*
X183654Y77284D01*
Y79311*
X183944Y79890*
X184523Y80179*
X185102Y79890*
X185391Y79311*
Y77284*
Y79311D02*
X187128Y80179D01*
Y83587D02*
X187128Y81271D01*
X185102Y83297*
X184523Y83587*
X183944Y83297*
X183654Y82718*
Y81850*
X183944Y81271*
X253745Y116094D02*
X254034Y115805D01*
X254613Y115515*
X255192Y115805*
X255482Y116094*
Y118989*
X256061*
X255482D02*
X254324Y118989D01*
X257670Y115515D02*
X258828Y115515D01*
X258249D02*
X258249Y118989D01*
X257670Y118410*
D02*
D27*
X235340Y59033D02*
X235340Y62562D01*
X236811Y60798*
X238281Y62562*
Y59033*
X239390Y60209D02*
X239390Y61386D01*
X239684Y61974*
X239978Y62268*
X240566Y62562*
X241155*
X241743Y62268*
X242037Y61974*
X242331Y61386*
Y60209*
X242037Y59621*
X241743Y59327*
X241155Y59033*
X240566*
X239978Y59327*
X239684Y59621*
X239390Y60209*
X243440Y59915D02*
X243734Y59327D01*
X244322Y59033*
X245499*
X246087Y59327*
X246381Y59915*
X246087Y60504*
X245499Y60798*
X244322*
X243734Y61092*
X243440Y61680*
X243734Y62268*
X244322Y62562*
X245499*
X246087Y62268*
X246381Y61680*
X247490Y59033D02*
X248666Y59033D01*
X248078D02*
X248078Y62562D01*
X247490D02*
X248666Y62562D01*
X235340Y69033D02*
X235340Y72562D01*
X236811Y70798*
X238281Y72562*
Y69033*
X239390D02*
X240566Y69033D01*
X239978D02*
X239978Y72562D01*
X239390D02*
X240566Y72562D01*
X241540Y69915D02*
X241834Y69327D01*
X242422Y69033*
X243599*
X244187Y69327*
X244481Y69915*
X244187Y70504*
X243599Y70798*
X242422*
X241834Y71092*
X241540Y71680*
X241834Y72268*
X242422Y72562*
X243599*
X244187Y72268*
X244481Y71680*
X245590Y70209D02*
X245590Y71386D01*
X245884Y71974*
X246178Y72268*
X246766Y72562*
X247355*
X247943Y72268*
X248237Y71974*
X248531Y71386*
Y70209*
X248237Y69621*
X247943Y69327*
X247355Y69033*
X246766*
X246178Y69327*
X245884Y69621*
X245590Y70209*
X237490Y79915D02*
X237784Y79327D01*
X238372Y79033*
X239549*
X240137Y79327*
X240431Y79915*
X240137Y80504*
X239549Y80798*
X238372*
X237784Y81092*
X237490Y81680*
X237784Y82268*
X238372Y82562*
X239549*
X240137Y82268*
X240431Y81680*
X244481Y79621D02*
X244187Y79327D01*
X243599Y79033*
X242716*
X242128Y79327*
X241834Y79621*
X241540Y80209*
Y81386*
X241834Y81974*
X242128Y82268*
X242716Y82562*
X243599*
X244187Y82268*
X244481Y81974*
X245590Y79033D02*
X245590Y82562D01*
Y80798D02*
X246472Y80798D01*
X248531Y82562*
X246472Y80798D02*
X248531Y79033D01*
X239549Y90504D02*
X240431Y90504D01*
Y90209*
X240137Y89621*
X239843Y89327*
X239255Y89033*
X238666*
X238078Y89327*
X237784Y89621*
X237490Y90209*
Y91386*
X237784Y91974*
X238078Y92268*
X238666Y92562*
X239255*
X239843Y92268*
X240137Y91974*
X240431Y91386*
X241540Y89033D02*
X241540Y92562D01*
X244481Y89033*
Y92562*
X245590Y89033D02*
X245590Y92562D01*
X247355*
X247943Y92268*
X248237Y91974*
X248531Y91386*
Y90209*
X248237Y89621*
X247943Y89327*
X247355Y89033*
X245590*
X237490Y104531D02*
X238961Y101001D01*
X240431Y104531*
X244481Y101590D02*
X244187Y101296D01*
X243599Y101001*
X242716*
X242128Y101296*
X241834Y101590*
X241540Y102178*
Y103354*
X241834Y103943*
X242128Y104237*
X242716Y104531*
X243599*
X244187Y104237*
X244481Y103943*
X248531Y101590D02*
X248237Y101296D01*
X247649Y101001*
X246766*
X246178Y101296*
X245884Y101590*
X245590Y102178*
Y103354*
X245884Y103943*
X246178Y104237*
X246766Y104531*
X247649*
X248237Y104237*
X248531Y103943*
X241540Y49915D02*
X241834Y49327D01*
X242422Y49033*
X243599*
X244187Y49327*
X244481Y49915*
X244187Y50504*
X243599Y50798*
X242422*
X241834Y51092*
X241540Y51680*
X241834Y52268*
X242422Y52562*
X243599*
X244187Y52268*
X244481Y51680*
X245590Y49915D02*
X245884Y49327D01*
X246472Y49033*
X247649*
X248237Y49327*
X248531Y49915*
X248237Y50504*
X247649Y50798*
X246472*
X245884Y51092*
X245590Y51680*
X245884Y52268*
X246472Y52562*
X247649*
X248237Y52268*
X248531Y51680*
D02*
D72*
X102613Y79241D02*
Y68241D01*
X108813*
Y79241*
X102613*
X108813Y95800D02*
Y106800D01*
X102613*
Y95800*
X108813*
X116687Y68241D02*
Y79241D01*
X110487*
Y68241*
X116687*
X189227Y83178D02*
Y72178D01*
X195427*
Y83178*
X189227*
X216786Y110737D02*
Y99737D01*
X222986*
Y110737*
X216786*
X224660D02*
Y99737D01*
X230860*
Y110737*
X224660*
X0Y0D02*
M02*
