G04 GENERATED BY PULSONIX 8.5 GERBER.DLL 5902*
G04 #@! TF.Part,Single*
%INPLATINE_1_NEW*%
%LNSOLDER MASK TOP*%
%FSLAX35Y35*%
%LPD*%
%MOIN*%
G04 #@! TF.FileFunction,Soldermask,Top*
G04 #@! TA.AperFunction,ViaPad*
%ADD73C,0.05724*%
G04 #@! TA.AperFunction,ComponentPad*
%ADD79R,0.08000X0.08000*%
%ADD80C,0.08000*%
G04 #@! TA.AperFunction,SMDPad*
%ADD81R,0.06508X0.04350*%
G04 #@! TA.AperFunction,ViaPad*
%ADD89C,0.06906*%
G04 #@! TA.AperFunction,SMDPad*
%ADD90R,0.06787X0.03402*%
G04 #@! TA.AperFunction,ComponentPad*
%ADD91C,0.07693*%
X0Y0D02*
D02*
D73*
X105713Y89489D03*
X141146Y77678D03*
Y97363D03*
X160831Y85552D03*
X188390Y61930D03*
Y93426D03*
D02*
D79*
X257288Y54647D03*
D02*
D80*
Y64647D03*
Y74647D03*
Y84647D03*
Y94647D03*
Y104647D03*
D02*
D81*
X105713Y70241D03*
Y77241D03*
Y97800D03*
Y104800D03*
X113587Y70241D03*
Y77241D03*
X192327Y74178D03*
Y81178D03*
X219886Y101737D03*
Y108737D03*
X227760Y101737D03*
Y108737D03*
D02*
D89*
X117524Y69804D03*
X121461Y109174D03*
X180516Y73741D03*
X208075Y101300D03*
Y109174D03*
D02*
D90*
X132386Y54233D03*
Y59233D03*
Y64233D03*
Y69233D03*
Y74233D03*
Y79233D03*
Y84233D03*
Y89233D03*
Y94233D03*
Y99233D03*
X168331Y54233D03*
Y59233D03*
Y64233D03*
Y69233D03*
Y74233D03*
Y79233D03*
Y84233D03*
Y89233D03*
Y94233D03*
Y99233D03*
D02*
D91*
X50359Y51782D03*
Y61782D03*
Y71782D03*
Y81782D03*
Y91782D03*
Y101782D03*
X80359Y51782D03*
Y61782D03*
Y71782D03*
Y81782D03*
Y91782D03*
Y101782D03*
X0Y0D02*
M02*
