M48
FMAT,1
INCH
T01C000.01969
T02C000.02756
T03C000.03900
%
G81
M70
T01
X00105713Y00089489
X00117524Y00069804
X00121461Y00109174
X00141146Y00077678
X00141146Y00097363
X00160831Y00085552
X00180516Y00073741
X00188390Y00061930
X00188390Y00093426
X00208075Y00101300
X00208075Y00109174
T02
X00050359Y00051782
X00050359Y00061782
X00050359Y00071782
X00050359Y00081782
X00050359Y00091782
X00050359Y00101782
X00080359Y00051782
X00080359Y00061782
X00080359Y00071782
X00080359Y00081782
X00080359Y00091782
X00080359Y00101782
T03
X00257288Y00054647
X00257288Y00064647
X00257288Y00074647
X00257288Y00084647
X00257288Y00094647
X00257288Y00104647
M30
