G04 GENERATED BY PULSONIX 8.5 GERBER.DLL 5902*
G04 #@! TF.Part,Single*
%INPLATINE_1_NEW*%
%LNTOP*%
%FSLAX35Y35*%
%LPD*%
%MOIN*%
G04 #@! TF.FileFunction,Copper,L1,Top*
G04 #@! TA.AperFunction,Conductor*
%ADD10C,0.01200*%
%ADD12C,0.02500*%
G04 #@! TA.AperFunction,ViaPad*
%ADD13C,0.04724X0.01969*%
G04 #@! TA.AperFunction,ComponentPad*
%ADD70R,0.07000X0.07000X0.03900*%
%ADD71C,0.07000X0.03900*%
G04 #@! TA.AperFunction,SMDPad*
%ADD20R,0.05508X0.03350*%
G04 #@! TA.AperFunction,ViaPad*
%ADD85C,0.05906X0.01969*%
G04 #@! TA.AperFunction,SMDPad*
%ADD86R,0.05787X0.02402*%
G04 #@! TA.AperFunction,ComponentPad*
%ADD87C,0.06693X0.02756*%
X0Y0D02*
D02*
D10*
X53548Y26497D02*
Y23544D01*
X58469Y18623*
X72052*
X76973Y23544*
Y26497*
X77170*
X61816Y34371D02*
Y26497D01*
X68902Y34371D02*
Y26497D01*
X105713Y97800D02*
Y91073D01*
X132386Y54233D02*
X85359D01*
X80359Y59233*
Y59805*
X132386Y59233D02*
X90359D01*
X80359Y69233*
Y69805*
X132386Y64233D02*
X140359D01*
X145359Y59233*
Y49233*
X140359Y44233*
X85359*
X80359Y49233*
Y49805*
X132386Y69233D02*
X125359D01*
X120359Y64233*
X97859*
X81733Y80359*
X132386Y84233D02*
X142859D01*
X147859Y79233*
Y46733*
X142859Y41733*
X80359*
X75359Y46733*
Y86782*
X78960Y90384*
X132386Y89233D02*
X140359D01*
X145359Y94233*
Y111733*
X140359Y116733*
X55359*
X50359Y111733*
Y103760*
X132386Y94233D02*
X138016D01*
X140026Y96243*
X132386Y99233D02*
Y109233D01*
X127386Y114233*
X62859*
X57859Y109233*
Y66782*
X52859Y61782*
X52337*
X139562Y77678D02*
X138371D01*
X136816Y79233*
X132386*
X168331Y59233D02*
X172859D01*
X175556Y61930*
X186806*
X168331Y64233D02*
X155359D01*
X150359Y59233*
Y44233*
X145359Y39233*
X55359*
X50359Y44233*
Y49805*
X168331Y74233D02*
X160359D01*
X155359Y79233*
Y120985*
X150359Y125985*
X50359*
X45359Y120985*
Y96782*
X48960Y93181*
X168331Y79233D02*
X167150D01*
X161952Y84432*
X168331Y89233D02*
X165359D01*
X160359Y94233*
Y127422*
X155359Y132422*
X47640*
X42640Y127422*
Y86782*
X47640Y81782*
X48381*
X192327Y81178D02*
Y87521D01*
X188390Y91458*
Y91842*
X254738Y54647D02*
X203390D01*
X198390Y59647*
Y99233*
X193390Y104233*
X180359*
X170359Y94233*
X168331*
X254738Y84647D02*
X205890D01*
X200890Y89647*
Y104233*
X195890Y109233*
X173331*
X168331Y104233*
Y99233*
D02*
D12*
X113587Y70241D02*
X105713D01*
X113587D02*
X115333D01*
X113587Y77241D02*
X119548D01*
X121461Y79155*
X113587Y77241D02*
X105713D01*
X119227Y109174D02*
X108379D01*
X105713Y106509*
Y104800*
X121461Y79155D02*
X126382Y74233D01*
X132386*
X121461Y79155D02*
Y106940D01*
X178936Y72161D02*
X176008Y69233D01*
X168331*
X179939Y75899D02*
X171605Y84233D01*
X168331*
X192327Y74178D02*
Y73741D01*
X182751*
X210310Y109174D02*
X252760D01*
X255025Y106909*
X254091Y94787D02*
X238211D01*
X231697Y101300*
X210310*
D02*
D13*
X105713Y89489D03*
X141146Y77678D03*
Y97363D03*
X160831Y85552D03*
X188390Y61930D03*
Y93426D03*
D02*
D70*
X257288Y54647D03*
D02*
D71*
Y64647D03*
Y74647D03*
Y84647D03*
Y94647D03*
Y104647D03*
D02*
D20*
X105713Y70241D03*
Y77241D03*
Y97800D03*
Y104800D03*
X113587Y70241D03*
Y77241D03*
X192327Y74178D03*
Y81178D03*
X219886Y101737D03*
Y108737D03*
X227760Y101737D03*
Y108737D03*
D02*
D85*
X117524Y69804D03*
X121461Y109174D03*
X180516Y73741D03*
X208075Y101300D03*
Y109174D03*
D02*
D86*
X132386Y54233D03*
Y59233D03*
Y64233D03*
Y69233D03*
Y74233D03*
Y79233D03*
Y84233D03*
Y89233D03*
Y94233D03*
Y99233D03*
X168331Y54233D03*
Y59233D03*
Y64233D03*
Y69233D03*
Y74233D03*
Y79233D03*
Y84233D03*
Y89233D03*
Y94233D03*
Y99233D03*
D02*
D87*
X50359Y51782D03*
Y61782D03*
Y71782D03*
Y81782D03*
Y91782D03*
Y101782D03*
X80359Y51782D03*
Y61782D03*
Y71782D03*
Y81782D03*
Y91782D03*
Y101782D03*
X0Y0D02*
M02*
