G04 GENERATED BY PULSONIX 8.5 GERBER.DLL 5902*
G04 #@! TF.Part,Single*
%INUSB2UART*%
%LNBOTTOM*%
%FSLAX35Y35*%
%LPD*%
%MOIN*%
G04 #@! TF.FileFunction,Copper,L2,Bot*
G04 #@! TA.AperFunction,Conductor*
%ADD10C,0.01200*%
%ADD12C,0.02500*%
G04 #@! TA.AperFunction,ViaPad*
%ADD13C,0.04724X0.01969*%
G04 #@! TA.AperFunction,ComponentPad*
%ADD70R,0.07000X0.07000X0.03900*%
%ADD71C,0.07000X0.03900*%
X0Y0D02*
D02*
D10*
X130063Y90079D02*
X126127Y86143D01*
Y70395*
X122255Y66523*
X154138Y71782D02*
Y79253D01*
X144296Y89095*
Y89480*
X158469Y66664D02*
Y85552D01*
X154400Y89621*
X161216Y59962D02*
X156835D01*
X146599Y49725*
X137612*
X162800Y61546D02*
Y89480D01*
X169483Y50119D02*
X155805D01*
X148718Y43032*
X125014*
X171068Y51703D02*
Y78456D01*
X171522Y89944D02*
X167131Y85552D01*
Y56428*
X175398Y46585D02*
Y73338D01*
X231697Y78456D02*
Y51703D01*
X236028Y46585D02*
Y73338D01*
X240753Y41467D02*
Y68614D01*
D02*
D12*
X82879Y90670D02*
Y43032D01*
X91146Y35158D02*
Y76103D01*
D02*
D13*
X82879Y43032D03*
Y90670D03*
X91146Y35158D03*
Y76103D03*
X121068Y65473D03*
X123430Y43032D03*
X131304Y91064D03*
X136028Y49725D03*
X144296Y91064D03*
X153745D03*
X154138Y70198D03*
X158469Y65080D03*
X162800Y59962D03*
Y91064D03*
X167131Y54844D03*
X171068Y50119D03*
Y80040D03*
X172642Y91064D03*
X175398Y45001D03*
Y74922D03*
X231697Y50119D03*
Y80040D03*
X236028Y45001D03*
Y74922D03*
X240753Y39883D03*
Y70198D03*
D02*
D70*
X284296Y38125D03*
D02*
D71*
Y48125D03*
Y58125D03*
Y68125D03*
Y78125D03*
Y88125D03*
X0Y0D02*
M02*
