G04 GENERATED BY PULSONIX 8.5 GERBER.DLL 5902*
G04 #@! TF.Part,Single*
%INUSB2UART*%
%LNSILKSCREEN TOP*%
%FSLAX35Y35*%
%LPD*%
%MOIN*%
G04 #@! TF.FileFunction,Legend,Top*
%ADD21C,0.00001*%
G04 #@! TA.AperFunction,Profile*
%ADD23C,0.01000*%
G04 #@! TA.AperFunction,NonMaterial*
%ADD24C,0.00787*%
G04 #@! TD.AperFunction*
%ADD25C,0.00492*%
G04 #@! TA.AperFunction,NonMaterial*
%ADD26C,0.00800*%
G04 #@! TD.AperFunction*
%ADD27C,0.00500*%
G04 #@! TA.AperFunction,NonMaterial*
%ADD28C,0.00600*%
G04 #@! TD.AperFunction*
%ADD29C,0.00300*%
G04 #@! TA.AperFunction,NonMaterial*
%ADD72C,0.00394*%
X0Y0D02*
D02*
D21*
X70569Y94328D02*
Y98060D01*
X70977*
Y94771*
X72483*
Y94328*
X70569*
G36*
Y98060*
X70977*
Y94771*
X72483*
Y94328*
X70569*
G37*
X74225D02*
X73853D01*
Y97251*
X73782Y97174*
X73699Y97097*
X73611Y97015*
X73505Y96938*
X73398Y96861*
X73298Y96796*
X73197Y96743*
X73103Y96696*
Y97139*
X73256Y97233*
X73392Y97334*
X73528Y97452*
X73652Y97576*
X73758Y97700*
X73853Y97830*
X73930Y97954*
X73983Y98078*
X74225*
Y94328*
G36*
X73853*
Y97251*
X73782Y97174*
X73699Y97097*
X73611Y97015*
X73505Y96938*
X73398Y96861*
X73298Y96796*
X73197Y96743*
X73103Y96696*
Y97139*
X73256Y97233*
X73392Y97334*
X73528Y97452*
X73652Y97576*
X73758Y97700*
X73853Y97830*
X73930Y97954*
X73983Y98078*
X74225*
Y94328*
G37*
X82825Y80613D02*
X83233Y80489D01*
X83197Y80336*
X83150Y80194*
X83103Y80064*
X83050Y79940*
X82985Y79828*
X82914Y79727*
X82843Y79633*
X82760Y79550*
X82672Y79479*
X82583Y79414*
X82489Y79361*
X82388Y79320*
X82282Y79284*
X82176Y79261*
X82058Y79249*
X81940Y79243*
X81833Y79249*
X81733Y79255*
X81638Y79273*
X81544Y79296*
X81455Y79326*
X81373Y79361*
X81290Y79403*
X81213Y79450*
X81142Y79509*
X81071Y79568*
X81001Y79639*
X80942Y79721*
X80882Y79810*
X80823Y79905*
X80770Y80005*
X80723Y80117*
X80676Y80235*
X80634Y80353*
X80605Y80483*
X80575Y80619*
X80558Y80755*
X80540Y80897*
X80534Y81044*
X80528Y81198*
X80534Y81351*
X80540Y81493*
X80558Y81635*
X80575Y81771*
X80605Y81895*
X80634Y82019*
X80676Y82131*
X80723Y82243*
X80770Y82344*
X80823Y82444*
X80882Y82532*
X80947Y82615*
X81012Y82692*
X81083Y82763*
X81160Y82828*
X81243Y82887*
X81325Y82940*
X81408Y82981*
X81497Y83017*
X81585Y83052*
X81680Y83076*
X81774Y83094*
X81875Y83099*
X81975Y83105*
X82081Y83099*
X82188Y83088*
X82288Y83064*
X82382Y83034*
X82477Y82999*
X82566Y82952*
X82654Y82893*
X82737Y82828*
X82814Y82757*
X82884Y82674*
X82944Y82586*
X83003Y82485*
X83056Y82385*
X83103Y82267*
X83144Y82149*
X83180Y82019*
X82784Y81906*
X82755Y82001*
X82725Y82090*
X82695Y82166*
X82654Y82243*
X82619Y82314*
X82571Y82379*
X82530Y82432*
X82477Y82485*
X82424Y82532*
X82371Y82568*
X82312Y82603*
X82247Y82633*
X82182Y82651*
X82117Y82668*
X82040Y82674*
X81969Y82680*
X81821Y82668*
X81680Y82639*
X81556Y82592*
X81438Y82521*
X81331Y82432*
X81237Y82326*
X81154Y82190*
X81083Y82036*
X81024Y81859*
X80983Y81658*
X80953Y81440*
X80947Y81198*
X80953Y81015*
X80965Y80838*
X80983Y80678*
X81012Y80531*
X81054Y80389*
X81101Y80265*
X81154Y80153*
X81219Y80052*
X81290Y79964*
X81361Y79881*
X81444Y79816*
X81532Y79763*
X81621Y79721*
X81721Y79692*
X81827Y79674*
X81934Y79668*
X82016Y79674*
X82093Y79680*
X82170Y79698*
X82241Y79727*
X82312Y79757*
X82377Y79798*
X82442Y79845*
X82506Y79905*
X82560Y79964*
X82613Y80034*
X82660Y80111*
X82707Y80194*
X82743Y80288*
X82772Y80389*
X82802Y80495*
X82825Y80613*
G36*
X83233Y80489*
X83197Y80336*
X83150Y80194*
X83103Y80064*
X83050Y79940*
X82985Y79828*
X82914Y79727*
X82843Y79633*
X82760Y79550*
X82672Y79479*
X82583Y79414*
X82489Y79361*
X82388Y79320*
X82282Y79284*
X82176Y79261*
X82058Y79249*
X81940Y79243*
X81833Y79249*
X81733Y79255*
X81638Y79273*
X81544Y79296*
X81455Y79326*
X81373Y79361*
X81290Y79403*
X81213Y79450*
X81142Y79509*
X81071Y79568*
X81001Y79639*
X80942Y79721*
X80882Y79810*
X80823Y79905*
X80770Y80005*
X80723Y80117*
X80676Y80235*
X80634Y80353*
X80605Y80483*
X80575Y80619*
X80558Y80755*
X80540Y80897*
X80534Y81044*
X80528Y81198*
X80534Y81351*
X80540Y81493*
X80558Y81635*
X80575Y81771*
X80605Y81895*
X80634Y82019*
X80676Y82131*
X80723Y82243*
X80770Y82344*
X80823Y82444*
X80882Y82532*
X80947Y82615*
X81012Y82692*
X81083Y82763*
X81160Y82828*
X81243Y82887*
X81325Y82940*
X81408Y82981*
X81497Y83017*
X81585Y83052*
X81680Y83076*
X81774Y83094*
X81875Y83099*
X81975Y83105*
X82081Y83099*
X82188Y83088*
X82288Y83064*
X82382Y83034*
X82477Y82999*
X82566Y82952*
X82654Y82893*
X82737Y82828*
X82814Y82757*
X82884Y82674*
X82944Y82586*
X83003Y82485*
X83056Y82385*
X83103Y82267*
X83144Y82149*
X83180Y82019*
X82784Y81906*
X82755Y82001*
X82725Y82090*
X82695Y82166*
X82654Y82243*
X82619Y82314*
X82571Y82379*
X82530Y82432*
X82477Y82485*
X82424Y82532*
X82371Y82568*
X82312Y82603*
X82247Y82633*
X82182Y82651*
X82117Y82668*
X82040Y82674*
X81969Y82680*
X81821Y82668*
X81680Y82639*
X81556Y82592*
X81438Y82521*
X81331Y82432*
X81237Y82326*
X81154Y82190*
X81083Y82036*
X81024Y81859*
X80983Y81658*
X80953Y81440*
X80947Y81198*
X80953Y81015*
X80965Y80838*
X80983Y80678*
X81012Y80531*
X81054Y80389*
X81101Y80265*
X81154Y80153*
X81219Y80052*
X81290Y79964*
X81361Y79881*
X81444Y79816*
X81532Y79763*
X81621Y79721*
X81721Y79692*
X81827Y79674*
X81934Y79668*
X82016Y79674*
X82093Y79680*
X82170Y79698*
X82241Y79727*
X82312Y79757*
X82377Y79798*
X82442Y79845*
X82506Y79905*
X82560Y79964*
X82613Y80034*
X82660Y80111*
X82707Y80194*
X82743Y80288*
X82772Y80389*
X82802Y80495*
X82825Y80613*
G37*
X85530Y82131D02*
X85158Y82095D01*
X85129Y82225*
X85093Y82338*
X85052Y82432*
X84999Y82503*
X84922Y82580*
X84833Y82633*
X84739Y82668*
X84638Y82680*
X84556Y82674*
X84479Y82656*
X84408Y82621*
X84343Y82580*
X84278Y82521*
X84219Y82450*
X84160Y82367*
X84113Y82273*
X84071Y82178*
X84036Y82078*
X84006Y81960*
X83983Y81836*
X83965Y81706*
X83947Y81558*
X83942Y81405*
X83936Y81233*
X84006Y81351*
X84083Y81452*
X84166Y81534*
X84260Y81605*
X84361Y81664*
X84461Y81706*
X84568Y81729*
X84680Y81735*
X84768Y81729*
X84851Y81712*
X84940Y81688*
X85016Y81653*
X85093Y81605*
X85170Y81546*
X85241Y81481*
X85312Y81405*
X85377Y81316*
X85430Y81227*
X85477Y81127*
X85518Y81015*
X85548Y80903*
X85566Y80784*
X85577Y80655*
X85583Y80519*
X85577Y80336*
X85548Y80158*
X85506Y79993*
X85447Y79840*
X85377Y79698*
X85294Y79574*
X85199Y79473*
X85099Y79391*
X84987Y79326*
X84875Y79279*
X84751Y79255*
X84627Y79243*
X84514Y79249*
X84408Y79267*
X84302Y79302*
X84207Y79349*
X84113Y79408*
X84024Y79479*
X83942Y79562*
X83865Y79662*
X83794Y79775*
X83735Y79905*
X83682Y80052*
X83640Y80218*
X83605Y80401*
X83581Y80601*
X83569Y80820*
X83564Y81056*
X83569Y81316*
X83581Y81558*
X83605Y81777*
X83640Y81983*
X83682Y82166*
X83735Y82326*
X83800Y82473*
X83871Y82597*
X83953Y82704*
X84036Y82798*
X84125Y82875*
X84225Y82940*
X84325Y82993*
X84432Y83029*
X84544Y83052*
X84662Y83058*
X84745Y83052*
X84827Y83040*
X84904Y83023*
X84981Y82999*
X85052Y82964*
X85117Y82922*
X85182Y82875*
X85247Y82822*
X85300Y82757*
X85353Y82686*
X85394Y82609*
X85436Y82527*
X85465Y82438*
X85495Y82344*
X85512Y82243*
X85530Y82131*
X83995Y80519D02*
X84001Y80418D01*
X84006Y80324*
X84024Y80235*
X84042Y80153*
X84071Y80076*
X84101Y79999*
X84142Y79928*
X84190Y79869*
X84237Y79810*
X84284Y79757*
X84337Y79716*
X84396Y79680*
X84449Y79656*
X84508Y79639*
X84568Y79627*
X84632Y79621*
X84686Y79627*
X84739Y79633*
X84792Y79651*
X84845Y79680*
X84892Y79710*
X84940Y79751*
X84987Y79798*
X85028Y79851*
X85105Y79981*
X85164Y80129*
X85194Y80300*
X85205Y80489*
X85194Y80678*
X85164Y80844*
X85105Y80985*
X85034Y81109*
X84987Y81156*
X84940Y81204*
X84892Y81239*
X84839Y81275*
X84786Y81298*
X84727Y81316*
X84668Y81322*
X84609Y81328*
X84544Y81322*
X84485Y81316*
X84432Y81298*
X84379Y81275*
X84325Y81239*
X84272Y81204*
X84225Y81162*
X84178Y81109*
X84095Y80991*
X84042Y80855*
X84006Y80696*
X83995Y80519*
X85582Y80474D02*
G36*
X85204D01*
X85194Y80300*
X85164Y80129*
X85105Y79981*
X85028Y79851*
X84987Y79798*
X84940Y79751*
X84892Y79710*
X84845Y79680*
X84792Y79651*
X84739Y79633*
X84686Y79627*
X84632Y79621*
X84568Y79627*
X84508Y79639*
X84449Y79656*
X84396Y79680*
X84337Y79716*
X84284Y79757*
X84237Y79810*
X84190Y79869*
X84142Y79928*
X84101Y79999*
X84071Y80076*
X84042Y80153*
X84024Y80235*
X84006Y80324*
X84001Y80418*
X83997Y80474*
X83596*
X83605Y80401*
X83640Y80218*
X83682Y80052*
X83735Y79905*
X83794Y79775*
X83865Y79662*
X83942Y79562*
X84024Y79479*
X84113Y79408*
X84207Y79349*
X84302Y79302*
X84408Y79267*
X84514Y79249*
X84627Y79243*
X84751Y79255*
X84875Y79279*
X84987Y79326*
X85099Y79391*
X85199Y79473*
X85294Y79574*
X85377Y79698*
X85447Y79840*
X85506Y79993*
X85548Y80158*
X85577Y80336*
X85582Y80474*
G37*
X84662Y83058D02*
G36*
X84544Y83052D01*
X84432Y83029*
X84325Y82993*
X84225Y82940*
X84125Y82875*
X84036Y82798*
X83953Y82704*
X83871Y82597*
X83800Y82473*
X83735Y82326*
X83682Y82166*
X83640Y81983*
X83605Y81777*
X83581Y81558*
X83569Y81316*
X83564Y81056*
X83569Y80820*
X83581Y80601*
X83596Y80474*
X83997*
X83995Y80519*
X84006Y80696*
X84042Y80855*
X84095Y80991*
X84178Y81109*
X84225Y81162*
X84272Y81204*
X84325Y81239*
X84379Y81275*
X84432Y81298*
X84485Y81316*
X84544Y81322*
X84609Y81328*
X84668Y81322*
X84727Y81316*
X84786Y81298*
X84839Y81275*
X84892Y81239*
X84940Y81204*
X84987Y81156*
X85034Y81109*
X85105Y80985*
X85164Y80844*
X85194Y80678*
X85205Y80489*
X85204Y80474*
X85582*
X85583Y80519*
X85577Y80655*
X85566Y80784*
X85548Y80903*
X85518Y81015*
X85477Y81127*
X85430Y81227*
X85377Y81316*
X85312Y81405*
X85241Y81481*
X85170Y81546*
X85093Y81605*
X85016Y81653*
X84940Y81688*
X84851Y81712*
X84768Y81729*
X84680Y81735*
X84568Y81729*
X84461Y81706*
X84361Y81664*
X84260Y81605*
X84166Y81534*
X84083Y81452*
X84006Y81351*
X83936Y81233*
X83942Y81405*
X83947Y81558*
X83965Y81706*
X83983Y81836*
X84006Y81960*
X84036Y82078*
X84071Y82178*
X84113Y82273*
X84160Y82367*
X84219Y82450*
X84278Y82521*
X84343Y82580*
X84408Y82621*
X84479Y82656*
X84556Y82674*
X84638Y82680*
X84739Y82668*
X84833Y82633*
X84922Y82580*
X84999Y82503*
X85052Y82432*
X85093Y82338*
X85129Y82225*
X85158Y82095*
X85530Y82131*
X85512Y82243*
X85495Y82344*
X85465Y82438*
X85436Y82527*
X85394Y82609*
X85353Y82686*
X85300Y82757*
X85247Y82822*
X85182Y82875*
X85117Y82922*
X85052Y82964*
X84981Y82999*
X84904Y83023*
X84827Y83040*
X84745Y83052*
X84662Y83058*
G37*
X90030Y58999D02*
X90438Y58875D01*
X90402Y58721*
X90355Y58580*
X90308Y58450*
X90255Y58326*
X90190Y58214*
X90119Y58113*
X90048Y58019*
X89965Y57936*
X89877Y57865*
X89788Y57800*
X89694Y57747*
X89593Y57706*
X89487Y57670*
X89381Y57647*
X89262Y57635*
X89144Y57629*
X89038Y57635*
X88938Y57641*
X88843Y57658*
X88749Y57682*
X88660Y57712*
X88577Y57747*
X88495Y57788*
X88418Y57836*
X88347Y57895*
X88276Y57954*
X88205Y58025*
X88146Y58107*
X88087Y58196*
X88028Y58290*
X87975Y58391*
X87928Y58503*
X87881Y58621*
X87839Y58739*
X87810Y58869*
X87780Y59005*
X87762Y59141*
X87745Y59282*
X87739Y59430*
X87733Y59584*
X87739Y59737*
X87745Y59879*
X87762Y60021*
X87780Y60156*
X87810Y60281*
X87839Y60405*
X87881Y60517*
X87928Y60629*
X87975Y60729*
X88028Y60830*
X88087Y60918*
X88152Y61001*
X88217Y61078*
X88288Y61149*
X88365Y61214*
X88447Y61273*
X88530Y61326*
X88613Y61367*
X88701Y61403*
X88790Y61438*
X88884Y61462*
X88979Y61479*
X89079Y61485*
X89180Y61491*
X89286Y61485*
X89392Y61473*
X89493Y61450*
X89587Y61420*
X89682Y61385*
X89770Y61338*
X89859Y61279*
X89942Y61214*
X90018Y61143*
X90089Y61060*
X90148Y60971*
X90207Y60871*
X90260Y60771*
X90308Y60653*
X90349Y60534*
X90384Y60405*
X89989Y60292*
X89959Y60387*
X89930Y60475*
X89900Y60552*
X89859Y60629*
X89823Y60700*
X89776Y60765*
X89735Y60818*
X89682Y60871*
X89629Y60918*
X89575Y60954*
X89516Y60989*
X89451Y61019*
X89386Y61036*
X89321Y61054*
X89245Y61060*
X89174Y61066*
X89026Y61054*
X88884Y61025*
X88760Y60977*
X88642Y60906*
X88536Y60818*
X88442Y60712*
X88359Y60576*
X88288Y60422*
X88229Y60245*
X88188Y60044*
X88158Y59826*
X88152Y59584*
X88158Y59401*
X88170Y59223*
X88188Y59064*
X88217Y58916*
X88258Y58775*
X88306Y58651*
X88359Y58538*
X88424Y58438*
X88495Y58349*
X88566Y58267*
X88648Y58202*
X88737Y58149*
X88825Y58107*
X88926Y58078*
X89032Y58060*
X89138Y58054*
X89221Y58060*
X89298Y58066*
X89375Y58084*
X89445Y58113*
X89516Y58143*
X89581Y58184*
X89646Y58231*
X89711Y58290*
X89764Y58349*
X89818Y58420*
X89865Y58497*
X89912Y58580*
X89947Y58674*
X89977Y58775*
X90006Y58881*
X90030Y58999*
G36*
X90438Y58875*
X90402Y58721*
X90355Y58580*
X90308Y58450*
X90255Y58326*
X90190Y58214*
X90119Y58113*
X90048Y58019*
X89965Y57936*
X89877Y57865*
X89788Y57800*
X89694Y57747*
X89593Y57706*
X89487Y57670*
X89381Y57647*
X89262Y57635*
X89144Y57629*
X89038Y57635*
X88938Y57641*
X88843Y57658*
X88749Y57682*
X88660Y57712*
X88577Y57747*
X88495Y57788*
X88418Y57836*
X88347Y57895*
X88276Y57954*
X88205Y58025*
X88146Y58107*
X88087Y58196*
X88028Y58290*
X87975Y58391*
X87928Y58503*
X87881Y58621*
X87839Y58739*
X87810Y58869*
X87780Y59005*
X87762Y59141*
X87745Y59282*
X87739Y59430*
X87733Y59584*
X87739Y59737*
X87745Y59879*
X87762Y60021*
X87780Y60156*
X87810Y60281*
X87839Y60405*
X87881Y60517*
X87928Y60629*
X87975Y60729*
X88028Y60830*
X88087Y60918*
X88152Y61001*
X88217Y61078*
X88288Y61149*
X88365Y61214*
X88447Y61273*
X88530Y61326*
X88613Y61367*
X88701Y61403*
X88790Y61438*
X88884Y61462*
X88979Y61479*
X89079Y61485*
X89180Y61491*
X89286Y61485*
X89392Y61473*
X89493Y61450*
X89587Y61420*
X89682Y61385*
X89770Y61338*
X89859Y61279*
X89942Y61214*
X90018Y61143*
X90089Y61060*
X90148Y60971*
X90207Y60871*
X90260Y60771*
X90308Y60653*
X90349Y60534*
X90384Y60405*
X89989Y60292*
X89959Y60387*
X89930Y60475*
X89900Y60552*
X89859Y60629*
X89823Y60700*
X89776Y60765*
X89735Y60818*
X89682Y60871*
X89629Y60918*
X89575Y60954*
X89516Y60989*
X89451Y61019*
X89386Y61036*
X89321Y61054*
X89245Y61060*
X89174Y61066*
X89026Y61054*
X88884Y61025*
X88760Y60977*
X88642Y60906*
X88536Y60818*
X88442Y60712*
X88359Y60576*
X88288Y60422*
X88229Y60245*
X88188Y60044*
X88158Y59826*
X88152Y59584*
X88158Y59401*
X88170Y59223*
X88188Y59064*
X88217Y58916*
X88258Y58775*
X88306Y58651*
X88359Y58538*
X88424Y58438*
X88495Y58349*
X88566Y58267*
X88648Y58202*
X88737Y58149*
X88825Y58107*
X88926Y58078*
X89032Y58060*
X89138Y58054*
X89221Y58060*
X89298Y58066*
X89375Y58084*
X89445Y58113*
X89516Y58143*
X89581Y58184*
X89646Y58231*
X89711Y58290*
X89764Y58349*
X89818Y58420*
X89865Y58497*
X89912Y58580*
X89947Y58674*
X89977Y58775*
X90006Y58881*
X90030Y58999*
G37*
X90780Y58668D02*
X91176Y58704D01*
X91205Y58538*
X91253Y58397*
X91312Y58279*
X91382Y58178*
X91471Y58101*
X91560Y58048*
X91660Y58019*
X91760Y58007*
X91831Y58013*
X91890Y58025*
X91955Y58042*
X92014Y58066*
X92073Y58101*
X92127Y58143*
X92180Y58196*
X92227Y58249*
X92274Y58314*
X92310Y58385*
X92345Y58462*
X92375Y58544*
X92392Y58627*
X92410Y58721*
X92422Y58816*
Y58922*
X92410Y59111*
X92375Y59277*
X92351Y59347*
X92316Y59418*
X92280Y59483*
X92233Y59542*
X92186Y59590*
X92132Y59637*
X92079Y59672*
X92020Y59708*
X91961Y59731*
X91896Y59749*
X91831Y59755*
X91760Y59761*
X91672Y59755*
X91595Y59737*
X91512Y59708*
X91436Y59666*
X91365Y59613*
X91300Y59554*
X91247Y59483*
X91199Y59401*
X90845Y59460*
X91140Y61379*
X92670*
Y60942*
X91436*
X91276Y59932*
X91347Y59985*
X91418Y60032*
X91489Y60074*
X91560Y60109*
X91631Y60133*
X91707Y60151*
X91784Y60162*
X91861Y60168*
X91955Y60162*
X92044Y60145*
X92132Y60121*
X92221Y60086*
X92304Y60038*
X92381Y59985*
X92457Y59914*
X92534Y59838*
X92599Y59755*
X92658Y59660*
X92705Y59560*
X92747Y59454*
X92776Y59342*
X92800Y59223*
X92812Y59094*
X92818Y58958*
X92812Y58822*
X92800Y58692*
X92776Y58568*
X92747Y58450*
X92705Y58332*
X92658Y58225*
X92599Y58119*
X92534Y58019*
X92457Y57930*
X92381Y57847*
X92292Y57782*
X92197Y57723*
X92097Y57682*
X91997Y57653*
X91884Y57635*
X91766Y57629*
X91672Y57635*
X91577Y57647*
X91483Y57670*
X91400Y57700*
X91318Y57735*
X91241Y57782*
X91164Y57842*
X91093Y57906*
X91028Y57977*
X90969Y58054*
X90922Y58143*
X90881Y58231*
X90845Y58332*
X90816Y58438*
X90792Y58550*
X90780Y58668*
G36*
X91176Y58704*
X91205Y58538*
X91253Y58397*
X91312Y58279*
X91382Y58178*
X91471Y58101*
X91560Y58048*
X91660Y58019*
X91760Y58007*
X91831Y58013*
X91890Y58025*
X91955Y58042*
X92014Y58066*
X92073Y58101*
X92127Y58143*
X92180Y58196*
X92227Y58249*
X92274Y58314*
X92310Y58385*
X92345Y58462*
X92375Y58544*
X92392Y58627*
X92410Y58721*
X92422Y58816*
Y58922*
X92410Y59111*
X92375Y59277*
X92351Y59347*
X92316Y59418*
X92280Y59483*
X92233Y59542*
X92186Y59590*
X92132Y59637*
X92079Y59672*
X92020Y59708*
X91961Y59731*
X91896Y59749*
X91831Y59755*
X91760Y59761*
X91672Y59755*
X91595Y59737*
X91512Y59708*
X91436Y59666*
X91365Y59613*
X91300Y59554*
X91247Y59483*
X91199Y59401*
X90845Y59460*
X91140Y61379*
X92670*
Y60942*
X91436*
X91276Y59932*
X91347Y59985*
X91418Y60032*
X91489Y60074*
X91560Y60109*
X91631Y60133*
X91707Y60151*
X91784Y60162*
X91861Y60168*
X91955Y60162*
X92044Y60145*
X92132Y60121*
X92221Y60086*
X92304Y60038*
X92381Y59985*
X92457Y59914*
X92534Y59838*
X92599Y59755*
X92658Y59660*
X92705Y59560*
X92747Y59454*
X92776Y59342*
X92800Y59223*
X92812Y59094*
X92818Y58958*
X92812Y58822*
X92800Y58692*
X92776Y58568*
X92747Y58450*
X92705Y58332*
X92658Y58225*
X92599Y58119*
X92534Y58019*
X92457Y57930*
X92381Y57847*
X92292Y57782*
X92197Y57723*
X92097Y57682*
X91997Y57653*
X91884Y57635*
X91766Y57629*
X91672Y57635*
X91577Y57647*
X91483Y57670*
X91400Y57700*
X91318Y57735*
X91241Y57782*
X91164Y57842*
X91093Y57906*
X91028Y57977*
X90969Y58054*
X90922Y58143*
X90881Y58231*
X90845Y58332*
X90816Y58438*
X90792Y58550*
X90780Y58668*
G37*
X98388Y55017D02*
Y58749D01*
X99747*
X99847*
X99941Y58743*
X100030Y58731*
X100113Y58719*
X100190Y58708*
X100254Y58690*
X100319Y58666*
X100373Y58643*
X100467Y58584*
X100556Y58507*
X100632Y58406*
X100703Y58294*
X100762Y58170*
X100804Y58034*
X100827Y57887*
X100833Y57733*
X100827Y57627*
X100821Y57532*
X100804Y57438*
X100780Y57349*
X100745Y57267*
X100709Y57190*
X100662Y57113*
X100615Y57048*
X100556Y56983*
X100491Y56930*
X100420Y56877*
X100343Y56836*
X100260Y56794*
X100172Y56759*
X100071Y56735*
X99971Y56712*
X100054Y56664*
X100125Y56611*
X100184Y56558*
X100231Y56511*
X100319Y56399*
X100402Y56281*
X100479Y56162*
X100550Y56032*
X101087Y55017*
X100579*
X100166Y55790*
X100107Y55903*
X100054Y56003*
X100006Y56092*
X99959Y56174*
X99912Y56245*
X99877Y56310*
X99841Y56363*
X99806Y56405*
X99747Y56481*
X99688Y56540*
X99634Y56588*
X99575Y56623*
X99516Y56647*
X99440Y56664*
X99357Y56670*
X99262Y56676*
X98796*
Y55017*
X98388*
X98796Y57101D02*
X99664D01*
X99800Y57107*
X99912Y57119*
X100012Y57137*
X100095Y57172*
X100166Y57208*
X100225Y57255*
X100278Y57314*
X100325Y57385*
X100367Y57462*
X100390Y57544*
X100408Y57633*
X100414Y57727*
X100402Y57863*
X100373Y57981*
X100319Y58088*
X100249Y58176*
X100154Y58247*
X100042Y58294*
X99912Y58324*
X99758Y58336*
X98796*
Y57101*
X100832Y57719D02*
G36*
X100413D01*
X100408Y57633*
X100390Y57544*
X100367Y57462*
X100325Y57385*
X100278Y57314*
X100225Y57255*
X100166Y57208*
X100095Y57172*
X100012Y57137*
X99912Y57119*
X99800Y57107*
X99664Y57101*
X98796*
Y57719*
X98388*
Y55017*
X98796*
Y56676*
X99262*
X99357Y56670*
X99440Y56664*
X99516Y56647*
X99575Y56623*
X99634Y56588*
X99688Y56540*
X99747Y56481*
X99806Y56405*
X99841Y56363*
X99877Y56310*
X99912Y56245*
X99959Y56174*
X100006Y56092*
X100054Y56003*
X100107Y55903*
X100166Y55790*
X100579Y55017*
X101087*
X100550Y56032*
X100479Y56162*
X100402Y56281*
X100319Y56399*
X100231Y56511*
X100184Y56558*
X100125Y56611*
X100054Y56664*
X99971Y56712*
X100071Y56735*
X100172Y56759*
X100260Y56794*
X100343Y56836*
X100420Y56877*
X100491Y56930*
X100556Y56983*
X100615Y57048*
X100662Y57113*
X100709Y57190*
X100745Y57267*
X100780Y57349*
X100804Y57438*
X100821Y57532*
X100827Y57627*
X100832Y57719*
G37*
X99847Y58749D02*
G36*
X99747D01*
X98388*
Y57719*
X98796*
Y58336*
X99758*
X99912Y58324*
X100042Y58294*
X100154Y58247*
X100249Y58176*
X100319Y58088*
X100373Y57981*
X100402Y57863*
X100414Y57727*
X100413Y57719*
X100832*
X100833Y57733*
X100827Y57887*
X100804Y58034*
X100762Y58170*
X100703Y58294*
X100632Y58406*
X100556Y58507*
X100467Y58584*
X100373Y58643*
X100319Y58666*
X100254Y58690*
X100190Y58708*
X100113Y58719*
X100030Y58731*
X99941Y58743*
X99847Y58749*
G37*
X103302Y55460D02*
Y55017D01*
X101276*
X101282Y55153*
X101312Y55300*
X101365Y55454*
X101441Y55613*
X101483Y55702*
X101542Y55790*
X101607Y55879*
X101678Y55979*
X101760Y56080*
X101855Y56180*
X101955Y56286*
X102062Y56399*
X102186Y56529*
X102304Y56647*
X102404Y56759*
X102499Y56865*
X102581Y56960*
X102652Y57054*
X102705Y57137*
X102753Y57208*
X102823Y57349*
X102877Y57485*
X102906Y57615*
X102918Y57745*
X102906Y57881*
X102877Y58005*
X102823Y58111*
X102753Y58212*
X102664Y58288*
X102564Y58342*
X102457Y58377*
X102339Y58389*
X102274Y58383*
X102209Y58377*
X102156Y58359*
X102097Y58342*
X102044Y58312*
X101997Y58277*
X101949Y58241*
X101908Y58194*
X101831Y58088*
X101778Y57958*
X101749Y57810*
X101737Y57639*
X101347Y57686*
X101359Y57816*
X101382Y57940*
X101412Y58052*
X101441Y58158*
X101483Y58253*
X101536Y58342*
X101589Y58424*
X101654Y58495*
X101719Y58560*
X101796Y58613*
X101873Y58660*
X101955Y58696*
X102044Y58725*
X102138Y58749*
X102239Y58761*
X102345Y58767*
X102457Y58761*
X102564Y58749*
X102664Y58719*
X102758Y58690*
X102841Y58643*
X102918Y58590*
X102989Y58525*
X103054Y58448*
X103113Y58371*
X103160Y58288*
X103201Y58200*
X103237Y58111*
X103260Y58023*
X103278Y57928*
X103290Y57834*
X103296Y57733*
X103284Y57556*
X103249Y57385*
X103225Y57296*
X103190Y57214*
X103154Y57131*
X103107Y57048*
X103054Y56966*
X102995Y56871*
X102918Y56771*
X102835Y56670*
X102741Y56558*
X102634Y56434*
X102516Y56310*
X102392Y56180*
X102310Y56097*
X102239Y56021*
X102174Y55950*
X102115Y55891*
X102062Y55832*
X102020Y55784*
X101985Y55743*
X101955Y55708*
X101867Y55584*
X101796Y55460*
X103302*
G36*
Y55017*
X101276*
X101282Y55153*
X101312Y55300*
X101365Y55454*
X101441Y55613*
X101483Y55702*
X101542Y55790*
X101607Y55879*
X101678Y55979*
X101760Y56080*
X101855Y56180*
X101955Y56286*
X102062Y56399*
X102186Y56529*
X102304Y56647*
X102404Y56759*
X102499Y56865*
X102581Y56960*
X102652Y57054*
X102705Y57137*
X102753Y57208*
X102823Y57349*
X102877Y57485*
X102906Y57615*
X102918Y57745*
X102906Y57881*
X102877Y58005*
X102823Y58111*
X102753Y58212*
X102664Y58288*
X102564Y58342*
X102457Y58377*
X102339Y58389*
X102274Y58383*
X102209Y58377*
X102156Y58359*
X102097Y58342*
X102044Y58312*
X101997Y58277*
X101949Y58241*
X101908Y58194*
X101831Y58088*
X101778Y57958*
X101749Y57810*
X101737Y57639*
X101347Y57686*
X101359Y57816*
X101382Y57940*
X101412Y58052*
X101441Y58158*
X101483Y58253*
X101536Y58342*
X101589Y58424*
X101654Y58495*
X101719Y58560*
X101796Y58613*
X101873Y58660*
X101955Y58696*
X102044Y58725*
X102138Y58749*
X102239Y58761*
X102345Y58767*
X102457Y58761*
X102564Y58749*
X102664Y58719*
X102758Y58690*
X102841Y58643*
X102918Y58590*
X102989Y58525*
X103054Y58448*
X103113Y58371*
X103160Y58288*
X103201Y58200*
X103237Y58111*
X103260Y58023*
X103278Y57928*
X103290Y57834*
X103296Y57733*
X103284Y57556*
X103249Y57385*
X103225Y57296*
X103190Y57214*
X103154Y57131*
X103107Y57048*
X103054Y56966*
X102995Y56871*
X102918Y56771*
X102835Y56670*
X102741Y56558*
X102634Y56434*
X102516Y56310*
X102392Y56180*
X102310Y56097*
X102239Y56021*
X102174Y55950*
X102115Y55891*
X102062Y55832*
X102020Y55784*
X101985Y55743*
X101955Y55708*
X101867Y55584*
X101796Y55460*
X103302*
G37*
X98388Y74229D02*
Y77962D01*
X99747*
X99847*
X99942Y77956*
X100030Y77944*
X100113Y77932*
X100190Y77920*
X100255Y77903*
X100319Y77879*
X100373Y77855*
X100467Y77796*
X100556Y77719*
X100632Y77619*
X100703Y77507*
X100762Y77383*
X100804Y77247*
X100827Y77099*
X100833Y76946*
X100827Y76840*
X100821Y76745*
X100804Y76651*
X100780Y76562*
X100745Y76479*
X100709Y76403*
X100662Y76326*
X100615Y76261*
X100556Y76196*
X100491Y76143*
X100420Y76090*
X100343Y76048*
X100260Y76007*
X100172Y75971*
X100071Y75948*
X99971Y75924*
X100054Y75877*
X100125Y75824*
X100184Y75771*
X100231Y75723*
X100319Y75611*
X100402Y75493*
X100479Y75375*
X100550Y75245*
X101087Y74229*
X100579*
X100166Y75003*
X100107Y75115*
X100054Y75216*
X100006Y75304*
X99959Y75387*
X99912Y75458*
X99877Y75523*
X99841Y75576*
X99806Y75617*
X99747Y75694*
X99688Y75753*
X99634Y75800*
X99575Y75836*
X99516Y75859*
X99440Y75877*
X99357Y75883*
X99262Y75889*
X98796*
Y74229*
X98388*
X98796Y76314D02*
X99664D01*
X99800Y76320*
X99912Y76332*
X100012Y76349*
X100095Y76385*
X100166Y76420*
X100225Y76468*
X100278Y76527*
X100325Y76597*
X100367Y76674*
X100390Y76757*
X100408Y76845*
X100414Y76940*
X100402Y77076*
X100373Y77194*
X100319Y77300*
X100249Y77389*
X100154Y77460*
X100042Y77507*
X99912Y77536*
X99758Y77548*
X98796*
Y76314*
X100832Y76931D02*
G36*
X100413D01*
X100408Y76845*
X100390Y76757*
X100367Y76674*
X100325Y76597*
X100278Y76527*
X100225Y76468*
X100166Y76420*
X100095Y76385*
X100012Y76349*
X99912Y76332*
X99800Y76320*
X99664Y76314*
X98796*
Y76931*
X98388*
Y74229*
X98796*
Y75889*
X99262*
X99357Y75883*
X99440Y75877*
X99516Y75859*
X99575Y75836*
X99634Y75800*
X99688Y75753*
X99747Y75694*
X99806Y75617*
X99841Y75576*
X99877Y75523*
X99912Y75458*
X99959Y75387*
X100006Y75304*
X100054Y75216*
X100107Y75115*
X100166Y75003*
X100579Y74229*
X101087*
X100550Y75245*
X100479Y75375*
X100402Y75493*
X100319Y75611*
X100231Y75723*
X100184Y75771*
X100125Y75824*
X100054Y75877*
X99971Y75924*
X100071Y75948*
X100172Y75971*
X100260Y76007*
X100343Y76048*
X100420Y76090*
X100491Y76143*
X100556Y76196*
X100615Y76261*
X100662Y76326*
X100709Y76403*
X100745Y76479*
X100780Y76562*
X100804Y76651*
X100821Y76745*
X100827Y76840*
X100832Y76931*
G37*
X99847Y77962D02*
G36*
X99747D01*
X98388*
Y76931*
X98796*
Y77548*
X99758*
X99912Y77536*
X100042Y77507*
X100154Y77460*
X100249Y77389*
X100319Y77300*
X100373Y77194*
X100402Y77076*
X100414Y76940*
X100413Y76931*
X100832*
X100833Y76946*
X100827Y77099*
X100804Y77247*
X100762Y77383*
X100703Y77507*
X100632Y77619*
X100556Y77719*
X100467Y77796*
X100373Y77855*
X100319Y77879*
X100255Y77903*
X100190Y77920*
X100113Y77932*
X100030Y77944*
X99942Y77956*
X99847Y77962*
G37*
X101318Y75216D02*
X101690Y75275D01*
X101725Y75103*
X101772Y74956*
X101825Y74826*
X101896Y74725*
X101979Y74643*
X102068Y74590*
X102168Y74554*
X102286Y74542*
X102345Y74548*
X102410Y74554*
X102469Y74572*
X102522Y74595*
X102581Y74625*
X102629Y74666*
X102682Y74708*
X102729Y74761*
X102776Y74814*
X102812Y74879*
X102847Y74938*
X102871Y75009*
X102906Y75156*
X102918Y75322*
X102906Y75481*
X102877Y75617*
X102823Y75741*
X102747Y75847*
X102699Y75895*
X102652Y75936*
X102605Y75971*
X102552Y75995*
X102499Y76019*
X102440Y76036*
X102381Y76042*
X102321Y76048*
X102262Y76042*
X102203Y76036*
X102132Y76019*
X102056Y75995*
X102097Y76403*
X102156Y76397*
X102292Y76408*
X102410Y76438*
X102516Y76491*
X102611Y76568*
X102688Y76656*
X102747Y76763*
X102776Y76887*
X102788Y77023*
X102776Y77147*
X102753Y77259*
X102705Y77353*
X102640Y77442*
X102564Y77513*
X102481Y77560*
X102386Y77590*
X102286Y77601*
X102180Y77590*
X102085Y77560*
X101997Y77507*
X101914Y77436*
X101849Y77342*
X101796Y77223*
X101755Y77088*
X101725Y76928*
X101353Y77011*
X101377Y77129*
X101400Y77235*
X101430Y77336*
X101471Y77430*
X101512Y77519*
X101560Y77595*
X101613Y77666*
X101672Y77731*
X101737Y77790*
X101802Y77844*
X101873Y77885*
X101949Y77920*
X102026Y77944*
X102103Y77962*
X102192Y77973*
X102274Y77979*
X102369Y77973*
X102457Y77962*
X102540Y77938*
X102617Y77908*
X102699Y77873*
X102770Y77826*
X102841Y77767*
X102906Y77702*
X102965Y77631*
X103018Y77560*
X103066Y77477*
X103101Y77395*
X103131Y77306*
X103148Y77212*
X103160Y77111*
X103166Y77011*
X103160Y76887*
X103136Y76769*
X103107Y76662*
X103060Y76562*
X103001Y76468*
X102930Y76385*
X102847Y76314*
X102753Y76255*
X102841Y76225*
X102918Y76184*
X102989Y76137*
X103054Y76084*
X103113Y76019*
X103160Y75948*
X103207Y75865*
X103249Y75771*
X103278Y75670*
X103302Y75564*
X103314Y75452*
X103319Y75334*
X103314Y75210*
X103302Y75086*
X103278Y74973*
X103243Y74867*
X103201Y74761*
X103148Y74666*
X103089Y74578*
X103018Y74489*
X102942Y74412*
X102859Y74347*
X102770Y74294*
X102682Y74247*
X102593Y74212*
X102493Y74182*
X102398Y74170*
X102292Y74164*
X102197Y74170*
X102103Y74182*
X102014Y74206*
X101932Y74235*
X101849Y74277*
X101772Y74324*
X101695Y74383*
X101631Y74448*
X101566Y74525*
X101506Y74601*
X101459Y74690*
X101412Y74784*
X101377Y74879*
X101353Y74985*
X101329Y75097*
X101318Y75216*
G36*
X101690Y75275*
X101725Y75103*
X101772Y74956*
X101825Y74826*
X101896Y74725*
X101979Y74643*
X102068Y74590*
X102168Y74554*
X102286Y74542*
X102345Y74548*
X102410Y74554*
X102469Y74572*
X102522Y74595*
X102581Y74625*
X102629Y74666*
X102682Y74708*
X102729Y74761*
X102776Y74814*
X102812Y74879*
X102847Y74938*
X102871Y75009*
X102906Y75156*
X102918Y75322*
X102906Y75481*
X102877Y75617*
X102823Y75741*
X102747Y75847*
X102699Y75895*
X102652Y75936*
X102605Y75971*
X102552Y75995*
X102499Y76019*
X102440Y76036*
X102381Y76042*
X102321Y76048*
X102262Y76042*
X102203Y76036*
X102132Y76019*
X102056Y75995*
X102097Y76403*
X102156Y76397*
X102292Y76408*
X102410Y76438*
X102516Y76491*
X102611Y76568*
X102688Y76656*
X102747Y76763*
X102776Y76887*
X102788Y77023*
X102776Y77147*
X102753Y77259*
X102705Y77353*
X102640Y77442*
X102564Y77513*
X102481Y77560*
X102386Y77590*
X102286Y77601*
X102180Y77590*
X102085Y77560*
X101997Y77507*
X101914Y77436*
X101849Y77342*
X101796Y77223*
X101755Y77088*
X101725Y76928*
X101353Y77011*
X101377Y77129*
X101400Y77235*
X101430Y77336*
X101471Y77430*
X101512Y77519*
X101560Y77595*
X101613Y77666*
X101672Y77731*
X101737Y77790*
X101802Y77844*
X101873Y77885*
X101949Y77920*
X102026Y77944*
X102103Y77962*
X102192Y77973*
X102274Y77979*
X102369Y77973*
X102457Y77962*
X102540Y77938*
X102617Y77908*
X102699Y77873*
X102770Y77826*
X102841Y77767*
X102906Y77702*
X102965Y77631*
X103018Y77560*
X103066Y77477*
X103101Y77395*
X103131Y77306*
X103148Y77212*
X103160Y77111*
X103166Y77011*
X103160Y76887*
X103136Y76769*
X103107Y76662*
X103060Y76562*
X103001Y76468*
X102930Y76385*
X102847Y76314*
X102753Y76255*
X102841Y76225*
X102918Y76184*
X102989Y76137*
X103054Y76084*
X103113Y76019*
X103160Y75948*
X103207Y75865*
X103249Y75771*
X103278Y75670*
X103302Y75564*
X103314Y75452*
X103319Y75334*
X103314Y75210*
X103302Y75086*
X103278Y74973*
X103243Y74867*
X103201Y74761*
X103148Y74666*
X103089Y74578*
X103018Y74489*
X102942Y74412*
X102859Y74347*
X102770Y74294*
X102682Y74247*
X102593Y74212*
X102493Y74182*
X102398Y74170*
X102292Y74164*
X102197Y74170*
X102103Y74182*
X102014Y74206*
X101932Y74235*
X101849Y74277*
X101772Y74324*
X101695Y74383*
X101631Y74448*
X101566Y74525*
X101506Y74601*
X101459Y74690*
X101412Y74784*
X101377Y74879*
X101353Y74985*
X101329Y75097*
X101318Y75216*
G37*
X108160Y46814D02*
X108568Y46690D01*
X108532Y46536*
X108485Y46395*
X108438Y46265*
X108384Y46141*
X108319Y46029*
X108249Y45928*
X108178Y45834*
X108095Y45751*
X108006Y45680*
X107918Y45615*
X107823Y45562*
X107723Y45521*
X107617Y45485*
X107510Y45462*
X107392Y45450*
X107274Y45444*
X107168Y45450*
X107068Y45456*
X106973Y45473*
X106879Y45497*
X106790Y45527*
X106707Y45562*
X106625Y45603*
X106548Y45651*
X106477Y45710*
X106406Y45769*
X106335Y45840*
X106276Y45922*
X106217Y46011*
X106158Y46105*
X106105Y46206*
X106058Y46318*
X106010Y46436*
X105969Y46554*
X105940Y46684*
X105910Y46820*
X105892Y46956*
X105875Y47097*
X105869Y47245*
X105863Y47399*
X105869Y47552*
X105875Y47694*
X105892Y47836*
X105910Y47971*
X105940Y48095*
X105969Y48219*
X106010Y48332*
X106058Y48444*
X106105Y48544*
X106158Y48645*
X106217Y48733*
X106282Y48816*
X106347Y48893*
X106418Y48964*
X106495Y49029*
X106577Y49088*
X106660Y49141*
X106743Y49182*
X106831Y49218*
X106920Y49253*
X107014Y49277*
X107109Y49294*
X107209Y49300*
X107310Y49306*
X107416Y49300*
X107522Y49288*
X107623Y49265*
X107717Y49235*
X107812Y49200*
X107900Y49153*
X107989Y49094*
X108071Y49029*
X108148Y48958*
X108219Y48875*
X108278Y48786*
X108337Y48686*
X108390Y48586*
X108438Y48468*
X108479Y48349*
X108514Y48219*
X108119Y48107*
X108089Y48202*
X108060Y48290*
X108030Y48367*
X107989Y48444*
X107953Y48515*
X107906Y48580*
X107865Y48633*
X107812Y48686*
X107758Y48733*
X107705Y48769*
X107646Y48804*
X107581Y48834*
X107516Y48851*
X107451Y48869*
X107375Y48875*
X107304Y48881*
X107156Y48869*
X107014Y48840*
X106890Y48792*
X106772Y48721*
X106666Y48633*
X106571Y48527*
X106489Y48391*
X106418Y48237*
X106359Y48060*
X106318Y47859*
X106288Y47641*
X106282Y47399*
X106288Y47216*
X106300Y47038*
X106318Y46879*
X106347Y46731*
X106388Y46590*
X106436Y46466*
X106489Y46353*
X106554Y46253*
X106625Y46164*
X106695Y46082*
X106778Y46017*
X106867Y45964*
X106955Y45922*
X107056Y45893*
X107162Y45875*
X107268Y45869*
X107351Y45875*
X107428Y45881*
X107505Y45899*
X107575Y45928*
X107646Y45958*
X107711Y45999*
X107776Y46046*
X107841Y46105*
X107894Y46164*
X107947Y46235*
X107995Y46312*
X108042Y46395*
X108077Y46489*
X108107Y46590*
X108136Y46696*
X108160Y46814*
G36*
X108568Y46690*
X108532Y46536*
X108485Y46395*
X108438Y46265*
X108384Y46141*
X108319Y46029*
X108249Y45928*
X108178Y45834*
X108095Y45751*
X108006Y45680*
X107918Y45615*
X107823Y45562*
X107723Y45521*
X107617Y45485*
X107510Y45462*
X107392Y45450*
X107274Y45444*
X107168Y45450*
X107068Y45456*
X106973Y45473*
X106879Y45497*
X106790Y45527*
X106707Y45562*
X106625Y45603*
X106548Y45651*
X106477Y45710*
X106406Y45769*
X106335Y45840*
X106276Y45922*
X106217Y46011*
X106158Y46105*
X106105Y46206*
X106058Y46318*
X106010Y46436*
X105969Y46554*
X105940Y46684*
X105910Y46820*
X105892Y46956*
X105875Y47097*
X105869Y47245*
X105863Y47399*
X105869Y47552*
X105875Y47694*
X105892Y47836*
X105910Y47971*
X105940Y48095*
X105969Y48219*
X106010Y48332*
X106058Y48444*
X106105Y48544*
X106158Y48645*
X106217Y48733*
X106282Y48816*
X106347Y48893*
X106418Y48964*
X106495Y49029*
X106577Y49088*
X106660Y49141*
X106743Y49182*
X106831Y49218*
X106920Y49253*
X107014Y49277*
X107109Y49294*
X107209Y49300*
X107310Y49306*
X107416Y49300*
X107522Y49288*
X107623Y49265*
X107717Y49235*
X107812Y49200*
X107900Y49153*
X107989Y49094*
X108071Y49029*
X108148Y48958*
X108219Y48875*
X108278Y48786*
X108337Y48686*
X108390Y48586*
X108438Y48468*
X108479Y48349*
X108514Y48219*
X108119Y48107*
X108089Y48202*
X108060Y48290*
X108030Y48367*
X107989Y48444*
X107953Y48515*
X107906Y48580*
X107865Y48633*
X107812Y48686*
X107758Y48733*
X107705Y48769*
X107646Y48804*
X107581Y48834*
X107516Y48851*
X107451Y48869*
X107375Y48875*
X107304Y48881*
X107156Y48869*
X107014Y48840*
X106890Y48792*
X106772Y48721*
X106666Y48633*
X106571Y48527*
X106489Y48391*
X106418Y48237*
X106359Y48060*
X106318Y47859*
X106288Y47641*
X106282Y47399*
X106288Y47216*
X106300Y47038*
X106318Y46879*
X106347Y46731*
X106388Y46590*
X106436Y46466*
X106489Y46353*
X106554Y46253*
X106625Y46164*
X106695Y46082*
X106778Y46017*
X106867Y45964*
X106955Y45922*
X107056Y45893*
X107162Y45875*
X107268Y45869*
X107351Y45875*
X107428Y45881*
X107505Y45899*
X107575Y45928*
X107646Y45958*
X107711Y45999*
X107776Y46046*
X107841Y46105*
X107894Y46164*
X107947Y46235*
X107995Y46312*
X108042Y46395*
X108077Y46489*
X108107Y46590*
X108136Y46696*
X108160Y46814*
G37*
X108916Y46495D02*
X109288Y46554D01*
X109323Y46383*
X109371Y46235*
X109424Y46105*
X109495Y46005*
X109577Y45922*
X109666Y45869*
X109766Y45834*
X109884Y45822*
X109944Y45828*
X110008Y45834*
X110068Y45851*
X110121Y45875*
X110180Y45905*
X110227Y45946*
X110280Y45987*
X110327Y46040*
X110375Y46094*
X110410Y46158*
X110445Y46218*
X110469Y46288*
X110505Y46436*
X110516Y46601*
X110505Y46761*
X110475Y46897*
X110422Y47021*
X110345Y47127*
X110298Y47174*
X110251Y47216*
X110203Y47251*
X110150Y47275*
X110097Y47298*
X110038Y47316*
X109979Y47322*
X109920Y47328*
X109861Y47322*
X109802Y47316*
X109731Y47298*
X109654Y47275*
X109695Y47682*
X109755Y47676*
X109890Y47688*
X110008Y47718*
X110115Y47771*
X110209Y47847*
X110286Y47936*
X110345Y48042*
X110375Y48166*
X110386Y48302*
X110375Y48426*
X110351Y48538*
X110304Y48633*
X110239Y48721*
X110162Y48792*
X110079Y48840*
X109985Y48869*
X109884Y48881*
X109778Y48869*
X109684Y48840*
X109595Y48786*
X109512Y48716*
X109447Y48621*
X109394Y48503*
X109353Y48367*
X109323Y48208*
X108951Y48290*
X108975Y48408*
X108999Y48515*
X109028Y48615*
X109069Y48710*
X109111Y48798*
X109158Y48875*
X109211Y48946*
X109270Y49011*
X109335Y49070*
X109400Y49123*
X109471Y49164*
X109548Y49200*
X109625Y49223*
X109701Y49241*
X109790Y49253*
X109873Y49259*
X109967Y49253*
X110056Y49241*
X110138Y49218*
X110215Y49188*
X110298Y49153*
X110369Y49105*
X110440Y49046*
X110505Y48981*
X110564Y48910*
X110617Y48840*
X110664Y48757*
X110699Y48674*
X110729Y48586*
X110747Y48491*
X110758Y48391*
X110764Y48290*
X110758Y48166*
X110735Y48048*
X110705Y47942*
X110658Y47842*
X110599Y47747*
X110528Y47664*
X110445Y47594*
X110351Y47534*
X110440Y47505*
X110516Y47464*
X110587Y47416*
X110652Y47363*
X110711Y47298*
X110758Y47227*
X110806Y47145*
X110847Y47050*
X110877Y46950*
X110900Y46844*
X110912Y46731*
X110918Y46613*
X110912Y46489*
X110900Y46365*
X110877Y46253*
X110841Y46147*
X110800Y46040*
X110747Y45946*
X110688Y45857*
X110617Y45769*
X110540Y45692*
X110457Y45627*
X110369Y45574*
X110280Y45527*
X110192Y45491*
X110091Y45462*
X109997Y45450*
X109890Y45444*
X109796Y45450*
X109701Y45462*
X109613Y45485*
X109530Y45515*
X109447Y45556*
X109371Y45603*
X109294Y45662*
X109229Y45727*
X109164Y45804*
X109105Y45881*
X109058Y45969*
X109010Y46064*
X108975Y46158*
X108951Y46265*
X108928Y46377*
X108916Y46495*
G36*
X109288Y46554*
X109323Y46383*
X109371Y46235*
X109424Y46105*
X109495Y46005*
X109577Y45922*
X109666Y45869*
X109766Y45834*
X109884Y45822*
X109944Y45828*
X110008Y45834*
X110068Y45851*
X110121Y45875*
X110180Y45905*
X110227Y45946*
X110280Y45987*
X110327Y46040*
X110375Y46094*
X110410Y46158*
X110445Y46218*
X110469Y46288*
X110505Y46436*
X110516Y46601*
X110505Y46761*
X110475Y46897*
X110422Y47021*
X110345Y47127*
X110298Y47174*
X110251Y47216*
X110203Y47251*
X110150Y47275*
X110097Y47298*
X110038Y47316*
X109979Y47322*
X109920Y47328*
X109861Y47322*
X109802Y47316*
X109731Y47298*
X109654Y47275*
X109695Y47682*
X109755Y47676*
X109890Y47688*
X110008Y47718*
X110115Y47771*
X110209Y47847*
X110286Y47936*
X110345Y48042*
X110375Y48166*
X110386Y48302*
X110375Y48426*
X110351Y48538*
X110304Y48633*
X110239Y48721*
X110162Y48792*
X110079Y48840*
X109985Y48869*
X109884Y48881*
X109778Y48869*
X109684Y48840*
X109595Y48786*
X109512Y48716*
X109447Y48621*
X109394Y48503*
X109353Y48367*
X109323Y48208*
X108951Y48290*
X108975Y48408*
X108999Y48515*
X109028Y48615*
X109069Y48710*
X109111Y48798*
X109158Y48875*
X109211Y48946*
X109270Y49011*
X109335Y49070*
X109400Y49123*
X109471Y49164*
X109548Y49200*
X109625Y49223*
X109701Y49241*
X109790Y49253*
X109873Y49259*
X109967Y49253*
X110056Y49241*
X110138Y49218*
X110215Y49188*
X110298Y49153*
X110369Y49105*
X110440Y49046*
X110505Y48981*
X110564Y48910*
X110617Y48840*
X110664Y48757*
X110699Y48674*
X110729Y48586*
X110747Y48491*
X110758Y48391*
X110764Y48290*
X110758Y48166*
X110735Y48048*
X110705Y47942*
X110658Y47842*
X110599Y47747*
X110528Y47664*
X110445Y47594*
X110351Y47534*
X110440Y47505*
X110516Y47464*
X110587Y47416*
X110652Y47363*
X110711Y47298*
X110758Y47227*
X110806Y47145*
X110847Y47050*
X110877Y46950*
X110900Y46844*
X110912Y46731*
X110918Y46613*
X110912Y46489*
X110900Y46365*
X110877Y46253*
X110841Y46147*
X110800Y46040*
X110747Y45946*
X110688Y45857*
X110617Y45769*
X110540Y45692*
X110457Y45627*
X110369Y45574*
X110280Y45527*
X110192Y45491*
X110091Y45462*
X109997Y45450*
X109890Y45444*
X109796Y45450*
X109701Y45462*
X109613Y45485*
X109530Y45515*
X109447Y45556*
X109371Y45603*
X109294Y45662*
X109229Y45727*
X109164Y45804*
X109105Y45881*
X109058Y45969*
X109010Y46064*
X108975Y46158*
X108951Y46265*
X108928Y46377*
X108916Y46495*
G37*
X116270Y46849D02*
X116678Y46725D01*
X116642Y46572*
X116595Y46430*
X116548Y46300*
X116495Y46176*
X116430Y46064*
X116359Y45964*
X116288Y45869*
X116205Y45786*
X116117Y45716*
X116028Y45651*
X115934Y45597*
X115833Y45556*
X115727Y45521*
X115621Y45497*
X115503Y45485*
X115384Y45479*
X115278Y45485*
X115178Y45491*
X115083Y45509*
X114989Y45532*
X114900Y45562*
X114818Y45597*
X114735Y45639*
X114658Y45686*
X114587Y45745*
X114516Y45804*
X114445Y45875*
X114386Y45958*
X114327Y46046*
X114268Y46141*
X114215Y46241*
X114168Y46353*
X114121Y46471*
X114079Y46590*
X114050Y46719*
X114020Y46855*
X114003Y46991*
X113985Y47133*
X113979Y47281*
X113973Y47434*
X113979Y47588*
X113985Y47729*
X114003Y47871*
X114020Y48007*
X114050Y48131*
X114079Y48255*
X114121Y48367*
X114168Y48479*
X114215Y48580*
X114268Y48680*
X114327Y48769*
X114392Y48851*
X114457Y48928*
X114528Y48999*
X114605Y49064*
X114688Y49123*
X114770Y49176*
X114853Y49218*
X114942Y49253*
X115030Y49288*
X115125Y49312*
X115219Y49330*
X115319Y49336*
X115420Y49342*
X115526Y49336*
X115632Y49324*
X115733Y49300*
X115827Y49271*
X115922Y49235*
X116010Y49188*
X116099Y49129*
X116182Y49064*
X116258Y48993*
X116329Y48910*
X116388Y48822*
X116447Y48721*
X116501Y48621*
X116548Y48503*
X116589Y48385*
X116625Y48255*
X116229Y48143*
X116199Y48237*
X116170Y48326*
X116140Y48403*
X116099Y48479*
X116064Y48550*
X116016Y48615*
X115975Y48668*
X115922Y48721*
X115869Y48769*
X115816Y48804*
X115756Y48840*
X115692Y48869*
X115627Y48887*
X115562Y48905*
X115485Y48910*
X115414Y48916*
X115266Y48905*
X115125Y48875*
X115001Y48828*
X114882Y48757*
X114776Y48668*
X114682Y48562*
X114599Y48426*
X114528Y48273*
X114469Y48095*
X114428Y47895*
X114398Y47676*
X114392Y47434*
X114398Y47251*
X114410Y47074*
X114428Y46914*
X114457Y46767*
X114499Y46625*
X114546Y46501*
X114599Y46389*
X114664Y46288*
X114735Y46200*
X114806Y46117*
X114888Y46052*
X114977Y45999*
X115066Y45958*
X115166Y45928*
X115272Y45910*
X115379Y45905*
X115461Y45910*
X115538Y45916*
X115615Y45934*
X115686Y45964*
X115756Y45993*
X115821Y46034*
X115886Y46082*
X115951Y46141*
X116005Y46200*
X116058Y46271*
X116105Y46347*
X116152Y46430*
X116188Y46525*
X116217Y46625*
X116247Y46731*
X116270Y46849*
G36*
X116678Y46725*
X116642Y46572*
X116595Y46430*
X116548Y46300*
X116495Y46176*
X116430Y46064*
X116359Y45964*
X116288Y45869*
X116205Y45786*
X116117Y45716*
X116028Y45651*
X115934Y45597*
X115833Y45556*
X115727Y45521*
X115621Y45497*
X115503Y45485*
X115384Y45479*
X115278Y45485*
X115178Y45491*
X115083Y45509*
X114989Y45532*
X114900Y45562*
X114818Y45597*
X114735Y45639*
X114658Y45686*
X114587Y45745*
X114516Y45804*
X114445Y45875*
X114386Y45958*
X114327Y46046*
X114268Y46141*
X114215Y46241*
X114168Y46353*
X114121Y46471*
X114079Y46590*
X114050Y46719*
X114020Y46855*
X114003Y46991*
X113985Y47133*
X113979Y47281*
X113973Y47434*
X113979Y47588*
X113985Y47729*
X114003Y47871*
X114020Y48007*
X114050Y48131*
X114079Y48255*
X114121Y48367*
X114168Y48479*
X114215Y48580*
X114268Y48680*
X114327Y48769*
X114392Y48851*
X114457Y48928*
X114528Y48999*
X114605Y49064*
X114688Y49123*
X114770Y49176*
X114853Y49218*
X114942Y49253*
X115030Y49288*
X115125Y49312*
X115219Y49330*
X115319Y49336*
X115420Y49342*
X115526Y49336*
X115632Y49324*
X115733Y49300*
X115827Y49271*
X115922Y49235*
X116010Y49188*
X116099Y49129*
X116182Y49064*
X116258Y48993*
X116329Y48910*
X116388Y48822*
X116447Y48721*
X116501Y48621*
X116548Y48503*
X116589Y48385*
X116625Y48255*
X116229Y48143*
X116199Y48237*
X116170Y48326*
X116140Y48403*
X116099Y48479*
X116064Y48550*
X116016Y48615*
X115975Y48668*
X115922Y48721*
X115869Y48769*
X115816Y48804*
X115756Y48840*
X115692Y48869*
X115627Y48887*
X115562Y48905*
X115485Y48910*
X115414Y48916*
X115266Y48905*
X115125Y48875*
X115001Y48828*
X114882Y48757*
X114776Y48668*
X114682Y48562*
X114599Y48426*
X114528Y48273*
X114469Y48095*
X114428Y47895*
X114398Y47676*
X114392Y47434*
X114398Y47251*
X114410Y47074*
X114428Y46914*
X114457Y46767*
X114499Y46625*
X114546Y46501*
X114599Y46389*
X114664Y46288*
X114735Y46200*
X114806Y46117*
X114888Y46052*
X114977Y45999*
X115066Y45958*
X115166Y45928*
X115272Y45910*
X115379Y45905*
X115461Y45910*
X115538Y45916*
X115615Y45934*
X115686Y45964*
X115756Y45993*
X115821Y46034*
X115886Y46082*
X115951Y46141*
X116005Y46200*
X116058Y46271*
X116105Y46347*
X116152Y46430*
X116188Y46525*
X116217Y46625*
X116247Y46731*
X116270Y46849*
G37*
X119010Y45987D02*
Y45544D01*
X116985*
X116991Y45680*
X117020Y45828*
X117073Y45981*
X117150Y46141*
X117192Y46229*
X117251Y46318*
X117316Y46406*
X117386Y46507*
X117469Y46607*
X117564Y46708*
X117664Y46814*
X117770Y46926*
X117894Y47056*
X118012Y47174*
X118113Y47286*
X118207Y47393*
X118290Y47487*
X118361Y47582*
X118414Y47664*
X118461Y47735*
X118532Y47877*
X118585Y48013*
X118615Y48143*
X118627Y48273*
X118615Y48408*
X118585Y48532*
X118532Y48639*
X118461Y48739*
X118373Y48816*
X118272Y48869*
X118166Y48905*
X118048Y48916*
X117983Y48910*
X117918Y48905*
X117865Y48887*
X117806Y48869*
X117753Y48840*
X117705Y48804*
X117658Y48769*
X117617Y48721*
X117540Y48615*
X117487Y48485*
X117457Y48338*
X117445Y48166*
X117056Y48214*
X117068Y48344*
X117091Y48468*
X117121Y48580*
X117150Y48686*
X117192Y48781*
X117245Y48869*
X117298Y48952*
X117363Y49023*
X117428Y49088*
X117505Y49141*
X117581Y49188*
X117664Y49223*
X117753Y49253*
X117847Y49277*
X117947Y49288*
X118054Y49294*
X118166Y49288*
X118272Y49277*
X118373Y49247*
X118467Y49218*
X118550Y49170*
X118627Y49117*
X118697Y49052*
X118762Y48975*
X118821Y48899*
X118869Y48816*
X118910Y48727*
X118945Y48639*
X118969Y48550*
X118987Y48456*
X118999Y48361*
X119005Y48261*
X118993Y48084*
X118957Y47912*
X118934Y47824*
X118898Y47741*
X118863Y47658*
X118816Y47576*
X118762Y47493*
X118703Y47399*
X118627Y47298*
X118544Y47198*
X118449Y47086*
X118343Y46962*
X118225Y46838*
X118101Y46708*
X118018Y46625*
X117947Y46548*
X117882Y46477*
X117823Y46418*
X117770Y46359*
X117729Y46312*
X117694Y46271*
X117664Y46235*
X117575Y46111*
X117505Y45987*
X119010*
G36*
Y45544*
X116985*
X116991Y45680*
X117020Y45828*
X117073Y45981*
X117150Y46141*
X117192Y46229*
X117251Y46318*
X117316Y46406*
X117386Y46507*
X117469Y46607*
X117564Y46708*
X117664Y46814*
X117770Y46926*
X117894Y47056*
X118012Y47174*
X118113Y47286*
X118207Y47393*
X118290Y47487*
X118361Y47582*
X118414Y47664*
X118461Y47735*
X118532Y47877*
X118585Y48013*
X118615Y48143*
X118627Y48273*
X118615Y48408*
X118585Y48532*
X118532Y48639*
X118461Y48739*
X118373Y48816*
X118272Y48869*
X118166Y48905*
X118048Y48916*
X117983Y48910*
X117918Y48905*
X117865Y48887*
X117806Y48869*
X117753Y48840*
X117705Y48804*
X117658Y48769*
X117617Y48721*
X117540Y48615*
X117487Y48485*
X117457Y48338*
X117445Y48166*
X117056Y48214*
X117068Y48344*
X117091Y48468*
X117121Y48580*
X117150Y48686*
X117192Y48781*
X117245Y48869*
X117298Y48952*
X117363Y49023*
X117428Y49088*
X117505Y49141*
X117581Y49188*
X117664Y49223*
X117753Y49253*
X117847Y49277*
X117947Y49288*
X118054Y49294*
X118166Y49288*
X118272Y49277*
X118373Y49247*
X118467Y49218*
X118550Y49170*
X118627Y49117*
X118697Y49052*
X118762Y48975*
X118821Y48899*
X118869Y48816*
X118910Y48727*
X118945Y48639*
X118969Y48550*
X118987Y48456*
X118999Y48361*
X119005Y48261*
X118993Y48084*
X118957Y47912*
X118934Y47824*
X118898Y47741*
X118863Y47658*
X118816Y47576*
X118762Y47493*
X118703Y47399*
X118627Y47298*
X118544Y47198*
X118449Y47086*
X118343Y46962*
X118225Y46838*
X118101Y46708*
X118018Y46625*
X117947Y46548*
X117882Y46477*
X117823Y46418*
X117770Y46359*
X117729Y46312*
X117694Y46271*
X117664Y46235*
X117575Y46111*
X117505Y45987*
X119010*
G37*
X130829Y108617D02*
X131236Y108493D01*
X131201Y108340*
X131153Y108198*
X131106Y108068*
X131053Y107944*
X130988Y107832*
X130917Y107731*
X130846Y107637*
X130764Y107554*
X130675Y107483*
X130586Y107418*
X130492Y107365*
X130392Y107324*
X130285Y107288*
X130179Y107265*
X130061Y107253*
X129943Y107247*
X129836Y107253*
X129736Y107259*
X129642Y107277*
X129547Y107300*
X129459Y107330*
X129376Y107365*
X129293Y107406*
X129216Y107454*
X129146Y107513*
X129075Y107572*
X129004Y107643*
X128945Y107725*
X128886Y107814*
X128827Y107908*
X128774Y108009*
X128726Y108121*
X128679Y108239*
X128638Y108357*
X128608Y108487*
X128579Y108623*
X128561Y108759*
X128543Y108901*
X128537Y109048*
X128531Y109202*
X128537Y109355*
X128543Y109497*
X128561Y109639*
X128579Y109775*
X128608Y109899*
X128638Y110023*
X128679Y110135*
X128726Y110247*
X128774Y110347*
X128827Y110448*
X128886Y110536*
X128951Y110619*
X129016Y110696*
X129086Y110767*
X129163Y110832*
X129246Y110891*
X129329Y110944*
X129411Y110985*
X129500Y111021*
X129588Y111056*
X129683Y111080*
X129777Y111097*
X129878Y111103*
X129978Y111109*
X130085Y111103*
X130191Y111092*
X130291Y111068*
X130386Y111038*
X130480Y111003*
X130569Y110956*
X130657Y110897*
X130740Y110832*
X130817Y110761*
X130888Y110678*
X130947Y110590*
X131006Y110489*
X131059Y110389*
X131106Y110271*
X131148Y110153*
X131183Y110023*
X130787Y109910*
X130758Y110005*
X130728Y110094*
X130699Y110170*
X130657Y110247*
X130622Y110318*
X130575Y110383*
X130533Y110436*
X130480Y110489*
X130427Y110536*
X130374Y110572*
X130315Y110607*
X130250Y110637*
X130185Y110655*
X130120Y110672*
X130043Y110678*
X129972Y110684*
X129825Y110672*
X129683Y110643*
X129559Y110595*
X129441Y110525*
X129335Y110436*
X129240Y110330*
X129157Y110194*
X129086Y110040*
X129027Y109863*
X128986Y109662*
X128957Y109444*
X128951Y109202*
X128957Y109019*
X128968Y108842*
X128986Y108682*
X129016Y108534*
X129057Y108393*
X129104Y108269*
X129157Y108156*
X129222Y108056*
X129293Y107968*
X129364Y107885*
X129447Y107820*
X129535Y107767*
X129624Y107725*
X129724Y107696*
X129831Y107678*
X129937Y107672*
X130020Y107678*
X130096Y107684*
X130173Y107702*
X130244Y107731*
X130315Y107761*
X130380Y107802*
X130445Y107849*
X130510Y107908*
X130563Y107968*
X130616Y108038*
X130663Y108115*
X130711Y108198*
X130746Y108292*
X130775Y108393*
X130805Y108499*
X130829Y108617*
G36*
X131236Y108493*
X131201Y108340*
X131153Y108198*
X131106Y108068*
X131053Y107944*
X130988Y107832*
X130917Y107731*
X130846Y107637*
X130764Y107554*
X130675Y107483*
X130586Y107418*
X130492Y107365*
X130392Y107324*
X130285Y107288*
X130179Y107265*
X130061Y107253*
X129943Y107247*
X129836Y107253*
X129736Y107259*
X129642Y107277*
X129547Y107300*
X129459Y107330*
X129376Y107365*
X129293Y107406*
X129216Y107454*
X129146Y107513*
X129075Y107572*
X129004Y107643*
X128945Y107725*
X128886Y107814*
X128827Y107908*
X128774Y108009*
X128726Y108121*
X128679Y108239*
X128638Y108357*
X128608Y108487*
X128579Y108623*
X128561Y108759*
X128543Y108901*
X128537Y109048*
X128531Y109202*
X128537Y109355*
X128543Y109497*
X128561Y109639*
X128579Y109775*
X128608Y109899*
X128638Y110023*
X128679Y110135*
X128726Y110247*
X128774Y110347*
X128827Y110448*
X128886Y110536*
X128951Y110619*
X129016Y110696*
X129086Y110767*
X129163Y110832*
X129246Y110891*
X129329Y110944*
X129411Y110985*
X129500Y111021*
X129588Y111056*
X129683Y111080*
X129777Y111097*
X129878Y111103*
X129978Y111109*
X130085Y111103*
X130191Y111092*
X130291Y111068*
X130386Y111038*
X130480Y111003*
X130569Y110956*
X130657Y110897*
X130740Y110832*
X130817Y110761*
X130888Y110678*
X130947Y110590*
X131006Y110489*
X131059Y110389*
X131106Y110271*
X131148Y110153*
X131183Y110023*
X130787Y109910*
X130758Y110005*
X130728Y110094*
X130699Y110170*
X130657Y110247*
X130622Y110318*
X130575Y110383*
X130533Y110436*
X130480Y110489*
X130427Y110536*
X130374Y110572*
X130315Y110607*
X130250Y110637*
X130185Y110655*
X130120Y110672*
X130043Y110678*
X129972Y110684*
X129825Y110672*
X129683Y110643*
X129559Y110595*
X129441Y110525*
X129335Y110436*
X129240Y110330*
X129157Y110194*
X129086Y110040*
X129027Y109863*
X128986Y109662*
X128957Y109444*
X128951Y109202*
X128957Y109019*
X128968Y108842*
X128986Y108682*
X129016Y108534*
X129057Y108393*
X129104Y108269*
X129157Y108156*
X129222Y108056*
X129293Y107968*
X129364Y107885*
X129447Y107820*
X129535Y107767*
X129624Y107725*
X129724Y107696*
X129831Y107678*
X129937Y107672*
X130020Y107678*
X130096Y107684*
X130173Y107702*
X130244Y107731*
X130315Y107761*
X130380Y107802*
X130445Y107849*
X130510Y107908*
X130563Y107968*
X130616Y108038*
X130663Y108115*
X130711Y108198*
X130746Y108292*
X130775Y108393*
X130805Y108499*
X130829Y108617*
G37*
X132789Y107312D02*
Y108204D01*
X131461*
Y108629*
X132860Y111044*
X133161*
Y108629*
X133575*
Y108204*
X133161*
Y107312*
X132789*
Y108629D02*
Y110312D01*
X131827Y108629*
X132789*
X133161Y109470D02*
G36*
X132789D01*
Y108629*
X131827*
X132308Y109470*
X131948*
X131461Y108629*
Y108204*
X132789*
Y107312*
X133161*
Y108204*
X133575*
Y108629*
X133161*
Y109470*
G37*
Y111044D02*
G36*
X132860D01*
X131948Y109470*
X132308*
X132789Y110312*
Y109470*
X133161*
Y111044*
G37*
X141892Y107288D02*
Y111021D01*
X143251*
X143351*
X143445Y111015*
X143534Y111003*
X143617Y110991*
X143694Y110979*
X143758Y110962*
X143823Y110938*
X143877Y110914*
X143971Y110855*
X144060Y110779*
X144136Y110678*
X144207Y110566*
X144266Y110442*
X144308Y110306*
X144331Y110158*
X144337Y110005*
X144331Y109899*
X144325Y109804*
X144308Y109710*
X144284Y109621*
X144249Y109538*
X144213Y109462*
X144166Y109385*
X144119Y109320*
X144060Y109255*
X143995Y109202*
X143924Y109149*
X143847Y109107*
X143764Y109066*
X143676Y109031*
X143575Y109007*
X143475Y108983*
X143558Y108936*
X143629Y108883*
X143688Y108830*
X143735Y108782*
X143823Y108670*
X143906Y108552*
X143983Y108434*
X144054Y108304*
X144591Y107288*
X144083*
X143670Y108062*
X143611Y108174*
X143558Y108275*
X143510Y108363*
X143463Y108446*
X143416Y108517*
X143381Y108582*
X143345Y108635*
X143310Y108676*
X143251Y108753*
X143192Y108812*
X143138Y108859*
X143079Y108895*
X143020Y108918*
X142944Y108936*
X142861Y108942*
X142766Y108948*
X142300*
Y107288*
X141892*
X142300Y109373D02*
X143168D01*
X143304Y109379*
X143416Y109391*
X143516Y109408*
X143599Y109444*
X143670Y109479*
X143729Y109527*
X143782Y109586*
X143829Y109656*
X143871Y109733*
X143894Y109816*
X143912Y109905*
X143918Y109999*
X143906Y110135*
X143877Y110253*
X143823Y110359*
X143753Y110448*
X143658Y110519*
X143546Y110566*
X143416Y110595*
X143262Y110607*
X142300*
Y109373*
X144336Y109990D02*
G36*
X143917D01*
X143912Y109905*
X143894Y109816*
X143871Y109733*
X143829Y109656*
X143782Y109586*
X143729Y109527*
X143670Y109479*
X143599Y109444*
X143516Y109408*
X143416Y109391*
X143304Y109379*
X143168Y109373*
X142300*
Y109990*
X141892*
Y107288*
X142300*
Y108948*
X142766*
X142861Y108942*
X142944Y108936*
X143020Y108918*
X143079Y108895*
X143138Y108859*
X143192Y108812*
X143251Y108753*
X143310Y108676*
X143345Y108635*
X143381Y108582*
X143416Y108517*
X143463Y108446*
X143510Y108363*
X143558Y108275*
X143611Y108174*
X143670Y108062*
X144083Y107288*
X144591*
X144054Y108304*
X143983Y108434*
X143906Y108552*
X143823Y108670*
X143735Y108782*
X143688Y108830*
X143629Y108883*
X143558Y108936*
X143475Y108983*
X143575Y109007*
X143676Y109031*
X143764Y109066*
X143847Y109107*
X143924Y109149*
X143995Y109202*
X144060Y109255*
X144119Y109320*
X144166Y109385*
X144213Y109462*
X144249Y109538*
X144284Y109621*
X144308Y109710*
X144325Y109804*
X144331Y109899*
X144336Y109990*
G37*
X143351Y111021D02*
G36*
X143251D01*
X141892*
Y109990*
X142300*
Y110607*
X143262*
X143416Y110595*
X143546Y110566*
X143658Y110519*
X143753Y110448*
X143823Y110359*
X143877Y110253*
X143906Y110135*
X143918Y109999*
X143917Y109990*
X144336*
X144337Y110005*
X144331Y110158*
X144308Y110306*
X144266Y110442*
X144207Y110566*
X144136Y110678*
X144060Y110779*
X143971Y110855*
X143877Y110914*
X143823Y110938*
X143758Y110962*
X143694Y110979*
X143617Y110991*
X143534Y111003*
X143445Y111015*
X143351Y111021*
G37*
X146233Y107288D02*
X145861D01*
Y110212*
X145790Y110135*
X145707Y110058*
X145619Y109975*
X145512Y109899*
X145406Y109822*
X145306Y109757*
X145205Y109704*
X145111Y109656*
Y110099*
X145264Y110194*
X145400Y110294*
X145536Y110412*
X145660Y110536*
X145766Y110660*
X145861Y110790*
X145938Y110914*
X145991Y111038*
X146233*
Y107288*
G36*
X145861*
Y110212*
X145790Y110135*
X145707Y110058*
X145619Y109975*
X145512Y109899*
X145406Y109822*
X145306Y109757*
X145205Y109704*
X145111Y109656*
Y110099*
X145264Y110194*
X145400Y110294*
X145536Y110412*
X145660Y110536*
X145766Y110660*
X145861Y110790*
X145938Y110914*
X145991Y111038*
X146233*
Y107288*
G37*
X151341D02*
Y111021D01*
X152699*
X152800*
X152894Y111015*
X152983Y111003*
X153066Y110991*
X153142Y110979*
X153207Y110962*
X153272Y110938*
X153325Y110914*
X153420Y110855*
X153508Y110779*
X153585Y110678*
X153656Y110566*
X153715Y110442*
X153756Y110306*
X153780Y110158*
X153786Y110005*
X153780Y109899*
X153774Y109804*
X153756Y109710*
X153733Y109621*
X153697Y109538*
X153662Y109462*
X153615Y109385*
X153568Y109320*
X153508Y109255*
X153444Y109202*
X153373Y109149*
X153296Y109107*
X153213Y109066*
X153125Y109031*
X153024Y109007*
X152924Y108983*
X153006Y108936*
X153077Y108883*
X153136Y108830*
X153184Y108782*
X153272Y108670*
X153355Y108552*
X153432Y108434*
X153503Y108304*
X154040Y107288*
X153532*
X153119Y108062*
X153060Y108174*
X153006Y108275*
X152959Y108363*
X152912Y108446*
X152865Y108517*
X152829Y108582*
X152794Y108635*
X152758Y108676*
X152699Y108753*
X152640Y108812*
X152587Y108859*
X152528Y108895*
X152469Y108918*
X152392Y108936*
X152310Y108942*
X152215Y108948*
X151749*
Y107288*
X151341*
X151749Y109373D02*
X152617D01*
X152753Y109379*
X152865Y109391*
X152965Y109408*
X153048Y109444*
X153119Y109479*
X153178Y109527*
X153231Y109586*
X153278Y109656*
X153319Y109733*
X153343Y109816*
X153361Y109905*
X153367Y109999*
X153355Y110135*
X153325Y110253*
X153272Y110359*
X153201Y110448*
X153107Y110519*
X152995Y110566*
X152865Y110595*
X152711Y110607*
X151749*
Y109373*
X153785Y109990D02*
G36*
X153366D01*
X153361Y109905*
X153343Y109816*
X153319Y109733*
X153278Y109656*
X153231Y109586*
X153178Y109527*
X153119Y109479*
X153048Y109444*
X152965Y109408*
X152865Y109391*
X152753Y109379*
X152617Y109373*
X151749*
Y109990*
X151341*
Y107288*
X151749*
Y108948*
X152215*
X152310Y108942*
X152392Y108936*
X152469Y108918*
X152528Y108895*
X152587Y108859*
X152640Y108812*
X152699Y108753*
X152758Y108676*
X152794Y108635*
X152829Y108582*
X152865Y108517*
X152912Y108446*
X152959Y108363*
X153006Y108275*
X153060Y108174*
X153119Y108062*
X153532Y107288*
X154040*
X153503Y108304*
X153432Y108434*
X153355Y108552*
X153272Y108670*
X153184Y108782*
X153136Y108830*
X153077Y108883*
X153006Y108936*
X152924Y108983*
X153024Y109007*
X153125Y109031*
X153213Y109066*
X153296Y109107*
X153373Y109149*
X153444Y109202*
X153508Y109255*
X153568Y109320*
X153615Y109385*
X153662Y109462*
X153697Y109538*
X153733Y109621*
X153756Y109710*
X153774Y109804*
X153780Y109899*
X153785Y109990*
G37*
X152800Y111021D02*
G36*
X152699D01*
X151341*
Y109990*
X151749*
Y110607*
X152711*
X152865Y110595*
X152995Y110566*
X153107Y110519*
X153201Y110448*
X153272Y110359*
X153325Y110253*
X153355Y110135*
X153367Y109999*
X153366Y109990*
X153785*
X153786Y110005*
X153780Y110158*
X153756Y110306*
X153715Y110442*
X153656Y110566*
X153585Y110678*
X153508Y110779*
X153420Y110855*
X153325Y110914*
X153272Y110938*
X153207Y110962*
X153142Y110979*
X153066Y110991*
X152983Y111003*
X152894Y111015*
X152800Y111021*
G37*
X155475Y107288D02*
Y108180D01*
X154146*
Y108605*
X155546Y111021*
X155847*
Y108605*
X156260*
Y108180*
X155847*
Y107288*
X155475*
Y108605D02*
Y110288D01*
X154512Y108605*
X155475*
X155847Y109447D02*
G36*
X155475D01*
Y108605*
X154512*
X154994Y109447*
X154634*
X154146Y108605*
Y108180*
X155475*
Y107288*
X155847*
Y108180*
X156260*
Y108605*
X155847*
Y109447*
G37*
Y111021D02*
G36*
X155546D01*
X154634Y109447*
X154994*
X155475Y110288*
Y109447*
X155847*
Y111021*
G37*
X160790Y107288D02*
Y111021D01*
X162148*
X162249*
X162343Y111015*
X162432Y111003*
X162514Y110991*
X162591Y110979*
X162656Y110962*
X162721Y110938*
X162774Y110914*
X162869Y110855*
X162957Y110779*
X163034Y110678*
X163105Y110566*
X163164Y110442*
X163205Y110306*
X163229Y110158*
X163235Y110005*
X163229Y109899*
X163223Y109804*
X163205Y109710*
X163182Y109621*
X163146Y109538*
X163111Y109462*
X163064Y109385*
X163016Y109320*
X162957Y109255*
X162892Y109202*
X162821Y109149*
X162745Y109107*
X162662Y109066*
X162573Y109031*
X162473Y109007*
X162373Y108983*
X162455Y108936*
X162526Y108883*
X162585Y108830*
X162632Y108782*
X162721Y108670*
X162804Y108552*
X162881Y108434*
X162951Y108304*
X163489Y107288*
X162981*
X162568Y108062*
X162508Y108174*
X162455Y108275*
X162408Y108363*
X162361Y108446*
X162314Y108517*
X162278Y108582*
X162243Y108635*
X162207Y108676*
X162148Y108753*
X162089Y108812*
X162036Y108859*
X161977Y108895*
X161918Y108918*
X161841Y108936*
X161758Y108942*
X161664Y108948*
X161197*
Y107288*
X160790*
X161197Y109373D02*
X162066D01*
X162201Y109379*
X162314Y109391*
X162414Y109408*
X162497Y109444*
X162568Y109479*
X162627Y109527*
X162680Y109586*
X162727Y109656*
X162768Y109733*
X162792Y109816*
X162810Y109905*
X162816Y109999*
X162804Y110135*
X162774Y110253*
X162721Y110359*
X162650Y110448*
X162556Y110519*
X162444Y110566*
X162314Y110595*
X162160Y110607*
X161197*
Y109373*
X163234Y109990D02*
G36*
X162815D01*
X162810Y109905*
X162792Y109816*
X162768Y109733*
X162727Y109656*
X162680Y109586*
X162627Y109527*
X162568Y109479*
X162497Y109444*
X162414Y109408*
X162314Y109391*
X162201Y109379*
X162066Y109373*
X161197*
Y109990*
X160790*
Y107288*
X161197*
Y108948*
X161664*
X161758Y108942*
X161841Y108936*
X161918Y108918*
X161977Y108895*
X162036Y108859*
X162089Y108812*
X162148Y108753*
X162207Y108676*
X162243Y108635*
X162278Y108582*
X162314Y108517*
X162361Y108446*
X162408Y108363*
X162455Y108275*
X162508Y108174*
X162568Y108062*
X162981Y107288*
X163489*
X162951Y108304*
X162881Y108434*
X162804Y108552*
X162721Y108670*
X162632Y108782*
X162585Y108830*
X162526Y108883*
X162455Y108936*
X162373Y108983*
X162473Y109007*
X162573Y109031*
X162662Y109066*
X162745Y109107*
X162821Y109149*
X162892Y109202*
X162957Y109255*
X163016Y109320*
X163064Y109385*
X163111Y109462*
X163146Y109538*
X163182Y109621*
X163205Y109710*
X163223Y109804*
X163229Y109899*
X163234Y109990*
G37*
X162249Y111021D02*
G36*
X162148D01*
X160790*
Y109990*
X161197*
Y110607*
X162160*
X162314Y110595*
X162444Y110566*
X162556Y110519*
X162650Y110448*
X162721Y110359*
X162774Y110253*
X162804Y110135*
X162816Y109999*
X162815Y109990*
X163234*
X163235Y110005*
X163229Y110158*
X163205Y110306*
X163164Y110442*
X163105Y110566*
X163034Y110678*
X162957Y110779*
X162869Y110855*
X162774Y110914*
X162721Y110938*
X162656Y110962*
X162591Y110979*
X162514Y110991*
X162432Y111003*
X162343Y111015*
X162249Y111021*
G37*
X165668Y110111D02*
X165296Y110076D01*
X165266Y110206*
X165231Y110318*
X165190Y110412*
X165136Y110483*
X165060Y110560*
X164971Y110613*
X164877Y110649*
X164776Y110660*
X164694Y110655*
X164617Y110637*
X164546Y110601*
X164481Y110560*
X164416Y110501*
X164357Y110430*
X164298Y110347*
X164251Y110253*
X164209Y110158*
X164174Y110058*
X164144Y109940*
X164121Y109816*
X164103Y109686*
X164085Y109538*
X164079Y109385*
X164073Y109214*
X164144Y109332*
X164221Y109432*
X164304Y109515*
X164398Y109586*
X164499Y109645*
X164599Y109686*
X164705Y109710*
X164818Y109716*
X164906Y109710*
X164989Y109692*
X165077Y109668*
X165154Y109633*
X165231Y109586*
X165308Y109527*
X165379Y109462*
X165449Y109385*
X165514Y109296*
X165568Y109208*
X165615Y109107*
X165656Y108995*
X165686Y108883*
X165703Y108765*
X165715Y108635*
X165721Y108499*
X165715Y108316*
X165686Y108139*
X165644Y107973*
X165585Y107820*
X165514Y107678*
X165432Y107554*
X165337Y107454*
X165237Y107371*
X165125Y107306*
X165012Y107259*
X164888Y107235*
X164764Y107223*
X164652Y107229*
X164546Y107247*
X164440Y107282*
X164345Y107330*
X164251Y107389*
X164162Y107460*
X164079Y107542*
X164003Y107643*
X163932Y107755*
X163873Y107885*
X163819Y108032*
X163778Y108198*
X163743Y108381*
X163719Y108582*
X163707Y108800*
X163701Y109036*
X163707Y109296*
X163719Y109538*
X163743Y109757*
X163778Y109964*
X163819Y110147*
X163873Y110306*
X163938Y110454*
X164008Y110578*
X164091Y110684*
X164174Y110779*
X164262Y110855*
X164363Y110920*
X164463Y110973*
X164569Y111009*
X164682Y111032*
X164800Y111038*
X164882Y111032*
X164965Y111021*
X165042Y111003*
X165119Y110979*
X165190Y110944*
X165255Y110903*
X165319Y110855*
X165384Y110802*
X165438Y110737*
X165491Y110666*
X165532Y110590*
X165573Y110507*
X165603Y110418*
X165632Y110324*
X165650Y110223*
X165668Y110111*
X164132Y108499D02*
X164138Y108399D01*
X164144Y108304*
X164162Y108216*
X164180Y108133*
X164209Y108056*
X164239Y107979*
X164280Y107908*
X164327Y107849*
X164375Y107790*
X164422Y107737*
X164475Y107696*
X164534Y107660*
X164587Y107637*
X164646Y107619*
X164705Y107607*
X164770Y107601*
X164823Y107607*
X164877Y107613*
X164930Y107631*
X164983Y107660*
X165030Y107690*
X165077Y107731*
X165125Y107779*
X165166Y107832*
X165243Y107962*
X165302Y108109*
X165331Y108281*
X165343Y108469*
X165331Y108658*
X165302Y108824*
X165243Y108966*
X165172Y109090*
X165125Y109137*
X165077Y109184*
X165030Y109219*
X164977Y109255*
X164924Y109279*
X164865Y109296*
X164806Y109302*
X164747Y109308*
X164682Y109302*
X164623Y109296*
X164569Y109279*
X164516Y109255*
X164463Y109219*
X164410Y109184*
X164363Y109143*
X164316Y109090*
X164233Y108971*
X164180Y108836*
X164144Y108676*
X164132Y108499*
X165720Y108455D02*
G36*
X165342D01*
X165331Y108281*
X165302Y108109*
X165243Y107962*
X165166Y107832*
X165125Y107779*
X165077Y107731*
X165030Y107690*
X164983Y107660*
X164930Y107631*
X164877Y107613*
X164823Y107607*
X164770Y107601*
X164705Y107607*
X164646Y107619*
X164587Y107637*
X164534Y107660*
X164475Y107696*
X164422Y107737*
X164375Y107790*
X164327Y107849*
X164280Y107908*
X164239Y107979*
X164209Y108056*
X164180Y108133*
X164162Y108216*
X164144Y108304*
X164138Y108399*
X164135Y108455*
X163734*
X163743Y108381*
X163778Y108198*
X163819Y108032*
X163873Y107885*
X163932Y107755*
X164003Y107643*
X164079Y107542*
X164162Y107460*
X164251Y107389*
X164345Y107330*
X164440Y107282*
X164546Y107247*
X164652Y107229*
X164764Y107223*
X164888Y107235*
X165012Y107259*
X165125Y107306*
X165237Y107371*
X165337Y107454*
X165432Y107554*
X165514Y107678*
X165585Y107820*
X165644Y107973*
X165686Y108139*
X165715Y108316*
X165720Y108455*
G37*
X164800Y111038D02*
G36*
X164682Y111032D01*
X164569Y111009*
X164463Y110973*
X164363Y110920*
X164262Y110855*
X164174Y110779*
X164091Y110684*
X164008Y110578*
X163938Y110454*
X163873Y110306*
X163819Y110147*
X163778Y109964*
X163743Y109757*
X163719Y109538*
X163707Y109296*
X163701Y109036*
X163707Y108800*
X163719Y108582*
X163734Y108455*
X164135*
X164132Y108499*
X164144Y108676*
X164180Y108836*
X164233Y108971*
X164316Y109090*
X164363Y109143*
X164410Y109184*
X164463Y109219*
X164516Y109255*
X164569Y109279*
X164623Y109296*
X164682Y109302*
X164747Y109308*
X164806Y109302*
X164865Y109296*
X164924Y109279*
X164977Y109255*
X165030Y109219*
X165077Y109184*
X165125Y109137*
X165172Y109090*
X165243Y108966*
X165302Y108824*
X165331Y108658*
X165343Y108469*
X165342Y108455*
X165720*
X165721Y108499*
X165715Y108635*
X165703Y108765*
X165686Y108883*
X165656Y108995*
X165615Y109107*
X165568Y109208*
X165514Y109296*
X165449Y109385*
X165379Y109462*
X165308Y109527*
X165231Y109586*
X165154Y109633*
X165077Y109668*
X164989Y109692*
X164906Y109710*
X164818Y109716*
X164705Y109710*
X164599Y109686*
X164499Y109645*
X164398Y109586*
X164304Y109515*
X164221Y109432*
X164144Y109332*
X164073Y109214*
X164079Y109385*
X164085Y109538*
X164103Y109686*
X164121Y109816*
X164144Y109940*
X164174Y110058*
X164209Y110158*
X164251Y110253*
X164298Y110347*
X164357Y110430*
X164416Y110501*
X164481Y110560*
X164546Y110601*
X164617Y110637*
X164694Y110655*
X164776Y110660*
X164877Y110649*
X164971Y110613*
X165060Y110560*
X165136Y110483*
X165190Y110412*
X165231Y110318*
X165266Y110206*
X165296Y110076*
X165668Y110111*
X165650Y110223*
X165632Y110324*
X165603Y110418*
X165573Y110507*
X165532Y110590*
X165491Y110666*
X165438Y110737*
X165384Y110802*
X165319Y110855*
X165255Y110903*
X165190Y110944*
X165119Y110979*
X165042Y111003*
X164965Y111021*
X164882Y111032*
X164800Y111038*
G37*
X170180Y107288D02*
Y111021D01*
X171538*
X171638*
X171733Y111015*
X171821Y111003*
X171904Y110991*
X171981Y110979*
X172046Y110962*
X172111Y110938*
X172164Y110914*
X172258Y110855*
X172347Y110779*
X172424Y110678*
X172495Y110566*
X172554Y110442*
X172595Y110306*
X172619Y110158*
X172625Y110005*
X172619Y109899*
X172613Y109804*
X172595Y109710*
X172571Y109621*
X172536Y109538*
X172501Y109462*
X172453Y109385*
X172406Y109320*
X172347Y109255*
X172282Y109202*
X172211Y109149*
X172134Y109107*
X172052Y109066*
X171963Y109031*
X171863Y109007*
X171762Y108983*
X171845Y108936*
X171916Y108883*
X171975Y108830*
X172022Y108782*
X172111Y108670*
X172194Y108552*
X172270Y108434*
X172341Y108304*
X172879Y107288*
X172371*
X171957Y108062*
X171898Y108174*
X171845Y108275*
X171798Y108363*
X171751Y108446*
X171703Y108517*
X171668Y108582*
X171632Y108635*
X171597Y108676*
X171538Y108753*
X171479Y108812*
X171426Y108859*
X171367Y108895*
X171308Y108918*
X171231Y108936*
X171148Y108942*
X171054Y108948*
X170587*
Y107288*
X170180*
X170587Y109373D02*
X171455D01*
X171591Y109379*
X171703Y109391*
X171804Y109408*
X171886Y109444*
X171957Y109479*
X172016Y109527*
X172069Y109586*
X172117Y109656*
X172158Y109733*
X172182Y109816*
X172199Y109905*
X172205Y109999*
X172194Y110135*
X172164Y110253*
X172111Y110359*
X172040Y110448*
X171945Y110519*
X171833Y110566*
X171703Y110595*
X171550Y110607*
X170587*
Y109373*
X172624Y109990D02*
G36*
X172205D01*
X172199Y109905*
X172182Y109816*
X172158Y109733*
X172117Y109656*
X172069Y109586*
X172016Y109527*
X171957Y109479*
X171886Y109444*
X171804Y109408*
X171703Y109391*
X171591Y109379*
X171455Y109373*
X170587*
Y109990*
X170180*
Y107288*
X170587*
Y108948*
X171054*
X171148Y108942*
X171231Y108936*
X171308Y108918*
X171367Y108895*
X171426Y108859*
X171479Y108812*
X171538Y108753*
X171597Y108676*
X171632Y108635*
X171668Y108582*
X171703Y108517*
X171751Y108446*
X171798Y108363*
X171845Y108275*
X171898Y108174*
X171957Y108062*
X172371Y107288*
X172879*
X172341Y108304*
X172270Y108434*
X172194Y108552*
X172111Y108670*
X172022Y108782*
X171975Y108830*
X171916Y108883*
X171845Y108936*
X171762Y108983*
X171863Y109007*
X171963Y109031*
X172052Y109066*
X172134Y109107*
X172211Y109149*
X172282Y109202*
X172347Y109255*
X172406Y109320*
X172453Y109385*
X172501Y109462*
X172536Y109538*
X172571Y109621*
X172595Y109710*
X172613Y109804*
X172619Y109899*
X172624Y109990*
G37*
X171638Y111021D02*
G36*
X171538D01*
X170180*
Y109990*
X170587*
Y110607*
X171550*
X171703Y110595*
X171833Y110566*
X171945Y110519*
X172040Y110448*
X172111Y110359*
X172164Y110253*
X172194Y110135*
X172205Y109999*
X172205Y109990*
X172624*
X172625Y110005*
X172619Y110158*
X172595Y110306*
X172554Y110442*
X172495Y110566*
X172424Y110678*
X172347Y110779*
X172258Y110855*
X172164Y110914*
X172111Y110938*
X172046Y110962*
X171981Y110979*
X171904Y110991*
X171821Y111003*
X171733Y111015*
X171638Y111021*
G37*
X173103Y108263D02*
X173499Y108298D01*
X173528Y108133*
X173575Y107991*
X173634Y107873*
X173705Y107773*
X173794Y107696*
X173882Y107643*
X173983Y107613*
X174083Y107601*
X174154Y107607*
X174213Y107619*
X174278Y107637*
X174337Y107660*
X174396Y107696*
X174449Y107737*
X174503Y107790*
X174550Y107844*
X174597Y107908*
X174632Y107979*
X174668Y108056*
X174697Y108139*
X174715Y108221*
X174733Y108316*
X174745Y108410*
Y108517*
X174733Y108706*
X174697Y108871*
X174674Y108942*
X174638Y109013*
X174603Y109078*
X174556Y109137*
X174508Y109184*
X174455Y109231*
X174402Y109267*
X174343Y109302*
X174284Y109326*
X174219Y109344*
X174154Y109349*
X174083Y109355*
X173995Y109349*
X173918Y109332*
X173835Y109302*
X173758Y109261*
X173688Y109208*
X173623Y109149*
X173569Y109078*
X173522Y108995*
X173168Y109054*
X173463Y110973*
X174993*
Y110536*
X173758*
X173599Y109527*
X173670Y109580*
X173741Y109627*
X173812Y109668*
X173882Y109704*
X173953Y109727*
X174030Y109745*
X174107Y109757*
X174184Y109763*
X174278Y109757*
X174367Y109739*
X174455Y109716*
X174544Y109680*
X174627Y109633*
X174703Y109580*
X174780Y109509*
X174857Y109432*
X174922Y109349*
X174981Y109255*
X175028Y109155*
X175069Y109048*
X175099Y108936*
X175123Y108818*
X175134Y108688*
X175140Y108552*
X175134Y108416*
X175123Y108286*
X175099Y108162*
X175069Y108044*
X175028Y107926*
X174981Y107820*
X174922Y107714*
X174857Y107613*
X174780Y107525*
X174703Y107442*
X174615Y107377*
X174520Y107318*
X174420Y107277*
X174319Y107247*
X174207Y107229*
X174089Y107223*
X173995Y107229*
X173900Y107241*
X173806Y107265*
X173723Y107294*
X173640Y107330*
X173564Y107377*
X173487Y107436*
X173416Y107501*
X173351Y107572*
X173292Y107649*
X173245Y107737*
X173203Y107826*
X173168Y107926*
X173138Y108032*
X173115Y108145*
X173103Y108263*
G36*
X173499Y108298*
X173528Y108133*
X173575Y107991*
X173634Y107873*
X173705Y107773*
X173794Y107696*
X173882Y107643*
X173983Y107613*
X174083Y107601*
X174154Y107607*
X174213Y107619*
X174278Y107637*
X174337Y107660*
X174396Y107696*
X174449Y107737*
X174503Y107790*
X174550Y107844*
X174597Y107908*
X174632Y107979*
X174668Y108056*
X174697Y108139*
X174715Y108221*
X174733Y108316*
X174745Y108410*
Y108517*
X174733Y108706*
X174697Y108871*
X174674Y108942*
X174638Y109013*
X174603Y109078*
X174556Y109137*
X174508Y109184*
X174455Y109231*
X174402Y109267*
X174343Y109302*
X174284Y109326*
X174219Y109344*
X174154Y109349*
X174083Y109355*
X173995Y109349*
X173918Y109332*
X173835Y109302*
X173758Y109261*
X173688Y109208*
X173623Y109149*
X173569Y109078*
X173522Y108995*
X173168Y109054*
X173463Y110973*
X174993*
Y110536*
X173758*
X173599Y109527*
X173670Y109580*
X173741Y109627*
X173812Y109668*
X173882Y109704*
X173953Y109727*
X174030Y109745*
X174107Y109757*
X174184Y109763*
X174278Y109757*
X174367Y109739*
X174455Y109716*
X174544Y109680*
X174627Y109633*
X174703Y109580*
X174780Y109509*
X174857Y109432*
X174922Y109349*
X174981Y109255*
X175028Y109155*
X175069Y109048*
X175099Y108936*
X175123Y108818*
X175134Y108688*
X175140Y108552*
X175134Y108416*
X175123Y108286*
X175099Y108162*
X175069Y108044*
X175028Y107926*
X174981Y107820*
X174922Y107714*
X174857Y107613*
X174780Y107525*
X174703Y107442*
X174615Y107377*
X174520Y107318*
X174420Y107277*
X174319Y107247*
X174207Y107229*
X174089Y107223*
X173995Y107229*
X173900Y107241*
X173806Y107265*
X173723Y107294*
X173640Y107330*
X173564Y107377*
X173487Y107436*
X173416Y107501*
X173351Y107572*
X173292Y107649*
X173245Y107737*
X173203Y107826*
X173168Y107926*
X173138Y108032*
X173115Y108145*
X173103Y108263*
G37*
X262451Y90541D02*
X262859Y90417D01*
X262823Y90264*
X262776Y90122*
X262729Y89992*
X262676Y89868*
X262611Y89756*
X262540Y89655*
X262469Y89561*
X262386Y89478*
X262298Y89407*
X262209Y89342*
X262115Y89289*
X262014Y89248*
X261908Y89212*
X261802Y89189*
X261684Y89177*
X261566Y89171*
X261459Y89177*
X261359Y89183*
X261264Y89201*
X261170Y89224*
X261081Y89254*
X260999Y89289*
X260916Y89331*
X260839Y89378*
X260768Y89437*
X260697Y89496*
X260627Y89567*
X260568Y89649*
X260508Y89738*
X260449Y89832*
X260396Y89933*
X260349Y90045*
X260302Y90163*
X260260Y90281*
X260231Y90411*
X260201Y90547*
X260184Y90683*
X260166Y90825*
X260160Y90972*
X260154Y91126*
X260160Y91279*
X260166Y91421*
X260184Y91563*
X260201Y91699*
X260231Y91823*
X260260Y91947*
X260302Y92059*
X260349Y92171*
X260396Y92271*
X260449Y92372*
X260508Y92460*
X260573Y92543*
X260638Y92620*
X260709Y92691*
X260786Y92756*
X260869Y92815*
X260951Y92868*
X261034Y92909*
X261123Y92945*
X261211Y92980*
X261306Y93004*
X261400Y93021*
X261501Y93027*
X261601Y93033*
X261707Y93027*
X261814Y93016*
X261914Y92992*
X262008Y92962*
X262103Y92927*
X262192Y92880*
X262280Y92821*
X262363Y92756*
X262440Y92685*
X262510Y92602*
X262569Y92514*
X262629Y92413*
X262682Y92313*
X262729Y92195*
X262770Y92077*
X262806Y91947*
X262410Y91834*
X262381Y91929*
X262351Y92018*
X262321Y92094*
X262280Y92171*
X262245Y92242*
X262197Y92307*
X262156Y92360*
X262103Y92413*
X262050Y92460*
X261997Y92496*
X261938Y92531*
X261873Y92561*
X261808Y92579*
X261743Y92596*
X261666Y92602*
X261595Y92608*
X261447Y92596*
X261306Y92567*
X261182Y92519*
X261064Y92449*
X260957Y92360*
X260863Y92254*
X260780Y92118*
X260709Y91964*
X260650Y91787*
X260609Y91586*
X260579Y91368*
X260573Y91126*
X260579Y90943*
X260591Y90766*
X260609Y90606*
X260638Y90458*
X260680Y90317*
X260727Y90193*
X260780Y90081*
X260845Y89980*
X260916Y89892*
X260987Y89809*
X261069Y89744*
X261158Y89691*
X261247Y89649*
X261347Y89620*
X261453Y89602*
X261560Y89596*
X261642Y89602*
X261719Y89608*
X261796Y89626*
X261867Y89655*
X261938Y89685*
X262003Y89726*
X262068Y89773*
X262132Y89832*
X262186Y89892*
X262239Y89962*
X262286Y90039*
X262333Y90122*
X262369Y90216*
X262398Y90317*
X262428Y90423*
X262451Y90541*
G36*
X262859Y90417*
X262823Y90264*
X262776Y90122*
X262729Y89992*
X262676Y89868*
X262611Y89756*
X262540Y89655*
X262469Y89561*
X262386Y89478*
X262298Y89407*
X262209Y89342*
X262115Y89289*
X262014Y89248*
X261908Y89212*
X261802Y89189*
X261684Y89177*
X261566Y89171*
X261459Y89177*
X261359Y89183*
X261264Y89201*
X261170Y89224*
X261081Y89254*
X260999Y89289*
X260916Y89331*
X260839Y89378*
X260768Y89437*
X260697Y89496*
X260627Y89567*
X260568Y89649*
X260508Y89738*
X260449Y89832*
X260396Y89933*
X260349Y90045*
X260302Y90163*
X260260Y90281*
X260231Y90411*
X260201Y90547*
X260184Y90683*
X260166Y90825*
X260160Y90972*
X260154Y91126*
X260160Y91279*
X260166Y91421*
X260184Y91563*
X260201Y91699*
X260231Y91823*
X260260Y91947*
X260302Y92059*
X260349Y92171*
X260396Y92271*
X260449Y92372*
X260508Y92460*
X260573Y92543*
X260638Y92620*
X260709Y92691*
X260786Y92756*
X260869Y92815*
X260951Y92868*
X261034Y92909*
X261123Y92945*
X261211Y92980*
X261306Y93004*
X261400Y93021*
X261501Y93027*
X261601Y93033*
X261707Y93027*
X261814Y93016*
X261914Y92992*
X262008Y92962*
X262103Y92927*
X262192Y92880*
X262280Y92821*
X262363Y92756*
X262440Y92685*
X262510Y92602*
X262569Y92514*
X262629Y92413*
X262682Y92313*
X262729Y92195*
X262770Y92077*
X262806Y91947*
X262410Y91834*
X262381Y91929*
X262351Y92018*
X262321Y92094*
X262280Y92171*
X262245Y92242*
X262197Y92307*
X262156Y92360*
X262103Y92413*
X262050Y92460*
X261997Y92496*
X261938Y92531*
X261873Y92561*
X261808Y92579*
X261743Y92596*
X261666Y92602*
X261595Y92608*
X261447Y92596*
X261306Y92567*
X261182Y92519*
X261064Y92449*
X260957Y92360*
X260863Y92254*
X260780Y92118*
X260709Y91964*
X260650Y91787*
X260609Y91586*
X260579Y91368*
X260573Y91126*
X260579Y90943*
X260591Y90766*
X260609Y90606*
X260638Y90458*
X260680Y90317*
X260727Y90193*
X260780Y90081*
X260845Y89980*
X260916Y89892*
X260987Y89809*
X261069Y89744*
X261158Y89691*
X261247Y89649*
X261347Y89620*
X261453Y89602*
X261560Y89596*
X261642Y89602*
X261719Y89608*
X261796Y89626*
X261867Y89655*
X261938Y89685*
X262003Y89726*
X262068Y89773*
X262132Y89832*
X262186Y89892*
X262239Y89962*
X262286Y90039*
X262333Y90122*
X262369Y90216*
X262398Y90317*
X262428Y90423*
X262451Y90541*
G37*
X263774Y91262D02*
X263674Y91315D01*
X263579Y91386*
X263503Y91462*
X263438Y91551*
X263390Y91651*
X263355Y91764*
X263331Y91888*
X263325Y92023*
X263331Y92130*
X263343Y92230*
X263361Y92325*
X263390Y92413*
X263426Y92496*
X263467Y92573*
X263520Y92649*
X263579Y92720*
X263644Y92779*
X263709Y92832*
X263780Y92880*
X263863Y92921*
X263940Y92951*
X264028Y92968*
X264117Y92980*
X264205Y92986*
X264300Y92980*
X264388Y92968*
X264477Y92945*
X264560Y92915*
X264636Y92880*
X264707Y92832*
X264778Y92779*
X264843Y92714*
X264902Y92644*
X264955Y92567*
X264997Y92484*
X265032Y92401*
X265062Y92313*
X265079Y92212*
X265091Y92118*
X265097Y92012*
X265091Y91882*
X265068Y91758*
X265032Y91651*
X264985Y91551*
X264926Y91462*
X264849Y91386*
X264755Y91321*
X264654Y91262*
X264784Y91197*
X264896Y91120*
X264991Y91019*
X265073Y90907*
X265138Y90777*
X265186Y90630*
X265209Y90476*
X265221Y90299*
X265215Y90175*
X265203Y90063*
X265180Y89951*
X265150Y89844*
X265109Y89750*
X265056Y89655*
X265003Y89567*
X264932Y89484*
X264855Y89413*
X264778Y89348*
X264695Y89295*
X264607Y89248*
X264518Y89212*
X264418Y89189*
X264318Y89177*
X264211Y89171*
X264105Y89177*
X264005Y89189*
X263910Y89212*
X263816Y89248*
X263727Y89295*
X263644Y89348*
X263568Y89413*
X263491Y89484*
X263426Y89567*
X263367Y89655*
X263314Y89750*
X263272Y89850*
X263243Y89956*
X263219Y90069*
X263207Y90187*
X263201Y90311*
X263213Y90494*
X263237Y90653*
X263290Y90801*
X263355Y90931*
X263438Y91043*
X263538Y91138*
X263650Y91208*
X263774Y91262*
X263703Y92041D02*
X263715Y91905D01*
X263739Y91793*
X263786Y91687*
X263851Y91598*
X263928Y91527*
X264016Y91480*
X264111Y91451*
X264211Y91439*
X264318Y91451*
X264406Y91480*
X264495Y91527*
X264571Y91598*
X264636Y91687*
X264684Y91781*
X264707Y91894*
X264719Y92012*
X264707Y92136*
X264684Y92248*
X264636Y92354*
X264566Y92443*
X264489Y92514*
X264400Y92567*
X264312Y92596*
X264211Y92608*
X264111Y92596*
X264016Y92567*
X263934Y92514*
X263851Y92443*
X263786Y92360*
X263739Y92260*
X263715Y92153*
X263703Y92041*
X263579Y90311D02*
X263591Y90145D01*
X263627Y90004*
X263686Y89874*
X263768Y89756*
X263816Y89708*
X263863Y89667*
X263916Y89632*
X263975Y89602*
X264028Y89579*
X264087Y89561*
X264152Y89555*
X264211Y89549*
X264276*
X264341Y89561*
X264400Y89579*
X264459Y89602*
X264512Y89626*
X264566Y89661*
X264613Y89703*
X264660Y89750*
X264743Y89862*
X264796Y89992*
X264831Y90134*
X264843Y90299*
X264831Y90458*
X264796Y90606*
X264737Y90736*
X264654Y90848*
X264607Y90901*
X264554Y90943*
X264501Y90978*
X264447Y91008*
X264388Y91031*
X264329Y91049*
X264270Y91055*
X264205Y91061*
X264140Y91055*
X264081Y91049*
X264022Y91031*
X263963Y91008*
X263910Y90978*
X263857Y90943*
X263810Y90901*
X263762Y90854*
X263680Y90742*
X263627Y90612*
X263591Y90470*
X263579Y90311*
X265221Y90305D02*
G36*
X264843D01*
X264843Y90299*
X264831Y90134*
X264796Y89992*
X264743Y89862*
X264660Y89750*
X264613Y89703*
X264566Y89661*
X264512Y89626*
X264459Y89602*
X264400Y89579*
X264341Y89561*
X264276Y89549*
X264211*
X264152Y89555*
X264087Y89561*
X264028Y89579*
X263975Y89602*
X263916Y89632*
X263863Y89667*
X263816Y89708*
X263768Y89756*
X263686Y89874*
X263627Y90004*
X263591Y90145*
X263580Y90305*
X263202*
X263207Y90187*
X263219Y90069*
X263243Y89956*
X263272Y89850*
X263314Y89750*
X263367Y89655*
X263426Y89567*
X263491Y89484*
X263568Y89413*
X263644Y89348*
X263727Y89295*
X263816Y89248*
X263910Y89212*
X264005Y89189*
X264105Y89177*
X264211Y89171*
X264318Y89177*
X264418Y89189*
X264518Y89212*
X264607Y89248*
X264695Y89295*
X264778Y89348*
X264855Y89413*
X264932Y89484*
X265003Y89567*
X265056Y89655*
X265109Y89750*
X265150Y89844*
X265180Y89951*
X265203Y90063*
X265215Y90175*
X265221Y90299*
X265221Y90305*
G37*
X265096Y92023D02*
G36*
X264718D01*
X264719Y92012*
X264707Y91894*
X264684Y91781*
X264636Y91687*
X264571Y91598*
X264495Y91527*
X264406Y91480*
X264318Y91451*
X264211Y91439*
X264111Y91451*
X264016Y91480*
X263928Y91527*
X263851Y91598*
X263786Y91687*
X263739Y91793*
X263715Y91905*
X263705Y92023*
X263325*
X263331Y91888*
X263355Y91764*
X263390Y91651*
X263438Y91551*
X263503Y91462*
X263579Y91386*
X263674Y91315*
X263774Y91262*
X263650Y91208*
X263538Y91138*
X263438Y91043*
X263355Y90931*
X263290Y90801*
X263237Y90653*
X263213Y90494*
X263201Y90311*
X263202Y90305*
X263580*
X263579Y90311*
X263591Y90470*
X263627Y90612*
X263680Y90742*
X263762Y90854*
X263810Y90901*
X263857Y90943*
X263910Y90978*
X263963Y91008*
X264022Y91031*
X264081Y91049*
X264140Y91055*
X264205Y91061*
X264270Y91055*
X264329Y91049*
X264388Y91031*
X264447Y91008*
X264501Y90978*
X264554Y90943*
X264607Y90901*
X264654Y90848*
X264737Y90736*
X264796Y90606*
X264831Y90458*
X264843Y90305*
X265221*
X265209Y90476*
X265186Y90630*
X265138Y90777*
X265073Y90907*
X264991Y91019*
X264896Y91120*
X264784Y91197*
X264654Y91262*
X264755Y91321*
X264849Y91386*
X264926Y91462*
X264985Y91551*
X265032Y91651*
X265068Y91758*
X265091Y91882*
X265097Y92012*
X265096Y92023*
G37*
X264205Y92986D02*
G36*
X264117Y92980D01*
X264028Y92968*
X263940Y92951*
X263863Y92921*
X263780Y92880*
X263709Y92832*
X263644Y92779*
X263579Y92720*
X263520Y92649*
X263467Y92573*
X263426Y92496*
X263390Y92413*
X263361Y92325*
X263343Y92230*
X263331Y92130*
X263325Y92023*
X263705*
X263703Y92041*
X263715Y92153*
X263739Y92260*
X263786Y92360*
X263851Y92443*
X263934Y92514*
X264016Y92567*
X264111Y92596*
X264211Y92608*
X264312Y92596*
X264400Y92567*
X264489Y92514*
X264566Y92443*
X264636Y92354*
X264684Y92248*
X264707Y92136*
X264718Y92023*
X265096*
X265091Y92118*
X265079Y92212*
X265062Y92313*
X265032Y92401*
X264997Y92484*
X264955Y92567*
X264902Y92644*
X264843Y92714*
X264778Y92779*
X264707Y92832*
X264636Y92880*
X264560Y92915*
X264477Y92945*
X264388Y92968*
X264300Y92980*
X264205Y92986*
G37*
X272058Y90541D02*
X272465Y90417D01*
X272430Y90264*
X272382Y90122*
X272335Y89992*
X272282Y89868*
X272217Y89756*
X272146Y89655*
X272075Y89561*
X271993Y89478*
X271904Y89407*
X271816Y89342*
X271721Y89289*
X271621Y89248*
X271514Y89212*
X271408Y89189*
X271290Y89177*
X271172Y89171*
X271066Y89177*
X270965Y89183*
X270871Y89201*
X270776Y89224*
X270688Y89254*
X270605Y89289*
X270522Y89331*
X270445Y89378*
X270375Y89437*
X270304Y89496*
X270233Y89567*
X270174Y89649*
X270115Y89738*
X270056Y89832*
X270003Y89933*
X269955Y90045*
X269908Y90163*
X269867Y90281*
X269837Y90411*
X269808Y90547*
X269790Y90683*
X269772Y90825*
X269766Y90972*
X269760Y91126*
X269766Y91279*
X269772Y91421*
X269790Y91563*
X269808Y91699*
X269837Y91823*
X269867Y91947*
X269908Y92059*
X269955Y92171*
X270003Y92271*
X270056Y92372*
X270115Y92460*
X270180Y92543*
X270245Y92620*
X270316Y92691*
X270392Y92756*
X270475Y92815*
X270558Y92868*
X270640Y92909*
X270729Y92945*
X270818Y92980*
X270912Y93004*
X271006Y93021*
X271107Y93027*
X271207Y93033*
X271314Y93027*
X271420Y93016*
X271520Y92992*
X271615Y92962*
X271709Y92927*
X271798Y92880*
X271886Y92821*
X271969Y92756*
X272046Y92685*
X272117Y92602*
X272176Y92514*
X272235Y92413*
X272288Y92313*
X272335Y92195*
X272377Y92077*
X272412Y91947*
X272016Y91834*
X271987Y91929*
X271957Y92018*
X271928Y92094*
X271886Y92171*
X271851Y92242*
X271804Y92307*
X271762Y92360*
X271709Y92413*
X271656Y92460*
X271603Y92496*
X271544Y92531*
X271479Y92561*
X271414Y92579*
X271349Y92596*
X271272Y92602*
X271201Y92608*
X271054Y92596*
X270912Y92567*
X270788Y92519*
X270670Y92449*
X270564Y92360*
X270469Y92254*
X270386Y92118*
X270316Y91964*
X270256Y91787*
X270215Y91586*
X270186Y91368*
X270180Y91126*
X270186Y90943*
X270197Y90766*
X270215Y90606*
X270245Y90458*
X270286Y90317*
X270333Y90193*
X270386Y90081*
X270451Y89980*
X270522Y89892*
X270593Y89809*
X270676Y89744*
X270764Y89691*
X270853Y89649*
X270953Y89620*
X271060Y89602*
X271166Y89596*
X271249Y89602*
X271325Y89608*
X271402Y89626*
X271473Y89655*
X271544Y89685*
X271609Y89726*
X271674Y89773*
X271739Y89832*
X271792Y89892*
X271845Y89962*
X271892Y90039*
X271940Y90122*
X271975Y90216*
X272005Y90317*
X272034Y90423*
X272058Y90541*
G36*
X272465Y90417*
X272430Y90264*
X272382Y90122*
X272335Y89992*
X272282Y89868*
X272217Y89756*
X272146Y89655*
X272075Y89561*
X271993Y89478*
X271904Y89407*
X271816Y89342*
X271721Y89289*
X271621Y89248*
X271514Y89212*
X271408Y89189*
X271290Y89177*
X271172Y89171*
X271066Y89177*
X270965Y89183*
X270871Y89201*
X270776Y89224*
X270688Y89254*
X270605Y89289*
X270522Y89331*
X270445Y89378*
X270375Y89437*
X270304Y89496*
X270233Y89567*
X270174Y89649*
X270115Y89738*
X270056Y89832*
X270003Y89933*
X269955Y90045*
X269908Y90163*
X269867Y90281*
X269837Y90411*
X269808Y90547*
X269790Y90683*
X269772Y90825*
X269766Y90972*
X269760Y91126*
X269766Y91279*
X269772Y91421*
X269790Y91563*
X269808Y91699*
X269837Y91823*
X269867Y91947*
X269908Y92059*
X269955Y92171*
X270003Y92271*
X270056Y92372*
X270115Y92460*
X270180Y92543*
X270245Y92620*
X270316Y92691*
X270392Y92756*
X270475Y92815*
X270558Y92868*
X270640Y92909*
X270729Y92945*
X270818Y92980*
X270912Y93004*
X271006Y93021*
X271107Y93027*
X271207Y93033*
X271314Y93027*
X271420Y93016*
X271520Y92992*
X271615Y92962*
X271709Y92927*
X271798Y92880*
X271886Y92821*
X271969Y92756*
X272046Y92685*
X272117Y92602*
X272176Y92514*
X272235Y92413*
X272288Y92313*
X272335Y92195*
X272377Y92077*
X272412Y91947*
X272016Y91834*
X271987Y91929*
X271957Y92018*
X271928Y92094*
X271886Y92171*
X271851Y92242*
X271804Y92307*
X271762Y92360*
X271709Y92413*
X271656Y92460*
X271603Y92496*
X271544Y92531*
X271479Y92561*
X271414Y92579*
X271349Y92596*
X271272Y92602*
X271201Y92608*
X271054Y92596*
X270912Y92567*
X270788Y92519*
X270670Y92449*
X270564Y92360*
X270469Y92254*
X270386Y92118*
X270316Y91964*
X270256Y91787*
X270215Y91586*
X270186Y91368*
X270180Y91126*
X270186Y90943*
X270197Y90766*
X270215Y90606*
X270245Y90458*
X270286Y90317*
X270333Y90193*
X270386Y90081*
X270451Y89980*
X270522Y89892*
X270593Y89809*
X270676Y89744*
X270764Y89691*
X270853Y89649*
X270953Y89620*
X271060Y89602*
X271166Y89596*
X271249Y89602*
X271325Y89608*
X271402Y89626*
X271473Y89655*
X271544Y89685*
X271609Y89726*
X271674Y89773*
X271739Y89832*
X271792Y89892*
X271845Y89962*
X271892Y90039*
X271940Y90122*
X271975Y90216*
X272005Y90317*
X272034Y90423*
X272058Y90541*
G37*
X272837Y92478D02*
Y92921D01*
X274816*
Y92567*
X274703Y92413*
X274597Y92254*
X274497Y92082*
X274396Y91899*
X274302Y91710*
X274207Y91504*
X274119Y91291*
X274030Y91067*
X273953Y90836*
X273877Y90606*
X273818Y90376*
X273764Y90145*
X273717Y89915*
X273682Y89691*
X273658Y89460*
X273640Y89236*
X273262*
X273274Y89478*
X273304Y89744*
X273351Y90027*
X273410Y90329*
X273487Y90636*
X273581Y90937*
X273682Y91232*
X273800Y91516*
X273924Y91787*
X274054Y92041*
X274190Y92271*
X274331Y92478*
X272837*
G36*
Y92921*
X274816*
Y92567*
X274703Y92413*
X274597Y92254*
X274497Y92082*
X274396Y91899*
X274302Y91710*
X274207Y91504*
X274119Y91291*
X274030Y91067*
X273953Y90836*
X273877Y90606*
X273818Y90376*
X273764Y90145*
X273717Y89915*
X273682Y89691*
X273658Y89460*
X273640Y89236*
X273262*
X273274Y89478*
X273304Y89744*
X273351Y90027*
X273410Y90329*
X273487Y90636*
X273581Y90937*
X273682Y91232*
X273800Y91516*
X273924Y91787*
X274054Y92041*
X274190Y92271*
X274331Y92478*
X272837*
G37*
D02*
D23*
X23036Y14686D02*
Y117048D01*
X298627*
Y14686*
X23036*
D02*
D24*
X76776Y55966D02*
Y76438D01*
X67721*
Y55966*
X76776*
X278796Y32625D02*
Y93625D01*
X289796*
Y35125*
X287296Y32625*
X278796*
D02*
D25*
X67541Y51389D02*
X67252Y51100D01*
X66673Y50810*
X65804*
X65225Y51100*
X64936Y51389*
X64646Y51968*
Y53126*
X64936Y53705*
X65225Y53995*
X65804Y54284*
X66673*
X67252Y53995*
X67541Y53705*
X69211Y50810D02*
X70369Y50810D01*
X69790D02*
X69790Y54284D01*
X69211Y53705*
X138417Y79625D02*
X138417Y77020D01*
X138706Y76441*
X139285Y76152*
X140443*
X141022Y76441*
X141311Y77020*
Y79625*
X142982Y76152D02*
X144140Y76152D01*
X143561D02*
X143561Y79625D01*
X142982Y79046*
X199375Y88831D02*
X199375Y86226D01*
X199664Y85647*
X200243Y85358*
X201401*
X201980Y85647*
X202269Y86226*
Y88831*
X205677Y85358D02*
X203361Y85358D01*
X205387Y87384*
X205677Y87963*
X205387Y88542*
X204808Y88831*
X203940*
X203361Y88542*
X281894Y98542D02*
X282184Y98252D01*
X282763Y97963*
X283342Y98252*
X283631Y98542*
Y101437*
X284210*
X283631D02*
X282473Y101437D01*
X285820Y97963D02*
X286978Y97963D01*
X286399D02*
X286399Y101437D01*
X285820Y100858*
D02*
D26*
X62406Y79981D02*
Y78381D01*
Y76781D02*
Y75181D01*
Y73581D02*
Y71981D01*
Y70381D02*
Y68781D01*
Y67181D02*
Y65581D01*
Y63981D02*
Y62381D01*
Y60781D02*
Y59181D01*
Y57581D02*
Y55981D01*
Y54381D02*
Y52781D01*
Y51181D02*
Y49581D01*
Y49273D03*
X60806D01*
X59206D02*
X57606D01*
X56006D02*
X54406D01*
X52806D02*
X51206D01*
X49606D02*
X48006D01*
X46406D02*
X44806D01*
X43206D02*
X41606D01*
X40006D02*
X38406D01*
X36806D02*
X35206D01*
X33606D02*
X32006D01*
X30406D02*
X28806D01*
X27206D02*
X25606D01*
X25398D03*
Y50873D01*
Y52473D02*
Y54073D01*
Y55673D02*
Y57273D01*
Y58873D02*
Y60473D01*
Y62073D02*
Y63673D01*
Y65273D02*
Y66873D01*
Y68473D02*
Y70073D01*
Y71673D02*
Y73273D01*
Y74873D02*
Y76473D01*
Y78073D02*
Y79673D01*
Y79981D03*
X26998D01*
X28598D02*
X30198D01*
X31798D02*
X33398D01*
X34998D02*
X36598D01*
X38198D02*
X39798D01*
X41398D02*
X42998D01*
X44598D02*
X46198D01*
X47798D02*
X49398D01*
X50998D02*
X52598D01*
X54198D02*
X55798D01*
X57398D02*
X58998D01*
X60598D02*
X62198D01*
X62406D03*
D02*
D27*
X36123Y70532D02*
X39653Y70532D01*
X37888Y69062*
X39653Y67591*
X36123*
Y66482D02*
X38476Y66482D01*
X39358D02*
X39359Y66483D01*
X36123Y64332D02*
X38476Y64332D01*
X37594D02*
X38182Y64038D01*
X38476Y63450*
Y62862*
X38182Y62274*
X37594Y61980*
X36123*
Y60932D02*
X38476Y60932D01*
X39358D02*
X39359Y60933D01*
X33653Y70532D02*
X31005Y70532D01*
X30417Y70238*
X30123Y69650*
Y68474*
X30417Y67885*
X31005Y67591*
X33653*
X31005Y66482D02*
X30417Y66188D01*
X30123Y65600*
Y64424*
X30417Y63835*
X31005Y63541*
X31594Y63835*
X31888Y64424*
Y65600*
X32182Y66188*
X32770Y66482*
X33358Y66188*
X33653Y65600*
Y64424*
X33358Y63835*
X32770Y63541*
X31888Y60374D02*
X31594Y59785D01*
X31005Y59491*
X30417Y59785*
X30123Y60374*
Y62432*
X33653*
Y60374*
X33358Y59785*
X32770Y59491*
X32182Y59785*
X31888Y60374*
Y62432*
X249504Y81212D02*
X250387Y81212D01*
Y80918*
X250093Y80330*
X249798Y80036*
X249210Y79742*
X248622*
X248034Y80036*
X247740Y80330*
X247445Y80918*
Y82095*
X247740Y82683*
X248034Y82977*
X248622Y83271*
X249210*
X249798Y82977*
X250093Y82683*
X250387Y82095*
X251495Y79742D02*
X251495Y83271D01*
X254437Y79742*
Y83271*
X255545Y79742D02*
X255545Y83271D01*
X257310*
X257898Y82977*
X258193Y82683*
X258487Y82095*
Y80918*
X258193Y80330*
X257898Y80036*
X257310Y79742*
X255545*
X247445Y93901D02*
X248916Y90372D01*
X250387Y93901*
X254437Y90960D02*
X254143Y90666D01*
X253554Y90372*
X252672*
X252084Y90666*
X251790Y90960*
X251495Y91548*
Y92724*
X251790Y93313*
X252084Y93607*
X252672Y93901*
X253554*
X254143Y93607*
X254437Y93313*
X258487Y90960D02*
X258193Y90666D01*
X257604Y90372*
X256722*
X256134Y90666*
X255840Y90960*
X255545Y91548*
Y92724*
X255840Y93313*
X256134Y93607*
X256722Y93901*
X257604*
X258193Y93607*
X258487Y93313*
X262932Y40339D02*
X262932Y43868D01*
X264696*
X265285Y43574*
X265579Y43280*
X265873Y42692*
Y41515*
X265579Y40927*
X265285Y40633*
X264696Y40339*
X262932*
X268452D02*
X268452Y43868D01*
X266982D02*
X269923Y43868D01*
X271032Y40339D02*
X271032Y43868D01*
X273090*
X273679Y43574*
X273973Y42986*
X273679Y42398*
X273090Y42104*
X271032*
X273090D02*
X273973Y40339D01*
X262932Y49945D02*
X262932Y53475D01*
X264990*
X265579Y53180*
X265873Y52592*
X265579Y52004*
X264990Y51710*
X262932*
X264990D02*
X265873Y49945D01*
X266982D02*
X269923Y53475D01*
X266982D02*
X269923Y49945D01*
X271032D02*
X271032Y53475D01*
X272796*
X273385Y53180*
X273679Y52886*
X273973Y52298*
Y51122*
X273679Y50533*
X273385Y50239*
X272796Y49945*
X271032*
X264402Y59551D02*
X264402Y63081D01*
X262932D02*
X265873Y63081D01*
X266982Y59551D02*
X269923Y63081D01*
X266982D02*
X269923Y59551D01*
X271032D02*
X271032Y63081D01*
X272796*
X273385Y62787*
X273679Y62493*
X273973Y61904*
Y60728*
X273679Y60140*
X273385Y59846*
X272796Y59551*
X271032*
X262932Y70359D02*
X262932Y73888D01*
X264990*
X265579Y73594*
X265873Y73006*
X265579Y72417*
X264990Y72123*
X262932*
X264990D02*
X265873Y70359D01*
X268452D02*
X268452Y73888D01*
X266982D02*
X269923Y73888D01*
X271032Y71241D02*
X271326Y70653D01*
X271914Y70359*
X273090*
X273679Y70653*
X273973Y71241*
X273679Y71829*
X273090Y72123*
X271914*
X271326Y72417*
X271032Y73006*
X271326Y73594*
X271914Y73888*
X273090*
X273679Y73594*
X273973Y73006*
D02*
D28*
X111666Y58627D02*
X107726D01*
Y74327*
X111666*
X138186D02*
X142126D01*
Y58627*
X138186*
X142126Y67677D02*
G75*
G03Y65277J-1200D01*
G01*
X187026Y42227D02*
X216526D01*
X200576Y82827D02*
G75*
G03X202976I1200D01*
G01*
X216526D02*
X187026D01*
D02*
D29*
X144135Y77177D02*
X144135Y74824D01*
X142958Y76589D02*
X145311Y75413D01*
Y76589D02*
X142958Y75413D01*
X182976Y88786D02*
X185329Y88786D01*
X183564Y87610D02*
X184741Y89963D01*
X183564D02*
X184741Y87610D01*
D02*
D72*
X75349Y81666D02*
Y92666D01*
X69149*
Y81666*
X75349*
X79956Y65048D02*
Y54048D01*
X86156*
Y65048*
X79956*
X86156Y67257D02*
Y78257D01*
X79956*
Y67257*
X86156*
X106410Y65975D02*
X95410D01*
Y59775*
X106410*
Y65975*
Y73180D02*
X95410D01*
Y66980*
X106410*
Y73180*
X111175Y33595D02*
Y44595D01*
X104975*
Y33595*
X111175*
X112849Y44595D02*
Y33595D01*
X119049*
Y44595*
X112849*
X127959Y106363D02*
Y95363D01*
X134159*
Y106363*
X127959*
X147396Y95363D02*
Y106363D01*
X141196*
Y95363*
X147396*
X156845D02*
Y106363D01*
X150645*
Y95363*
X156845*
X160094Y106363D02*
Y95363D01*
X166294*
Y106363*
X160094*
X175683Y95363D02*
Y106363D01*
X169483*
Y95363*
X175683*
X265782Y77528D02*
Y88528D01*
X259582*
Y77528*
X265782*
X275388D02*
Y88528D01*
X269188*
Y77528*
X275388*
X0Y0D02*
M02*
