G04 GENERATED BY PULSONIX 8.5 GERBER.DLL 5902*
G04 #@! TF.Part,Single*
%INUSB2UART*%
%LNSOLDER MASK TOP*%
%FSLAX35Y35*%
%LPD*%
%MOIN*%
G04 #@! TF.FileFunction,Soldermask,Top*
G04 #@! TA.AperFunction,ViaPad*
%ADD73C,0.05724*%
G04 #@! TA.AperFunction,SMDPad*
%ADD74R,0.08480X0.06512*%
%ADD75R,0.11630X0.03165*%
%ADD76R,0.10843X0.08874*%
%ADD77R,0.02400X0.08800*%
%ADD78R,0.08800X0.03200*%
G04 #@! TA.AperFunction,ComponentPad*
%ADD79R,0.08000X0.08000*%
%ADD80C,0.08000*%
G04 #@! TA.AperFunction,SMDPad*
%ADD81R,0.06508X0.04350*%
%ADD82R,0.04350X0.06508*%
X0Y0D02*
D02*
D73*
X82879Y43032D03*
Y90670D03*
X91146Y35158D03*
Y76103D03*
X121068Y65473D03*
X123430Y43032D03*
X131304Y91064D03*
X136028Y49725D03*
X144296Y91064D03*
X153745D03*
X154138Y70198D03*
X158469Y65080D03*
X162800Y59962D03*
Y91064D03*
X167131Y54844D03*
X171068Y50119D03*
Y80040D03*
X172642Y91064D03*
X175398Y45001D03*
Y74922D03*
X231697Y50119D03*
Y80040D03*
X236028Y45001D03*
Y74922D03*
X240753Y39883D03*
Y70198D03*
D02*
D74*
X72249Y59706D03*
Y72698D03*
D02*
D75*
X59945Y58328D03*
Y61477D03*
Y64627D03*
Y67777D03*
Y70926D03*
D02*
D76*
X37111Y47107D03*
Y82147D03*
X58764Y47107D03*
Y82147D03*
D02*
D77*
X113676Y56777D03*
Y76177D03*
X116176Y56777D03*
Y76177D03*
X118676Y56777D03*
Y76177D03*
X121176Y56777D03*
Y76177D03*
X123676Y56777D03*
Y76177D03*
X126176Y56777D03*
Y76177D03*
X128676Y56777D03*
Y76177D03*
X131176Y56777D03*
Y76177D03*
X133676Y56777D03*
Y76177D03*
X136176Y56777D03*
Y76177D03*
D02*
D78*
X183976Y45027D03*
Y50027D03*
Y55027D03*
Y60027D03*
Y65027D03*
Y70027D03*
Y75027D03*
Y80027D03*
X219576Y45027D03*
Y50027D03*
Y55027D03*
Y60027D03*
Y65027D03*
Y70027D03*
Y75027D03*
Y80027D03*
D02*
D79*
X284296Y38125D03*
D02*
D80*
Y48125D03*
Y58125D03*
Y68125D03*
Y78125D03*
Y88125D03*
D02*
D81*
X72249Y83666D03*
Y90666D03*
X83056Y56048D03*
Y63048D03*
Y69257D03*
Y76257D03*
X108075Y35595D03*
Y42595D03*
X115949Y35595D03*
Y42595D03*
X131059Y97363D03*
Y104363D03*
X144296Y97363D03*
Y104363D03*
X153745Y97363D03*
Y104363D03*
X163194Y97363D03*
Y104363D03*
X172583Y97363D03*
Y104363D03*
X262682Y79528D03*
Y86528D03*
X272288Y79528D03*
Y86528D03*
D02*
D82*
X97410Y62875D03*
Y70080D03*
X104410Y62875D03*
Y70080D03*
X0Y0D02*
M02*
