M48
FMAT,1
INCH
T01C000.01969
T02C000.03900
%
G81
M70
T01
X00082879Y00043032
X00082879Y00090670
X00091146Y00035158
X00091146Y00076103
X00121068Y00065473
X00123430Y00043032
X00131304Y00091064
X00136028Y00049725
X00144296Y00091064
X00153745Y00091064
X00154138Y00070198
X00158469Y00065080
X00162800Y00059962
X00162800Y00091064
X00167131Y00054844
X00171068Y00050119
X00171068Y00080040
X00172642Y00091064
X00175398Y00045001
X00175398Y00074922
X00231697Y00050119
X00231697Y00080040
X00236028Y00045001
X00236028Y00074922
X00240753Y00039883
X00240753Y00070198
T02
X00284296Y00038125
X00284296Y00048125
X00284296Y00058125
X00284296Y00068125
X00284296Y00078125
X00284296Y00088125
M30
